<svg xmlns="http://www.w3.org/2000/svg" xmlns:xlink="http://www.w3.org/1999/xlink" width="768" zoomAndPan="magnify" viewBox="0 0 576 311.25" height="415" preserveAspectRatio="xMidYMid meet" version="1.0"><defs><g/><clipPath id="991e5ce9b7"><path d="M 0.691406 0 L 575.308594 0 L 575.308594 310.5 L 0.691406 310.5 Z M 0.691406 0 " clip-rule="nonzero"/></clipPath></defs><g clip-path="url(#991e5ce9b7)"><path fill="#ffffff" d="M 0.691406 0 L 575.308594 0 L 575.308594 310.5 L 0.691406 310.5 Z M 0.691406 0 " fill-opacity="1" fill-rule="nonzero"/><path fill="#3f4e4f" d="M 0.691406 0 L 575.308594 0 L 575.308594 310.5 L 0.691406 310.5 Z M 0.691406 0 " fill-opacity="1" fill-rule="nonzero"/></g><g fill="#dcd7c9" fill-opacity="1"><g transform="translate(102.677559, 125.730347)"><g><path d="M 0.890625 -36.234375 L 0.890625 -44.40625 L 24.90625 -44.40625 L 24.90625 -36.234375 L 17.703125 -36.234375 L 17.703125 0 L 8.09375 0 L 8.09375 -36.234375 Z M 0.890625 -36.234375 "/></g></g></g><g fill="#dcd7c9" fill-opacity="1"><g transform="translate(128.54301, 125.730347)"><g><path d="M 13.03125 -7.953125 L 23.671875 -7.953125 L 23.671875 0 L 3.4375 0 L 3.4375 -44.40625 L 23.671875 -44.40625 L 23.671875 -36.578125 L 13.03125 -36.578125 L 13.03125 -26.140625 L 22.984375 -26.140625 L 22.984375 -18.59375 L 13.03125 -18.59375 Z M 23.328125 -54.90625 L 14.34375 -47.90625 L 7.546875 -47.90625 L 13.25 -54.90625 Z M 23.328125 -54.90625 "/></g></g></g><g fill="#dcd7c9" fill-opacity="1"><g transform="translate(154.339863, 125.730347)"><g><path d="M 19.96875 -7.28125 L 19.96875 -14.140625 L 29.09375 -14.140625 L 29.09375 -8.375 C 29.09375 -2.332031 26.257812 0.6875 20.59375 0.6875 L 11.9375 0.6875 C 6.269531 0.6875 3.4375 -2.332031 3.4375 -8.375 L 3.4375 -36.03125 C 3.4375 -42.070312 6.269531 -45.09375 11.9375 -45.09375 L 20.59375 -45.09375 C 26.257812 -45.09375 29.09375 -42.070312 29.09375 -36.03125 L 29.09375 -31.84375 L 19.96875 -31.84375 L 19.96875 -37.1875 C 19.96875 -37.5625 19.84375 -37.882812 19.59375 -38.15625 C 19.34375 -38.425781 19.035156 -38.5625 18.671875 -38.5625 L 14.34375 -38.5625 C 13.976562 -38.5625 13.664062 -38.425781 13.40625 -38.15625 C 13.15625 -37.882812 13.03125 -37.5625 13.03125 -37.1875 L 13.03125 -7.28125 C 13.03125 -6.90625 13.15625 -6.582031 13.40625 -6.3125 C 13.664062 -6.039062 13.976562 -5.90625 14.34375 -5.90625 L 18.671875 -5.90625 C 19.035156 -5.90625 19.34375 -6.039062 19.59375 -6.3125 C 19.84375 -6.582031 19.96875 -6.90625 19.96875 -7.28125 Z M 19.96875 -7.28125 "/></g></g></g><g fill="#dcd7c9" fill-opacity="1"><g transform="translate(185.762621, 125.730347)"><g><path d="M 28.890625 0 L 19.28125 0 L 19.28125 -36.859375 C 19.28125 -37.222656 19.15625 -37.539062 18.90625 -37.8125 C 18.65625 -38.082031 18.347656 -38.21875 17.984375 -38.21875 L 14.28125 -38.21875 C 13.90625 -38.21875 13.59375 -38.082031 13.34375 -37.8125 C 13.09375 -37.539062 12.96875 -37.222656 12.96875 -36.859375 L 12.96875 0 L 3.359375 0 L 3.359375 -36.03125 C 3.359375 -42.070312 6.195312 -45.09375 11.875 -45.09375 L 20.375 -45.09375 C 26.050781 -45.09375 28.890625 -42.070312 28.890625 -36.03125 Z M 28.890625 0 "/></g></g></g><g fill="#dcd7c9" fill-opacity="1"><g transform="translate(217.66563, 125.730347)"><g><path d="M 13.03125 -44.40625 L 13.03125 0 L 3.4375 0 L 3.4375 -44.40625 Z M 13.03125 -44.40625 "/></g></g></g><g fill="#dcd7c9" fill-opacity="1"><g transform="translate(234.406138, 125.730347)"><g><path d="M 19.96875 -7.28125 L 19.96875 -14.140625 L 29.09375 -14.140625 L 29.09375 -8.375 C 29.09375 -2.332031 26.257812 0.6875 20.59375 0.6875 L 11.9375 0.6875 C 6.269531 0.6875 3.4375 -2.332031 3.4375 -8.375 L 3.4375 -36.03125 C 3.4375 -42.070312 6.269531 -45.09375 11.9375 -45.09375 L 20.59375 -45.09375 C 26.257812 -45.09375 29.09375 -42.070312 29.09375 -36.03125 L 29.09375 -31.84375 L 19.96875 -31.84375 L 19.96875 -37.1875 C 19.96875 -37.5625 19.84375 -37.882812 19.59375 -38.15625 C 19.34375 -38.425781 19.035156 -38.5625 18.671875 -38.5625 L 14.34375 -38.5625 C 13.976562 -38.5625 13.664062 -38.425781 13.40625 -38.15625 C 13.15625 -37.882812 13.03125 -37.5625 13.03125 -37.1875 L 13.03125 -7.28125 C 13.03125 -6.90625 13.15625 -6.582031 13.40625 -6.3125 C 13.664062 -6.039062 13.976562 -5.90625 14.34375 -5.90625 L 18.671875 -5.90625 C 19.035156 -5.90625 19.34375 -6.039062 19.59375 -6.3125 C 19.84375 -6.582031 19.96875 -6.90625 19.96875 -7.28125 Z M 19.96875 -7.28125 "/></g></g></g><g fill="#dcd7c9" fill-opacity="1"><g transform="translate(265.828897, 125.730347)"><g><path d="M 21.0625 -45.09375 C 26.738281 -45.09375 29.578125 -42.070312 29.578125 -36.03125 L 29.578125 0 L 19.96875 0 L 19.96875 -14.890625 L 13.03125 -14.890625 L 13.03125 0 L 3.4375 0 L 3.4375 -36.03125 C 3.4375 -42.070312 6.269531 -45.09375 11.9375 -45.09375 Z M 13.03125 -22.296875 L 19.96875 -22.296875 L 19.96875 -37.1875 C 19.96875 -37.5625 19.84375 -37.882812 19.59375 -38.15625 C 19.34375 -38.425781 19.035156 -38.5625 18.671875 -38.5625 L 14.34375 -38.5625 C 13.976562 -38.5625 13.664062 -38.425781 13.40625 -38.15625 C 13.15625 -37.882812 13.03125 -37.5625 13.03125 -37.1875 Z M 13.03125 -22.296875 "/></g></g></g><g fill="#dcd7c9" fill-opacity="1"><g transform="translate(299.104087, 125.730347)"><g><path d="M 28.0625 -32.734375 L 18.9375 -32.734375 L 18.9375 -36.234375 C 18.9375 -36.597656 18.8125 -36.914062 18.5625 -37.1875 C 18.3125 -37.46875 18.003906 -37.609375 17.640625 -37.609375 L 13.859375 -37.609375 C 13.492188 -37.609375 13.1875 -37.46875 12.9375 -37.1875 C 12.6875 -36.914062 12.5625 -36.597656 12.5625 -36.234375 L 12.5625 -28.34375 C 12.5625 -27.976562 12.6875 -27.65625 12.9375 -27.375 C 13.1875 -27.101562 13.492188 -26.96875 13.859375 -26.96875 L 20.03125 -26.96875 C 25.707031 -26.875 28.546875 -23.851562 28.546875 -17.90625 L 28.546875 -8.375 C 28.546875 -2.332031 25.707031 0.6875 20.03125 0.6875 L 11.9375 0.6875 C 6.269531 0.6875 3.4375 -2.332031 3.4375 -8.375 L 3.4375 -12.96875 L 12.5625 -12.96875 L 12.5625 -8.03125 C 12.5625 -7.664062 12.6875 -7.34375 12.9375 -7.0625 C 13.1875 -6.789062 13.492188 -6.65625 13.859375 -6.65625 L 18.109375 -6.65625 C 18.484375 -6.65625 18.796875 -6.789062 19.046875 -7.0625 C 19.296875 -7.34375 19.421875 -7.664062 19.421875 -8.03125 L 19.421875 -16.75 C 19.421875 -17.113281 19.296875 -17.429688 19.046875 -17.703125 C 18.796875 -17.972656 18.484375 -18.109375 18.109375 -18.109375 L 11.9375 -18.109375 C 6.269531 -18.109375 3.4375 -21.128906 3.4375 -27.171875 L 3.4375 -36.03125 C 3.4375 -42.070312 6.269531 -45.09375 11.9375 -45.09375 L 19.5625 -45.09375 C 25.226562 -45.09375 28.0625 -42.070312 28.0625 -36.03125 Z M 28.0625 -32.734375 "/></g></g></g><g fill="#dcd7c9" fill-opacity="1"><g transform="translate(330.526846, 125.730347)"><g/></g></g><g fill="#dcd7c9" fill-opacity="1"><g transform="translate(344.385794, 125.730347)"><g><path d="M 20.71875 -44.40625 C 26.394531 -44.40625 29.234375 -41.382812 29.234375 -35.34375 L 29.234375 -26.484375 C 29.234375 -20.453125 26.394531 -17.4375 20.71875 -17.4375 L 12.96875 -17.4375 L 12.96875 0 L 3.359375 0 L 3.359375 -44.40625 Z M 19.625 -25.390625 L 19.625 -36.4375 C 19.625 -36.800781 19.5 -37.117188 19.25 -37.390625 C 19 -37.671875 18.691406 -37.8125 18.328125 -37.8125 L 12.96875 -37.8125 L 12.96875 -24.015625 L 18.328125 -24.015625 C 18.691406 -24.015625 19 -24.148438 19.25 -24.421875 C 19.5 -24.703125 19.625 -25.023438 19.625 -25.390625 Z M 19.625 -25.390625 "/></g></g></g><g fill="#dcd7c9" fill-opacity="1"><g transform="translate(374.985251, 125.730347)"><g><path d="M 21.0625 -45.09375 C 26.738281 -45.09375 29.578125 -42.070312 29.578125 -36.03125 L 29.578125 0 L 19.96875 0 L 19.96875 -14.890625 L 13.03125 -14.890625 L 13.03125 0 L 3.4375 0 L 3.4375 -36.03125 C 3.4375 -42.070312 6.269531 -45.09375 11.9375 -45.09375 Z M 13.03125 -22.296875 L 19.96875 -22.296875 L 19.96875 -37.1875 C 19.96875 -37.5625 19.84375 -37.882812 19.59375 -38.15625 C 19.34375 -38.425781 19.035156 -38.5625 18.671875 -38.5625 L 14.34375 -38.5625 C 13.976562 -38.5625 13.664062 -38.425781 13.40625 -38.15625 C 13.15625 -37.882812 13.03125 -37.5625 13.03125 -37.1875 Z M 13.03125 -22.296875 "/></g></g></g><g fill="#dcd7c9" fill-opacity="1"><g transform="translate(408.260441, 125.730347)"><g><path d="M 13.03125 -18.1875 L 13.03125 0 L 3.4375 0 L 3.4375 -44.40625 L 20.515625 -44.40625 C 26.191406 -44.40625 29.03125 -41.382812 29.03125 -35.34375 L 29.03125 -30.1875 C 29.03125 -26.53125 27.722656 -24.195312 25.109375 -23.1875 C 27.398438 -22.363281 28.546875 -20.488281 28.546875 -17.5625 L 28.546875 0 L 18.9375 0 L 18.9375 -16.8125 C 18.9375 -17.726562 18.503906 -18.1875 17.640625 -18.1875 Z M 13.03125 -37.875 L 13.03125 -24.90625 L 18.109375 -24.90625 C 18.484375 -24.90625 18.796875 -25.039062 19.046875 -25.3125 C 19.296875 -25.59375 19.421875 -25.914062 19.421875 -26.28125 L 19.421875 -36.515625 C 19.421875 -36.878906 19.296875 -37.195312 19.046875 -37.46875 C 18.796875 -37.738281 18.484375 -37.875 18.109375 -37.875 Z M 13.03125 -37.875 "/></g></g></g><g fill="#dcd7c9" fill-opacity="1"><g transform="translate(440.026222, 125.730347)"><g><path d="M 21.0625 -45.09375 C 26.738281 -45.09375 29.578125 -42.070312 29.578125 -36.03125 L 29.578125 0 L 19.96875 0 L 19.96875 -14.890625 L 13.03125 -14.890625 L 13.03125 0 L 3.4375 0 L 3.4375 -36.03125 C 3.4375 -42.070312 6.269531 -45.09375 11.9375 -45.09375 Z M 13.03125 -22.296875 L 19.96875 -22.296875 L 19.96875 -37.1875 C 19.96875 -37.5625 19.84375 -37.882812 19.59375 -38.15625 C 19.34375 -38.425781 19.035156 -38.5625 18.671875 -38.5625 L 14.34375 -38.5625 C 13.976562 -38.5625 13.664062 -38.425781 13.40625 -38.15625 C 13.15625 -37.882812 13.03125 -37.5625 13.03125 -37.1875 Z M 13.03125 -22.296875 "/></g></g></g><g fill="#dcd7c9" fill-opacity="1"><g transform="translate(178.018464, 171.994127)"><g><path d="M 15.875 -33.96875 C 20.144531 -33.96875 22.28125 -31.691406 22.28125 -27.140625 L 22.28125 0 L 15.046875 0 L 15.046875 -11.21875 L 9.828125 -11.21875 L 9.828125 0 L 2.578125 0 L 2.578125 -27.140625 C 2.578125 -31.691406 4.71875 -33.96875 9 -33.96875 Z M 9.828125 -16.796875 L 15.046875 -16.796875 L 15.046875 -28.015625 C 15.046875 -28.296875 14.953125 -28.539062 14.765625 -28.75 C 14.578125 -28.957031 14.34375 -29.0625 14.0625 -29.0625 L 10.8125 -29.0625 C 10.53125 -29.0625 10.296875 -28.957031 10.109375 -28.75 C 9.921875 -28.539062 9.828125 -28.296875 9.828125 -28.015625 Z M 9.828125 -16.796875 "/></g></g></g><g fill="#dcd7c9" fill-opacity="1"><g transform="translate(203.08936, 171.994127)"><g><path d="M 15.609375 -33.453125 C 19.890625 -33.453125 22.03125 -31.175781 22.03125 -26.625 L 22.03125 -19.953125 C 22.03125 -15.398438 19.890625 -13.125 15.609375 -13.125 L 9.765625 -13.125 L 9.765625 0 L 2.53125 0 L 2.53125 -33.453125 Z M 14.78125 -19.125 L 14.78125 -27.453125 C 14.78125 -27.734375 14.6875 -27.972656 14.5 -28.171875 C 14.3125 -28.378906 14.082031 -28.484375 13.8125 -28.484375 L 9.765625 -28.484375 L 9.765625 -18.09375 L 13.8125 -18.09375 C 14.082031 -18.09375 14.3125 -18.195312 14.5 -18.40625 C 14.6875 -18.613281 14.78125 -18.851562 14.78125 -19.125 Z M 14.78125 -19.125 "/></g></g></g><g fill="#dcd7c9" fill-opacity="1"><g transform="translate(226.144248, 171.994127)"><g><path d="M 9.828125 -13.703125 L 9.828125 0 L 2.578125 0 L 2.578125 -33.453125 L 15.453125 -33.453125 C 19.734375 -33.453125 21.875 -31.175781 21.875 -26.625 L 21.875 -22.75 C 21.875 -19.988281 20.890625 -18.226562 18.921875 -17.46875 C 20.648438 -16.851562 21.515625 -15.441406 21.515625 -13.234375 L 21.515625 0 L 14.265625 0 L 14.265625 -12.671875 C 14.265625 -13.359375 13.9375 -13.703125 13.28125 -13.703125 Z M 9.828125 -28.546875 L 9.828125 -18.765625 L 13.65625 -18.765625 C 13.925781 -18.765625 14.15625 -18.867188 14.34375 -19.078125 C 14.53125 -19.285156 14.625 -19.523438 14.625 -19.796875 L 14.625 -27.5 C 14.625 -27.78125 14.53125 -28.023438 14.34375 -28.234375 C 14.15625 -28.441406 13.925781 -28.546875 13.65625 -28.546875 Z M 9.828125 -28.546875 "/></g></g></g><g fill="#dcd7c9" fill-opacity="1"><g transform="translate(250.077909, 171.994127)"><g><path d="M 22.28125 -27.140625 L 22.28125 -6.3125 C 22.28125 -1.757812 20.144531 0.515625 15.875 0.515625 L 9 0.515625 C 4.71875 0.515625 2.578125 -1.757812 2.578125 -6.3125 L 2.578125 -27.140625 C 2.578125 -31.691406 4.71875 -33.96875 9 -33.96875 L 15.875 -33.96875 C 20.144531 -33.96875 22.28125 -31.691406 22.28125 -27.140625 Z M 15.046875 -5.484375 L 15.046875 -28.015625 C 15.046875 -28.296875 14.953125 -28.539062 14.765625 -28.75 C 14.578125 -28.957031 14.34375 -29.0625 14.0625 -29.0625 L 10.8125 -29.0625 C 10.53125 -29.0625 10.296875 -28.957031 10.109375 -28.75 C 9.921875 -28.539062 9.828125 -28.296875 9.828125 -28.015625 L 9.828125 -5.484375 C 9.828125 -5.203125 9.921875 -4.957031 10.109375 -4.75 C 10.296875 -4.550781 10.53125 -4.453125 10.8125 -4.453125 L 14.0625 -4.453125 C 14.34375 -4.453125 14.578125 -4.550781 14.765625 -4.75 C 14.953125 -4.957031 15.046875 -5.203125 15.046875 -5.484375 Z M 15.046875 -5.484375 "/></g></g></g><g fill="#dcd7c9" fill-opacity="1"><g transform="translate(275.097113, 171.994127)"><g><path d="M 16.078125 -33.453125 L 23.0625 -33.453125 L 16.125 0 L 7.8125 0 L 0.875 -33.453125 L 7.90625 -33.453125 L 12 -9.046875 Z M 16.078125 -33.453125 "/></g></g></g><g fill="#dcd7c9" fill-opacity="1"><g transform="translate(299.134155, 171.994127)"><g><path d="M 15.875 -33.96875 C 20.144531 -33.96875 22.28125 -31.691406 22.28125 -27.140625 L 22.28125 0 L 15.046875 0 L 15.046875 -11.21875 L 9.828125 -11.21875 L 9.828125 0 L 2.578125 0 L 2.578125 -27.140625 C 2.578125 -31.691406 4.71875 -33.96875 9 -33.96875 Z M 9.828125 -16.796875 L 15.046875 -16.796875 L 15.046875 -28.015625 C 15.046875 -28.296875 14.953125 -28.539062 14.765625 -28.75 C 14.578125 -28.957031 14.34375 -29.0625 14.0625 -29.0625 L 10.8125 -29.0625 C 10.53125 -29.0625 10.296875 -28.957031 10.109375 -28.75 C 9.921875 -28.539062 9.828125 -28.296875 9.828125 -28.015625 Z M 9.828125 -16.796875 "/></g></g></g><g fill="#dcd7c9" fill-opacity="1"><g transform="translate(324.205051, 171.994127)"><g><path d="M 5.28125 5.484375 L 10.03125 0.515625 L 9 0.515625 C 4.71875 0.515625 2.578125 -1.757812 2.578125 -6.3125 L 2.578125 -27.140625 C 2.578125 -31.691406 4.71875 -33.96875 9 -33.96875 L 15.515625 -33.96875 C 19.785156 -33.96875 21.921875 -31.691406 21.921875 -27.140625 L 21.921875 -23.984375 L 15.046875 -23.984375 L 15.046875 -28.015625 C 15.046875 -28.296875 14.953125 -28.539062 14.765625 -28.75 C 14.578125 -28.957031 14.34375 -29.0625 14.0625 -29.0625 L 10.8125 -29.0625 C 10.53125 -29.0625 10.296875 -28.957031 10.109375 -28.75 C 9.921875 -28.539062 9.828125 -28.296875 9.828125 -28.015625 L 9.828125 -5.484375 C 9.828125 -5.203125 9.921875 -4.957031 10.109375 -4.75 C 10.296875 -4.550781 10.53125 -4.453125 10.8125 -4.453125 L 14.0625 -4.453125 C 14.34375 -4.453125 14.578125 -4.550781 14.765625 -4.75 C 14.953125 -4.957031 15.046875 -5.203125 15.046875 -5.484375 L 15.046875 -10.65625 L 21.921875 -10.65625 L 21.921875 -6.3125 C 21.921875 -1.757812 19.785156 0.515625 15.515625 0.515625 L 15.296875 0.515625 L 12.875 5.484375 Z M 5.28125 5.484375 "/></g></g></g><g fill="#dcd7c9" fill-opacity="1"><g transform="translate(347.880248, 171.994127)"><g><path d="M 15.875 -33.96875 C 20.144531 -33.96875 22.28125 -31.691406 22.28125 -27.140625 L 22.28125 0 L 15.046875 0 L 15.046875 -11.21875 L 9.828125 -11.21875 L 9.828125 0 L 2.578125 0 L 2.578125 -27.140625 C 2.578125 -31.691406 4.71875 -33.96875 9 -33.96875 Z M 9.828125 -16.796875 L 15.046875 -16.796875 L 15.046875 -28.015625 C 15.046875 -28.296875 14.953125 -28.539062 14.765625 -28.75 C 14.578125 -28.957031 14.34375 -29.0625 14.0625 -29.0625 L 10.8125 -29.0625 C 10.53125 -29.0625 10.296875 -28.957031 10.109375 -28.75 C 9.921875 -28.539062 9.828125 -28.296875 9.828125 -28.015625 Z M 15.09375 -35.578125 C 14.164062 -35.679688 13.070312 -35.972656 11.8125 -36.453125 C 10.550781 -36.929688 9.59375 -37.207031 8.9375 -37.28125 C 7.53125 -37.28125 6.394531 -36.742188 5.53125 -35.671875 L 4.140625 -35.78125 L 4.1875 -36.25 C 4.320312 -37.9375 4.890625 -39.207031 5.890625 -40.0625 C 6.890625 -40.925781 8.019531 -41.359375 9.28125 -41.359375 C 10.539062 -41.359375 11.875 -41.082031 13.28125 -40.53125 C 14.695312 -39.976562 15.867188 -39.703125 16.796875 -39.703125 C 17.734375 -39.703125 18.648438 -40.222656 19.546875 -41.265625 L 20.9375 -41.15625 L 20.890625 -40.6875 C 20.753906 -39.03125 20.175781 -37.765625 19.15625 -36.890625 C 18.132812 -36.015625 16.9375 -35.578125 15.5625 -35.578125 Z M 15.09375 -35.578125 "/></g></g></g><g fill="#dcd7c9" fill-opacity="1"><g transform="translate(372.951154, 171.994127)"><g><path d="M 22.28125 -27.140625 L 22.28125 -6.3125 C 22.28125 -1.757812 20.144531 0.515625 15.875 0.515625 L 9 0.515625 C 4.71875 0.515625 2.578125 -1.757812 2.578125 -6.3125 L 2.578125 -27.140625 C 2.578125 -31.691406 4.71875 -33.96875 9 -33.96875 L 15.875 -33.96875 C 20.144531 -33.96875 22.28125 -31.691406 22.28125 -27.140625 Z M 15.046875 -5.484375 L 15.046875 -28.015625 C 15.046875 -28.296875 14.953125 -28.539062 14.765625 -28.75 C 14.578125 -28.957031 14.34375 -29.0625 14.0625 -29.0625 L 10.8125 -29.0625 C 10.53125 -29.0625 10.296875 -28.957031 10.109375 -28.75 C 9.921875 -28.539062 9.828125 -28.296875 9.828125 -28.015625 L 9.828125 -5.484375 C 9.828125 -5.203125 9.921875 -4.957031 10.109375 -4.75 C 10.296875 -4.550781 10.53125 -4.453125 10.8125 -4.453125 L 14.0625 -4.453125 C 14.34375 -4.453125 14.578125 -4.550781 14.765625 -4.75 C 14.953125 -4.957031 15.046875 -5.203125 15.046875 -5.484375 Z M 15.046875 -5.484375 "/></g></g></g><g fill="#dcd7c9" fill-opacity="1"><g transform="translate(102.733042, 211.687143)"><g><path d="M 10.03125 0 L 1.96875 0 L 1.96875 -14.453125 L 10.03125 -14.453125 L 10.03125 -12.84375 L 3.78125 -12.84375 L 3.78125 -8.34375 L 9.671875 -8.34375 L 9.671875 -6.765625 L 3.78125 -6.765625 L 3.78125 -1.59375 L 10.03125 -1.59375 Z M 10.03125 0 "/></g></g></g><g fill="#dcd7c9" fill-opacity="1"><g transform="translate(120.565388, 211.687143)"><g><path d="M 8.34375 0 L 3.578125 -12.671875 L 3.5 -12.671875 C 3.539062 -12.253906 3.570312 -11.691406 3.59375 -10.984375 C 3.625 -10.273438 3.640625 -9.535156 3.640625 -8.765625 L 3.640625 0 L 1.96875 0 L 1.96875 -14.453125 L 4.65625 -14.453125 L 9.109375 -2.609375 L 9.1875 -2.609375 L 13.71875 -14.453125 L 16.390625 -14.453125 L 16.390625 0 L 14.59375 0 L 14.59375 -8.890625 C 14.59375 -9.585938 14.609375 -10.28125 14.640625 -10.96875 C 14.671875 -11.65625 14.703125 -12.210938 14.734375 -12.640625 L 14.65625 -12.640625 L 9.828125 0 Z M 8.34375 0 "/></g></g></g><g fill="#dcd7c9" fill-opacity="1"><g transform="translate(145.501015, 211.687143)"><g/></g></g><g fill="#dcd7c9" fill-opacity="1"><g transform="translate(155.724161, 211.687143)"><g><path d="M 8.15625 -13.046875 C 6.601562 -13.046875 5.378906 -12.523438 4.484375 -11.484375 C 3.597656 -10.453125 3.15625 -9.03125 3.15625 -7.21875 C 3.15625 -5.425781 3.566406 -4.003906 4.390625 -2.953125 C 5.222656 -1.910156 6.472656 -1.390625 8.140625 -1.390625 C 8.753906 -1.390625 9.34375 -1.441406 9.90625 -1.546875 C 10.476562 -1.660156 11.039062 -1.800781 11.59375 -1.96875 L 11.59375 -0.390625 C 11.050781 -0.179688 10.492188 -0.03125 9.921875 0.0625 C 9.347656 0.15625 8.664062 0.203125 7.875 0.203125 C 6.40625 0.203125 5.175781 -0.0976562 4.1875 -0.703125 C 3.207031 -1.316406 2.46875 -2.179688 1.96875 -3.296875 C 1.476562 -4.421875 1.234375 -5.738281 1.234375 -7.25 C 1.234375 -8.695312 1.5 -9.976562 2.03125 -11.09375 C 2.5625 -12.207031 3.347656 -13.078125 4.390625 -13.703125 C 5.429688 -14.335938 6.691406 -14.65625 8.171875 -14.65625 C 9.703125 -14.65625 11.03125 -14.367188 12.15625 -13.796875 L 11.4375 -12.265625 C 10.988281 -12.460938 10.488281 -12.640625 9.9375 -12.796875 C 9.394531 -12.960938 8.800781 -13.046875 8.15625 -13.046875 Z M 8.15625 -13.046875 "/></g></g></g><g fill="#dcd7c9" fill-opacity="1"><g transform="translate(175.094539, 211.687143)"><g><path d="M 14.5625 -7.25 C 14.5625 -5.75 14.304688 -4.441406 13.796875 -3.328125 C 13.296875 -2.210938 12.550781 -1.34375 11.5625 -0.71875 C 10.570312 -0.101562 9.351562 0.203125 7.90625 0.203125 C 6.414062 0.203125 5.171875 -0.101562 4.171875 -0.71875 C 3.179688 -1.34375 2.441406 -2.210938 1.953125 -3.328125 C 1.472656 -4.453125 1.234375 -5.765625 1.234375 -7.265625 C 1.234375 -8.734375 1.472656 -10.023438 1.953125 -11.140625 C 2.441406 -12.253906 3.179688 -13.117188 4.171875 -13.734375 C 5.171875 -14.359375 6.425781 -14.671875 7.9375 -14.671875 C 9.375 -14.671875 10.582031 -14.363281 11.5625 -13.75 C 12.550781 -13.132812 13.296875 -12.269531 13.796875 -11.15625 C 14.304688 -10.039062 14.5625 -8.738281 14.5625 -7.25 Z M 3.15625 -7.25 C 3.15625 -5.425781 3.539062 -3.988281 4.3125 -2.9375 C 5.082031 -1.894531 6.28125 -1.375 7.90625 -1.375 C 9.539062 -1.375 10.738281 -1.894531 11.5 -2.9375 C 12.257812 -3.988281 12.640625 -5.425781 12.640625 -7.25 C 12.640625 -9.0625 12.257812 -10.484375 11.5 -11.515625 C 10.75 -12.554688 9.5625 -13.078125 7.9375 -13.078125 C 6.289062 -13.078125 5.082031 -12.554688 4.3125 -11.515625 C 3.539062 -10.484375 3.15625 -9.0625 3.15625 -7.25 Z M 3.15625 -7.25 "/></g></g></g><g fill="#dcd7c9" fill-opacity="1"><g transform="translate(197.480282, 211.687143)"><g><path d="M 13.421875 0 L 11.296875 0 L 3.5625 -12 L 3.484375 -12 C 3.503906 -11.53125 3.535156 -10.941406 3.578125 -10.234375 C 3.617188 -9.535156 3.640625 -8.816406 3.640625 -8.078125 L 3.640625 0 L 1.96875 0 L 1.96875 -14.453125 L 4.0625 -14.453125 L 11.78125 -2.484375 L 11.859375 -2.484375 C 11.847656 -2.703125 11.832031 -3.023438 11.8125 -3.453125 C 11.789062 -3.890625 11.769531 -4.359375 11.75 -4.859375 C 11.726562 -5.367188 11.71875 -5.847656 11.71875 -6.296875 L 11.71875 -14.453125 L 13.421875 -14.453125 Z M 13.421875 0 "/></g></g></g><g fill="#dcd7c9" fill-opacity="1"><g transform="translate(219.441033, 211.687143)"><g><path d="M 8.15625 -13.046875 C 6.601562 -13.046875 5.378906 -12.523438 4.484375 -11.484375 C 3.597656 -10.453125 3.15625 -9.03125 3.15625 -7.21875 C 3.15625 -5.425781 3.566406 -4.003906 4.390625 -2.953125 C 5.222656 -1.910156 6.472656 -1.390625 8.140625 -1.390625 C 8.753906 -1.390625 9.34375 -1.441406 9.90625 -1.546875 C 10.476562 -1.660156 11.039062 -1.800781 11.59375 -1.96875 L 11.59375 -0.390625 C 11.050781 -0.179688 10.492188 -0.03125 9.921875 0.0625 C 9.347656 0.15625 8.664062 0.203125 7.875 0.203125 C 6.40625 0.203125 5.175781 -0.0976562 4.1875 -0.703125 C 3.207031 -1.316406 2.46875 -2.179688 1.96875 -3.296875 C 1.476562 -4.421875 1.234375 -5.738281 1.234375 -7.25 C 1.234375 -8.695312 1.5 -9.976562 2.03125 -11.09375 C 2.5625 -12.207031 3.347656 -13.078125 4.390625 -13.703125 C 5.429688 -14.335938 6.691406 -14.65625 8.171875 -14.65625 C 9.703125 -14.65625 11.03125 -14.367188 12.15625 -13.796875 L 11.4375 -12.265625 C 10.988281 -12.460938 10.488281 -12.640625 9.9375 -12.796875 C 9.394531 -12.960938 8.800781 -13.046875 8.15625 -13.046875 Z M 8.15625 -13.046875 "/></g></g></g><g fill="#dcd7c9" fill-opacity="1"><g transform="translate(238.811415, 211.687143)"><g><path d="M 12.953125 -14.453125 L 12.953125 -5.09375 C 12.953125 -4.101562 12.75 -3.203125 12.34375 -2.390625 C 11.9375 -1.585938 11.316406 -0.953125 10.484375 -0.484375 C 9.648438 -0.0234375 8.597656 0.203125 7.328125 0.203125 C 5.515625 0.203125 4.144531 -0.285156 3.21875 -1.265625 C 2.289062 -2.242188 1.828125 -3.535156 1.828125 -5.140625 L 1.828125 -14.453125 L 3.640625 -14.453125 L 3.640625 -5.078125 C 3.640625 -3.898438 3.953125 -2.988281 4.578125 -2.34375 C 5.210938 -1.695312 6.160156 -1.375 7.421875 -1.375 C 8.734375 -1.375 9.679688 -1.71875 10.265625 -2.40625 C 10.859375 -3.101562 11.15625 -4 11.15625 -5.09375 L 11.15625 -14.453125 Z M 12.953125 -14.453125 "/></g></g></g><g fill="#dcd7c9" fill-opacity="1"><g transform="translate(260.185286, 211.687143)"><g><path d="M 5.953125 -14.453125 C 7.742188 -14.453125 9.066406 -14.109375 9.921875 -13.421875 C 10.773438 -12.742188 11.203125 -11.71875 11.203125 -10.34375 C 11.203125 -9.570312 11.0625 -8.929688 10.78125 -8.421875 C 10.5 -7.910156 10.140625 -7.5 9.703125 -7.1875 C 9.265625 -6.875 8.800781 -6.632812 8.3125 -6.46875 L 12.28125 0 L 10.15625 0 L 6.65625 -5.96875 L 3.78125 -5.96875 L 3.78125 0 L 1.96875 0 L 1.96875 -14.453125 Z M 5.84375 -12.875 L 3.78125 -12.875 L 3.78125 -7.5 L 5.953125 -7.5 C 7.117188 -7.5 7.972656 -7.734375 8.515625 -8.203125 C 9.054688 -8.671875 9.328125 -9.359375 9.328125 -10.265625 C 9.328125 -11.203125 9.039062 -11.867188 8.46875 -12.265625 C 7.90625 -12.671875 7.03125 -12.875 5.84375 -12.875 Z M 5.84375 -12.875 "/></g></g></g><g fill="#dcd7c9" fill-opacity="1"><g transform="translate(279.3533, 211.687143)"><g><path d="M 10.15625 -3.859375 C 10.15625 -2.578125 9.6875 -1.578125 8.75 -0.859375 C 7.820312 -0.148438 6.570312 0.203125 5 0.203125 C 4.1875 0.203125 3.4375 0.140625 2.75 0.015625 C 2.0625 -0.0976562 1.488281 -0.265625 1.03125 -0.484375 L 1.03125 -2.21875 C 1.519531 -2.007812 2.125 -1.816406 2.84375 -1.640625 C 3.5625 -1.460938 4.304688 -1.375 5.078125 -1.375 C 6.140625 -1.375 6.945312 -1.582031 7.5 -2 C 8.0625 -2.414062 8.34375 -2.984375 8.34375 -3.703125 C 8.34375 -4.171875 8.238281 -4.566406 8.03125 -4.890625 C 7.832031 -5.210938 7.484375 -5.507812 6.984375 -5.78125 C 6.484375 -6.050781 5.800781 -6.347656 4.9375 -6.671875 C 3.695312 -7.117188 2.765625 -7.664062 2.140625 -8.3125 C 1.523438 -8.957031 1.21875 -9.84375 1.21875 -10.96875 C 1.21875 -11.71875 1.410156 -12.367188 1.796875 -12.921875 C 2.191406 -13.484375 2.734375 -13.910156 3.421875 -14.203125 C 4.109375 -14.503906 4.910156 -14.65625 5.828125 -14.65625 C 6.609375 -14.65625 7.328125 -14.578125 7.984375 -14.421875 C 8.648438 -14.273438 9.257812 -14.082031 9.8125 -13.84375 L 9.25 -12.28125 C 8.75 -12.5 8.203125 -12.679688 7.609375 -12.828125 C 7.015625 -12.972656 6.40625 -13.046875 5.78125 -13.046875 C 4.882812 -13.046875 4.207031 -12.851562 3.75 -12.46875 C 3.289062 -12.082031 3.0625 -11.578125 3.0625 -10.953125 C 3.0625 -10.460938 3.160156 -10.054688 3.359375 -9.734375 C 3.554688 -9.410156 3.882812 -9.113281 4.34375 -8.84375 C 4.800781 -8.582031 5.425781 -8.3125 6.21875 -8.03125 C 7.0625 -7.71875 7.773438 -7.382812 8.359375 -7.03125 C 8.953125 -6.675781 9.398438 -6.25 9.703125 -5.75 C 10.003906 -5.25 10.15625 -4.617188 10.15625 -3.859375 Z M 10.15625 -3.859375 "/></g></g></g><g fill="#dcd7c9" fill-opacity="1"><g transform="translate(297.044002, 211.687143)"><g><path d="M 14.5625 -7.25 C 14.5625 -5.75 14.304688 -4.441406 13.796875 -3.328125 C 13.296875 -2.210938 12.550781 -1.34375 11.5625 -0.71875 C 10.570312 -0.101562 9.351562 0.203125 7.90625 0.203125 C 6.414062 0.203125 5.171875 -0.101562 4.171875 -0.71875 C 3.179688 -1.34375 2.441406 -2.210938 1.953125 -3.328125 C 1.472656 -4.453125 1.234375 -5.765625 1.234375 -7.265625 C 1.234375 -8.734375 1.472656 -10.023438 1.953125 -11.140625 C 2.441406 -12.253906 3.179688 -13.117188 4.171875 -13.734375 C 5.171875 -14.359375 6.425781 -14.671875 7.9375 -14.671875 C 9.375 -14.671875 10.582031 -14.363281 11.5625 -13.75 C 12.550781 -13.132812 13.296875 -12.269531 13.796875 -11.15625 C 14.304688 -10.039062 14.5625 -8.738281 14.5625 -7.25 Z M 3.15625 -7.25 C 3.15625 -5.425781 3.539062 -3.988281 4.3125 -2.9375 C 5.082031 -1.894531 6.28125 -1.375 7.90625 -1.375 C 9.539062 -1.375 10.738281 -1.894531 11.5 -2.9375 C 12.257812 -3.988281 12.640625 -5.425781 12.640625 -7.25 C 12.640625 -9.0625 12.257812 -10.484375 11.5 -11.515625 C 10.75 -12.554688 9.5625 -13.078125 7.9375 -13.078125 C 6.289062 -13.078125 5.082031 -12.554688 4.3125 -11.515625 C 3.539062 -10.484375 3.15625 -9.0625 3.15625 -7.25 Z M 3.15625 -7.25 "/></g></g></g><g fill="#dcd7c9" fill-opacity="1"><g transform="translate(319.429746, 211.687143)"><g><path d="M 10.15625 -3.859375 C 10.15625 -2.578125 9.6875 -1.578125 8.75 -0.859375 C 7.820312 -0.148438 6.570312 0.203125 5 0.203125 C 4.1875 0.203125 3.4375 0.140625 2.75 0.015625 C 2.0625 -0.0976562 1.488281 -0.265625 1.03125 -0.484375 L 1.03125 -2.21875 C 1.519531 -2.007812 2.125 -1.816406 2.84375 -1.640625 C 3.5625 -1.460938 4.304688 -1.375 5.078125 -1.375 C 6.140625 -1.375 6.945312 -1.582031 7.5 -2 C 8.0625 -2.414062 8.34375 -2.984375 8.34375 -3.703125 C 8.34375 -4.171875 8.238281 -4.566406 8.03125 -4.890625 C 7.832031 -5.210938 7.484375 -5.507812 6.984375 -5.78125 C 6.484375 -6.050781 5.800781 -6.347656 4.9375 -6.671875 C 3.695312 -7.117188 2.765625 -7.664062 2.140625 -8.3125 C 1.523438 -8.957031 1.21875 -9.84375 1.21875 -10.96875 C 1.21875 -11.71875 1.410156 -12.367188 1.796875 -12.921875 C 2.191406 -13.484375 2.734375 -13.910156 3.421875 -14.203125 C 4.109375 -14.503906 4.910156 -14.65625 5.828125 -14.65625 C 6.609375 -14.65625 7.328125 -14.578125 7.984375 -14.421875 C 8.648438 -14.273438 9.257812 -14.082031 9.8125 -13.84375 L 9.25 -12.28125 C 8.75 -12.5 8.203125 -12.679688 7.609375 -12.828125 C 7.015625 -12.972656 6.40625 -13.046875 5.78125 -13.046875 C 4.882812 -13.046875 4.207031 -12.851562 3.75 -12.46875 C 3.289062 -12.082031 3.0625 -11.578125 3.0625 -10.953125 C 3.0625 -10.460938 3.160156 -10.054688 3.359375 -9.734375 C 3.554688 -9.410156 3.882812 -9.113281 4.34375 -8.84375 C 4.800781 -8.582031 5.425781 -8.3125 6.21875 -8.03125 C 7.0625 -7.71875 7.773438 -7.382812 8.359375 -7.03125 C 8.953125 -6.675781 9.398438 -6.25 9.703125 -5.75 C 10.003906 -5.25 10.15625 -4.617188 10.15625 -3.859375 Z M 10.15625 -3.859375 "/></g></g></g><g fill="#dcd7c9" fill-opacity="1"><g transform="translate(337.120449, 211.687143)"><g/></g></g><g fill="#dcd7c9" fill-opacity="1"><g transform="translate(347.343602, 211.687143)"><g><path d="M 3.78125 0 L 1.96875 0 L 1.96875 -14.453125 L 10.03125 -14.453125 L 10.03125 -12.84375 L 3.78125 -12.84375 L 3.78125 -7.734375 L 9.65625 -7.734375 L 9.65625 -6.125 L 3.78125 -6.125 Z M 3.78125 0 "/></g></g></g><g fill="#dcd7c9" fill-opacity="1"><g transform="translate(364.427185, 211.687143)"><g><path d="M 10.03125 0 L 1.96875 0 L 1.96875 -14.453125 L 10.03125 -14.453125 L 10.03125 -12.84375 L 3.78125 -12.84375 L 3.78125 -8.34375 L 9.671875 -8.34375 L 9.671875 -6.765625 L 3.78125 -6.765625 L 3.78125 -1.59375 L 10.03125 -1.59375 Z M 10.03125 0 "/></g></g></g><g fill="#dcd7c9" fill-opacity="1"><g transform="translate(382.259519, 211.687143)"><g><path d="M 13.53125 -7.359375 C 13.53125 -4.921875 12.863281 -3.082031 11.53125 -1.84375 C 10.207031 -0.613281 8.359375 0 5.984375 0 L 1.96875 0 L 1.96875 -14.453125 L 6.421875 -14.453125 C 7.859375 -14.453125 9.113281 -14.179688 10.1875 -13.640625 C 11.257812 -13.097656 12.082031 -12.300781 12.65625 -11.25 C 13.238281 -10.195312 13.53125 -8.898438 13.53125 -7.359375 Z M 11.609375 -7.296875 C 11.609375 -9.234375 11.132812 -10.648438 10.1875 -11.546875 C 9.238281 -12.441406 7.894531 -12.890625 6.15625 -12.890625 L 3.78125 -12.890625 L 3.78125 -1.5625 L 5.75 -1.5625 C 9.65625 -1.5625 11.609375 -3.472656 11.609375 -7.296875 Z M 11.609375 -7.296875 "/></g></g></g><g fill="#dcd7c9" fill-opacity="1"><g transform="translate(403.613165, 211.687143)"><g><path d="M 10.03125 0 L 1.96875 0 L 1.96875 -14.453125 L 10.03125 -14.453125 L 10.03125 -12.84375 L 3.78125 -12.84375 L 3.78125 -8.34375 L 9.671875 -8.34375 L 9.671875 -6.765625 L 3.78125 -6.765625 L 3.78125 -1.59375 L 10.03125 -1.59375 Z M 10.03125 0 "/></g></g></g><g fill="#dcd7c9" fill-opacity="1"><g transform="translate(421.445499, 211.687143)"><g><path d="M 5.953125 -14.453125 C 7.742188 -14.453125 9.066406 -14.109375 9.921875 -13.421875 C 10.773438 -12.742188 11.203125 -11.71875 11.203125 -10.34375 C 11.203125 -9.570312 11.0625 -8.929688 10.78125 -8.421875 C 10.5 -7.910156 10.140625 -7.5 9.703125 -7.1875 C 9.265625 -6.875 8.800781 -6.632812 8.3125 -6.46875 L 12.28125 0 L 10.15625 0 L 6.65625 -5.96875 L 3.78125 -5.96875 L 3.78125 0 L 1.96875 0 L 1.96875 -14.453125 Z M 5.84375 -12.875 L 3.78125 -12.875 L 3.78125 -7.5 L 5.953125 -7.5 C 7.117188 -7.5 7.972656 -7.734375 8.515625 -8.203125 C 9.054688 -8.671875 9.328125 -9.359375 9.328125 -10.265625 C 9.328125 -11.203125 9.039062 -11.867188 8.46875 -12.265625 C 7.90625 -12.671875 7.03125 -12.875 5.84375 -12.875 Z M 5.84375 -12.875 "/></g></g></g><g fill="#dcd7c9" fill-opacity="1"><g transform="translate(440.613513, 211.687143)"><g><path d="M 11.03125 0 L 9.28125 -4.46875 L 3.5625 -4.46875 L 1.84375 0 L 0 0 L 5.640625 -14.515625 L 7.28125 -14.515625 L 12.90625 0 Z M 8.734375 -6.09375 L 7.125 -10.46875 C 7.082031 -10.570312 7.015625 -10.765625 6.921875 -11.046875 C 6.828125 -11.328125 6.734375 -11.617188 6.640625 -11.921875 C 6.554688 -12.234375 6.488281 -12.46875 6.4375 -12.625 C 6.320312 -12.207031 6.207031 -11.800781 6.09375 -11.40625 C 5.976562 -11.007812 5.882812 -10.695312 5.8125 -10.46875 L 4.171875 -6.09375 Z M 8.734375 -6.09375 "/></g></g></g><g fill="#dcd7c9" fill-opacity="1"><g transform="translate(460.125544, 211.687143)"><g><path d="M 6.03125 0 L 0.8125 0 L 0.8125 -1.046875 L 2.515625 -1.4375 L 2.515625 -12.984375 L 0.8125 -13.390625 L 0.8125 -14.453125 L 6.03125 -14.453125 L 6.03125 -13.390625 L 4.328125 -12.984375 L 4.328125 -1.4375 L 6.03125 -1.046875 Z M 6.03125 0 "/></g></g></g><g fill="#dcd7c9" fill-opacity="1"><g transform="translate(473.566406, 211.687143)"><g><path d="M 10.15625 -3.859375 C 10.15625 -2.578125 9.6875 -1.578125 8.75 -0.859375 C 7.820312 -0.148438 6.570312 0.203125 5 0.203125 C 4.1875 0.203125 3.4375 0.140625 2.75 0.015625 C 2.0625 -0.0976562 1.488281 -0.265625 1.03125 -0.484375 L 1.03125 -2.21875 C 1.519531 -2.007812 2.125 -1.816406 2.84375 -1.640625 C 3.5625 -1.460938 4.304688 -1.375 5.078125 -1.375 C 6.140625 -1.375 6.945312 -1.582031 7.5 -2 C 8.0625 -2.414062 8.34375 -2.984375 8.34375 -3.703125 C 8.34375 -4.171875 8.238281 -4.566406 8.03125 -4.890625 C 7.832031 -5.210938 7.484375 -5.507812 6.984375 -5.78125 C 6.484375 -6.050781 5.800781 -6.347656 4.9375 -6.671875 C 3.695312 -7.117188 2.765625 -7.664062 2.140625 -8.3125 C 1.523438 -8.957031 1.21875 -9.84375 1.21875 -10.96875 C 1.21875 -11.71875 1.410156 -12.367188 1.796875 -12.921875 C 2.191406 -13.484375 2.734375 -13.910156 3.421875 -14.203125 C 4.109375 -14.503906 4.910156 -14.65625 5.828125 -14.65625 C 6.609375 -14.65625 7.328125 -14.578125 7.984375 -14.421875 C 8.648438 -14.273438 9.257812 -14.082031 9.8125 -13.84375 L 9.25 -12.28125 C 8.75 -12.5 8.203125 -12.679688 7.609375 -12.828125 C 7.015625 -12.972656 6.40625 -13.046875 5.78125 -13.046875 C 4.882812 -13.046875 4.207031 -12.851562 3.75 -12.46875 C 3.289062 -12.082031 3.0625 -11.578125 3.0625 -10.953125 C 3.0625 -10.460938 3.160156 -10.054688 3.359375 -9.734375 C 3.554688 -9.410156 3.882812 -9.113281 4.34375 -8.84375 C 4.800781 -8.582031 5.425781 -8.3125 6.21875 -8.03125 C 7.0625 -7.71875 7.773438 -7.382812 8.359375 -7.03125 C 8.953125 -6.675781 9.398438 -6.25 9.703125 -5.75 C 10.003906 -5.25 10.15625 -4.617188 10.15625 -3.859375 Z M 10.15625 -3.859375 "/></g></g></g><g fill="#dcd7c9" fill-opacity="1"><g transform="translate(186.941959, 231.758061)"><g><path d="M 3.90625 -9.765625 C 5.1875 -9.765625 6.117188 -9.515625 6.703125 -9.015625 C 7.285156 -8.515625 7.578125 -7.804688 7.578125 -6.890625 C 7.578125 -6.347656 7.453125 -5.84375 7.203125 -5.375 C 6.960938 -4.90625 6.554688 -4.523438 5.984375 -4.234375 C 5.421875 -3.941406 4.648438 -3.796875 3.671875 -3.796875 L 2.5625 -3.796875 L 2.5625 0 L 1.328125 0 L 1.328125 -9.765625 Z M 3.796875 -8.703125 L 2.5625 -8.703125 L 2.5625 -4.859375 L 3.546875 -4.859375 C 4.472656 -4.859375 5.160156 -5.003906 5.609375 -5.296875 C 6.066406 -5.597656 6.296875 -6.113281 6.296875 -6.84375 C 6.296875 -7.46875 6.09375 -7.929688 5.6875 -8.234375 C 5.289062 -8.546875 4.660156 -8.703125 3.796875 -8.703125 Z M 3.796875 -8.703125 "/></g></g></g><g fill="#dcd7c9" fill-opacity="1"><g transform="translate(199.65039, 231.758061)"><g><path d="M 4.015625 -9.765625 C 5.234375 -9.765625 6.128906 -9.53125 6.703125 -9.0625 C 7.285156 -8.601562 7.578125 -7.910156 7.578125 -6.984375 C 7.578125 -6.460938 7.476562 -6.03125 7.28125 -5.6875 C 7.09375 -5.34375 6.847656 -5.066406 6.546875 -4.859375 C 6.253906 -4.648438 5.945312 -4.488281 5.625 -4.375 L 8.296875 0 L 6.859375 0 L 4.5 -4.03125 L 2.5625 -4.03125 L 2.5625 0 L 1.328125 0 L 1.328125 -9.765625 Z M 3.953125 -8.703125 L 2.5625 -8.703125 L 2.5625 -5.078125 L 4.015625 -5.078125 C 4.804688 -5.078125 5.382812 -5.234375 5.75 -5.546875 C 6.113281 -5.859375 6.296875 -6.320312 6.296875 -6.9375 C 6.296875 -7.570312 6.101562 -8.023438 5.71875 -8.296875 C 5.34375 -8.566406 4.753906 -8.703125 3.953125 -8.703125 Z M 3.953125 -8.703125 "/></g></g></g><g fill="#dcd7c9" fill-opacity="1"><g transform="translate(212.591078, 231.758061)"><g><path d="M 9.84375 -4.890625 C 9.84375 -3.878906 9.671875 -3 9.328125 -2.25 C 8.984375 -1.5 8.476562 -0.910156 7.8125 -0.484375 C 7.144531 -0.0664062 6.320312 0.140625 5.34375 0.140625 C 4.332031 0.140625 3.488281 -0.0664062 2.8125 -0.484375 C 2.144531 -0.910156 1.644531 -1.5 1.3125 -2.25 C 0.988281 -3.007812 0.828125 -3.894531 0.828125 -4.90625 C 0.828125 -5.90625 0.988281 -6.78125 1.3125 -7.53125 C 1.644531 -8.28125 2.144531 -8.863281 2.8125 -9.28125 C 3.488281 -9.695312 4.335938 -9.90625 5.359375 -9.90625 C 6.335938 -9.90625 7.15625 -9.695312 7.8125 -9.28125 C 8.476562 -8.875 8.984375 -8.289062 9.328125 -7.53125 C 9.671875 -6.78125 9.84375 -5.898438 9.84375 -4.890625 Z M 2.140625 -4.890625 C 2.140625 -3.660156 2.394531 -2.691406 2.90625 -1.984375 C 3.425781 -1.285156 4.238281 -0.9375 5.34375 -0.9375 C 6.445312 -0.9375 7.253906 -1.285156 7.765625 -1.984375 C 8.285156 -2.691406 8.546875 -3.660156 8.546875 -4.890625 C 8.546875 -6.117188 8.289062 -7.082031 7.78125 -7.78125 C 7.269531 -8.476562 6.460938 -8.828125 5.359375 -8.828125 C 4.242188 -8.828125 3.425781 -8.476562 2.90625 -7.78125 C 2.394531 -7.082031 2.140625 -6.117188 2.140625 -4.890625 Z M 2.140625 -4.890625 "/></g></g></g><g fill="#dcd7c9" fill-opacity="1"><g transform="translate(227.704, 231.758061)"><g><path d="M 8.203125 -9.765625 L 4.71875 0 L 3.484375 0 L 0 -9.765625 L 1.28125 -9.765625 L 3.484375 -3.5 C 3.628906 -3.101562 3.75 -2.726562 3.84375 -2.375 C 3.945312 -2.019531 4.035156 -1.6875 4.109375 -1.375 C 4.171875 -1.6875 4.25 -2.019531 4.34375 -2.375 C 4.445312 -2.726562 4.570312 -3.113281 4.71875 -3.53125 L 6.90625 -9.765625 Z M 8.203125 -9.765625 "/></g></g></g><g fill="#dcd7c9" fill-opacity="1"><g transform="translate(240.344127, 231.758061)"><g><path d="M 7.453125 0 L 6.28125 -3.015625 L 2.40625 -3.015625 L 1.25 0 L 0 0 L 3.8125 -9.796875 L 4.921875 -9.796875 L 8.71875 0 Z M 5.90625 -4.109375 L 4.8125 -7.0625 C 4.78125 -7.132812 4.734375 -7.265625 4.671875 -7.453125 C 4.609375 -7.648438 4.546875 -7.851562 4.484375 -8.0625 C 4.429688 -8.269531 4.382812 -8.425781 4.34375 -8.53125 C 4.269531 -8.25 4.191406 -7.972656 4.109375 -7.703125 C 4.035156 -7.429688 3.972656 -7.21875 3.921875 -7.0625 L 2.8125 -4.109375 Z M 5.90625 -4.109375 "/></g></g></g><g fill="#dcd7c9" fill-opacity="1"><g transform="translate(253.517057, 231.758061)"><g/></g></g><g fill="#dcd7c9" fill-opacity="1"><g transform="translate(260.419188, 231.758061)"><g><path d="M 9.140625 -4.984375 C 9.140625 -3.328125 8.691406 -2.082031 7.796875 -1.25 C 6.898438 -0.414062 5.648438 0 4.046875 0 L 1.328125 0 L 1.328125 -9.765625 L 4.328125 -9.765625 C 5.304688 -9.765625 6.15625 -9.582031 6.875 -9.21875 C 7.601562 -8.851562 8.160156 -8.3125 8.546875 -7.59375 C 8.941406 -6.882812 9.140625 -6.015625 9.140625 -4.984375 Z M 7.84375 -4.9375 C 7.84375 -6.238281 7.519531 -7.191406 6.875 -7.796875 C 6.238281 -8.398438 5.332031 -8.703125 4.15625 -8.703125 L 2.5625 -8.703125 L 2.5625 -1.046875 L 3.890625 -1.046875 C 6.523438 -1.046875 7.84375 -2.34375 7.84375 -4.9375 Z M 7.84375 -4.9375 "/></g></g></g><g fill="#dcd7c9" fill-opacity="1"><g transform="translate(274.835356, 231.758061)"><g><path d="M 4.078125 0 L 0.546875 0 L 0.546875 -0.71875 L 1.703125 -0.96875 L 1.703125 -8.78125 L 0.546875 -9.046875 L 0.546875 -9.765625 L 4.078125 -9.765625 L 4.078125 -9.046875 L 2.921875 -8.78125 L 2.921875 -0.96875 L 4.078125 -0.71875 Z M 4.078125 0 "/></g></g></g><g fill="#dcd7c9" fill-opacity="1"><g transform="translate(283.909722, 231.758061)"><g><path d="M 6.859375 -2.609375 C 6.859375 -1.742188 6.546875 -1.066406 5.921875 -0.578125 C 5.296875 -0.0976562 4.445312 0.140625 3.375 0.140625 C 2.832031 0.140625 2.328125 0.0976562 1.859375 0.015625 C 1.390625 -0.0664062 1.003906 -0.179688 0.703125 -0.328125 L 0.703125 -1.5 C 1.023438 -1.351562 1.429688 -1.222656 1.921875 -1.109375 C 2.410156 -0.992188 2.914062 -0.9375 3.4375 -0.9375 C 4.15625 -0.9375 4.703125 -1.078125 5.078125 -1.359375 C 5.453125 -1.640625 5.640625 -2.019531 5.640625 -2.5 C 5.640625 -2.820312 5.566406 -3.09375 5.421875 -3.3125 C 5.285156 -3.53125 5.050781 -3.726562 4.71875 -3.90625 C 4.382812 -4.09375 3.925781 -4.296875 3.34375 -4.515625 C 2.5 -4.816406 1.867188 -5.1875 1.453125 -5.625 C 1.035156 -6.0625 0.828125 -6.65625 0.828125 -7.40625 C 0.828125 -7.914062 0.957031 -8.359375 1.21875 -8.734375 C 1.476562 -9.109375 1.84375 -9.394531 2.3125 -9.59375 C 2.78125 -9.800781 3.320312 -9.90625 3.9375 -9.90625 C 4.46875 -9.90625 4.957031 -9.851562 5.40625 -9.75 C 5.851562 -9.644531 6.257812 -9.515625 6.625 -9.359375 L 6.25 -8.296875 C 5.914062 -8.441406 5.546875 -8.5625 5.140625 -8.65625 C 4.742188 -8.757812 4.332031 -8.8125 3.90625 -8.8125 C 3.300781 -8.8125 2.84375 -8.679688 2.53125 -8.421875 C 2.21875 -8.171875 2.0625 -7.828125 2.0625 -7.390625 C 2.0625 -7.066406 2.128906 -6.796875 2.265625 -6.578125 C 2.398438 -6.359375 2.625 -6.160156 2.9375 -5.984375 C 3.25 -5.804688 3.671875 -5.617188 4.203125 -5.421875 C 4.773438 -5.210938 5.257812 -4.988281 5.65625 -4.75 C 6.050781 -4.507812 6.347656 -4.21875 6.546875 -3.875 C 6.753906 -3.539062 6.859375 -3.117188 6.859375 -2.609375 Z M 6.859375 -2.609375 "/></g></g></g><g fill="#dcd7c9" fill-opacity="1"><g transform="translate(295.85308, 231.758061)"><g><path d="M 6.859375 -2.609375 C 6.859375 -1.742188 6.546875 -1.066406 5.921875 -0.578125 C 5.296875 -0.0976562 4.445312 0.140625 3.375 0.140625 C 2.832031 0.140625 2.328125 0.0976562 1.859375 0.015625 C 1.390625 -0.0664062 1.003906 -0.179688 0.703125 -0.328125 L 0.703125 -1.5 C 1.023438 -1.351562 1.429688 -1.222656 1.921875 -1.109375 C 2.410156 -0.992188 2.914062 -0.9375 3.4375 -0.9375 C 4.15625 -0.9375 4.703125 -1.078125 5.078125 -1.359375 C 5.453125 -1.640625 5.640625 -2.019531 5.640625 -2.5 C 5.640625 -2.820312 5.566406 -3.09375 5.421875 -3.3125 C 5.285156 -3.53125 5.050781 -3.726562 4.71875 -3.90625 C 4.382812 -4.09375 3.925781 -4.296875 3.34375 -4.515625 C 2.5 -4.816406 1.867188 -5.1875 1.453125 -5.625 C 1.035156 -6.0625 0.828125 -6.65625 0.828125 -7.40625 C 0.828125 -7.914062 0.957031 -8.359375 1.21875 -8.734375 C 1.476562 -9.109375 1.84375 -9.394531 2.3125 -9.59375 C 2.78125 -9.800781 3.320312 -9.90625 3.9375 -9.90625 C 4.46875 -9.90625 4.957031 -9.851562 5.40625 -9.75 C 5.851562 -9.644531 6.257812 -9.515625 6.625 -9.359375 L 6.25 -8.296875 C 5.914062 -8.441406 5.546875 -8.5625 5.140625 -8.65625 C 4.742188 -8.757812 4.332031 -8.8125 3.90625 -8.8125 C 3.300781 -8.8125 2.84375 -8.679688 2.53125 -8.421875 C 2.21875 -8.171875 2.0625 -7.828125 2.0625 -7.390625 C 2.0625 -7.066406 2.128906 -6.796875 2.265625 -6.578125 C 2.398438 -6.359375 2.625 -6.160156 2.9375 -5.984375 C 3.25 -5.804688 3.671875 -5.617188 4.203125 -5.421875 C 4.773438 -5.210938 5.257812 -4.988281 5.65625 -4.75 C 6.050781 -4.507812 6.347656 -4.21875 6.546875 -3.875 C 6.753906 -3.539062 6.859375 -3.117188 6.859375 -2.609375 Z M 6.859375 -2.609375 "/></g></g></g><g fill="#dcd7c9" fill-opacity="1"><g transform="translate(307.796438, 231.758061)"><g><path d="M 6.78125 0 L 1.328125 0 L 1.328125 -9.765625 L 6.78125 -9.765625 L 6.78125 -8.6875 L 2.5625 -8.6875 L 2.5625 -5.640625 L 6.53125 -5.640625 L 6.53125 -4.5625 L 2.5625 -4.5625 L 2.5625 -1.078125 L 6.78125 -1.078125 Z M 6.78125 0 "/></g></g></g><g fill="#dcd7c9" fill-opacity="1"><g transform="translate(319.835432, 231.758061)"><g><path d="M 4.015625 -9.765625 C 5.234375 -9.765625 6.128906 -9.53125 6.703125 -9.0625 C 7.285156 -8.601562 7.578125 -7.910156 7.578125 -6.984375 C 7.578125 -6.460938 7.476562 -6.03125 7.28125 -5.6875 C 7.09375 -5.34375 6.847656 -5.066406 6.546875 -4.859375 C 6.253906 -4.648438 5.945312 -4.488281 5.625 -4.375 L 8.296875 0 L 6.859375 0 L 4.5 -4.03125 L 2.5625 -4.03125 L 2.5625 0 L 1.328125 0 L 1.328125 -9.765625 Z M 3.953125 -8.703125 L 2.5625 -8.703125 L 2.5625 -5.078125 L 4.015625 -5.078125 C 4.804688 -5.078125 5.382812 -5.234375 5.75 -5.546875 C 6.113281 -5.859375 6.296875 -6.320312 6.296875 -6.9375 C 6.296875 -7.570312 6.101562 -8.023438 5.71875 -8.296875 C 5.34375 -8.566406 4.753906 -8.703125 3.953125 -8.703125 Z M 3.953125 -8.703125 "/></g></g></g><g fill="#dcd7c9" fill-opacity="1"><g transform="translate(332.776119, 231.758061)"><g><path d="M 4.421875 0 L 3.1875 0 L 3.1875 -8.6875 L 0.140625 -8.6875 L 0.140625 -9.765625 L 7.453125 -9.765625 L 7.453125 -8.6875 L 4.421875 -8.6875 Z M 4.421875 0 "/></g></g></g><g fill="#dcd7c9" fill-opacity="1"><g transform="translate(344.815113, 231.758061)"><g><path d="M 7.453125 0 L 6.28125 -3.015625 L 2.40625 -3.015625 L 1.25 0 L 0 0 L 3.8125 -9.796875 L 4.921875 -9.796875 L 8.71875 0 Z M 5.90625 -4.109375 L 4.8125 -7.0625 C 4.78125 -7.132812 4.734375 -7.265625 4.671875 -7.453125 C 4.609375 -7.648438 4.546875 -7.851562 4.484375 -8.0625 C 4.429688 -8.269531 4.382812 -8.425781 4.34375 -8.53125 C 4.269531 -8.25 4.191406 -7.972656 4.109375 -7.703125 C 4.035156 -7.429688 3.972656 -7.21875 3.921875 -7.0625 L 2.8125 -4.109375 Z M 5.90625 -4.109375 "/></g></g></g><g fill="#dcd7c9" fill-opacity="1"><g transform="translate(357.988043, 231.758061)"><g><path d="M 4.421875 0 L 3.1875 0 L 3.1875 -8.6875 L 0.140625 -8.6875 L 0.140625 -9.765625 L 7.453125 -9.765625 L 7.453125 -8.6875 L 4.421875 -8.6875 Z M 4.421875 0 "/></g></g></g><g fill="#dcd7c9" fill-opacity="1"><g transform="translate(370.027037, 231.758061)"><g><path d="M 4.078125 0 L 0.546875 0 L 0.546875 -0.71875 L 1.703125 -0.96875 L 1.703125 -8.78125 L 0.546875 -9.046875 L 0.546875 -9.765625 L 4.078125 -9.765625 L 4.078125 -9.046875 L 2.921875 -8.78125 L 2.921875 -0.96875 L 4.078125 -0.71875 Z M 4.078125 0 "/></g></g></g><g fill="#dcd7c9" fill-opacity="1"><g transform="translate(379.101404, 231.758061)"><g><path d="M 8.203125 -9.765625 L 4.71875 0 L 3.484375 0 L 0 -9.765625 L 1.28125 -9.765625 L 3.484375 -3.5 C 3.628906 -3.101562 3.75 -2.726562 3.84375 -2.375 C 3.945312 -2.019531 4.035156 -1.6875 4.109375 -1.375 C 4.171875 -1.6875 4.25 -2.019531 4.34375 -2.375 C 4.445312 -2.726562 4.570312 -3.113281 4.71875 -3.53125 L 6.90625 -9.765625 Z M 8.203125 -9.765625 "/></g></g></g><g fill="#dcd7c9" fill-opacity="1"><g transform="translate(391.741531, 231.758061)"><g><path d="M 7.453125 0 L 6.28125 -3.015625 L 2.40625 -3.015625 L 1.25 0 L 0 0 L 3.8125 -9.796875 L 4.921875 -9.796875 L 8.71875 0 Z M 5.90625 -4.109375 L 4.8125 -7.0625 C 4.78125 -7.132812 4.734375 -7.265625 4.671875 -7.453125 C 4.609375 -7.648438 4.546875 -7.851562 4.484375 -8.0625 C 4.429688 -8.269531 4.382812 -8.425781 4.34375 -8.53125 C 4.269531 -8.25 4.191406 -7.972656 4.109375 -7.703125 C 4.035156 -7.429688 3.972656 -7.21875 3.921875 -7.0625 L 2.8125 -4.109375 Z M 5.90625 -4.109375 "/></g></g></g><g fill="#dcd7c9" fill-opacity="1"><g transform="translate(194.865535, 277.829339)"><g><path d="M 5.703125 -20.65625 C 7.328125 -20.65625 8.503906 -20.207031 9.234375 -19.3125 C 9.960938 -18.414062 10.328125 -17.179688 10.328125 -15.609375 L 10.328125 -13.140625 C 10.328125 -11.484375 9.9375 -10.234375 9.15625 -9.390625 C 8.382812 -8.554688 7.171875 -8.140625 5.515625 -8.140625 L 3.484375 -8.140625 L 3.484375 0 L 1.1875 0 L 1.1875 -20.65625 Z M 5.515625 -10.21875 C 6.378906 -10.21875 7.019531 -10.425781 7.4375 -10.84375 C 7.851562 -11.269531 8.0625 -11.984375 8.0625 -12.984375 L 8.0625 -15.734375 C 8.0625 -16.679688 7.878906 -17.390625 7.515625 -17.859375 C 7.148438 -18.328125 6.546875 -18.5625 5.703125 -18.5625 L 3.484375 -18.5625 L 3.484375 -10.21875 Z M 5.515625 -10.21875 "/></g></g></g><g fill="#dcd7c9" fill-opacity="1"><g transform="translate(215.492581, 277.829339)"><g><path d="M 3.515625 -4.15625 L 2.71875 0 L 0.59375 0 L 4.546875 -20.65625 L 7.875 -20.65625 L 11.828125 0 L 9.53125 0 L 8.734375 -4.15625 Z M 3.8125 -6.140625 L 8.40625 -6.140625 L 6.078125 -18.0625 Z M 3.8125 -6.140625 "/></g></g></g><g fill="#dcd7c9" fill-opacity="1"><g transform="translate(237.535746, 277.829339)"><g><path d="M 3.359375 -4.875 C 3.359375 -3.925781 3.550781 -3.191406 3.9375 -2.671875 C 4.320312 -2.148438 4.9375 -1.890625 5.78125 -1.890625 C 6.613281 -1.890625 7.21875 -2.148438 7.59375 -2.671875 C 7.976562 -3.191406 8.171875 -3.925781 8.171875 -4.875 L 8.171875 -20.65625 L 10.328125 -20.65625 L 10.328125 -4.984375 C 10.328125 -3.410156 9.953125 -2.144531 9.203125 -1.1875 C 8.460938 -0.238281 7.296875 0.234375 5.703125 0.234375 C 4.117188 0.234375 2.953125 -0.238281 2.203125 -1.1875 C 1.460938 -2.144531 1.09375 -3.410156 1.09375 -4.984375 L 1.09375 -20.65625 L 3.359375 -20.65625 Z M 3.359375 -4.875 "/></g></g></g><g fill="#dcd7c9" fill-opacity="1"><g transform="translate(258.546322, 277.829339)"><g><path d="M 1.1875 0 L 1.1875 -20.65625 L 3.484375 -20.65625 L 3.484375 -2.09375 L 9.390625 -2.09375 L 9.390625 0 Z M 1.1875 0 "/></g></g></g><g fill="#dcd7c9" fill-opacity="1"><g transform="translate(278.081796, 277.829339)"><g/></g></g><g fill="#dcd7c9" fill-opacity="1"><g transform="translate(292.247845, 277.829339)"><g><path d="M 5.515625 -20.875 C 7.085938 -20.875 8.25 -20.40625 9 -19.46875 C 9.75 -18.53125 10.125 -17.273438 10.125 -15.703125 L 10.125 -15.140625 L 7.9375 -15.140625 L 7.9375 -15.828125 C 7.9375 -16.765625 7.75 -17.488281 7.375 -18 C 7 -18.507812 6.398438 -18.765625 5.578125 -18.765625 C 4.753906 -18.765625 4.15625 -18.507812 3.78125 -18 C 3.40625 -17.488281 3.21875 -16.769531 3.21875 -15.84375 C 3.21875 -15.082031 3.390625 -14.414062 3.734375 -13.84375 C 4.078125 -13.269531 4.503906 -12.742188 5.015625 -12.265625 C 5.523438 -11.785156 6.078125 -11.3125 6.671875 -10.84375 C 7.273438 -10.382812 7.832031 -9.878906 8.34375 -9.328125 C 8.863281 -8.773438 9.296875 -8.148438 9.640625 -7.453125 C 9.984375 -6.753906 10.15625 -5.921875 10.15625 -4.953125 C 10.15625 -3.378906 9.773438 -2.125 9.015625 -1.1875 C 8.253906 -0.257812 7.078125 0.203125 5.484375 0.203125 C 3.890625 0.203125 2.71875 -0.257812 1.96875 -1.1875 C 1.226562 -2.125 0.859375 -3.378906 0.859375 -4.953125 L 0.859375 -6.140625 L 3.015625 -6.140625 L 3.015625 -4.84375 C 3.015625 -3.894531 3.207031 -3.164062 3.59375 -2.65625 C 3.988281 -2.144531 4.601562 -1.890625 5.4375 -1.890625 C 6.257812 -1.890625 6.863281 -2.144531 7.25 -2.65625 C 7.644531 -3.164062 7.84375 -3.894531 7.84375 -4.84375 C 7.84375 -5.601562 7.671875 -6.265625 7.328125 -6.828125 C 6.984375 -7.390625 6.554688 -7.910156 6.046875 -8.390625 C 5.535156 -8.878906 4.984375 -9.351562 4.390625 -9.8125 C 3.804688 -10.269531 3.257812 -10.773438 2.75 -11.328125 C 2.238281 -11.878906 1.804688 -12.503906 1.453125 -13.203125 C 1.109375 -13.898438 0.9375 -14.734375 0.9375 -15.703125 C 0.9375 -17.296875 1.3125 -18.554688 2.0625 -19.484375 C 2.8125 -20.410156 3.960938 -20.875 5.515625 -20.875 Z M 5.515625 -20.875 "/></g></g></g><g fill="#dcd7c9" fill-opacity="1"><g transform="translate(312.815895, 277.829339)"><g><path d="M 4.84375 -7.40625 L 0.46875 -20.65625 L 2.859375 -20.65625 L 6.078125 -10.5 L 9.328125 -20.65625 L 11.515625 -20.65625 L 7.109375 -7.40625 L 7.109375 0 L 4.84375 0 Z M 4.84375 -7.40625 "/></g></g></g><g fill="#dcd7c9" fill-opacity="1"><g transform="translate(334.387011, 277.829339)"><g><path d="M 8.796875 -0.03125 L 6.578125 -0.03125 L 3.15625 -16.46875 L 3.15625 0 L 1.15625 0 L 1.15625 -20.65625 L 4.375 -20.65625 L 7.765625 -4.15625 L 11.03125 -20.65625 L 14.25 -20.65625 L 14.25 0 L 12.078125 0 L 12.078125 -16.625 Z M 8.796875 -0.03125 "/></g></g></g><g fill="#dcd7c9" fill-opacity="1"><g transform="translate(359.409908, 277.829339)"><g><path d="M 1 -15.671875 C 1 -17.265625 1.382812 -18.53125 2.15625 -19.46875 C 2.9375 -20.40625 4.125 -20.875 5.71875 -20.875 C 7.3125 -20.875 8.503906 -20.40625 9.296875 -19.46875 C 10.085938 -18.53125 10.484375 -17.265625 10.484375 -15.671875 L 10.484375 -4.984375 C 10.484375 -3.410156 10.085938 -2.148438 9.296875 -1.203125 C 8.503906 -0.265625 7.3125 0.203125 5.71875 0.203125 C 4.125 0.203125 2.9375 -0.265625 2.15625 -1.203125 C 1.382812 -2.148438 1 -3.410156 1 -4.984375 Z M 3.28125 -4.875 C 3.28125 -3.925781 3.476562 -3.191406 3.875 -2.671875 C 4.28125 -2.148438 4.894531 -1.890625 5.71875 -1.890625 C 6.570312 -1.890625 7.191406 -2.148438 7.578125 -2.671875 C 7.972656 -3.191406 8.171875 -3.925781 8.171875 -4.875 L 8.171875 -15.796875 C 8.171875 -16.734375 7.972656 -17.460938 7.578125 -17.984375 C 7.191406 -18.503906 6.570312 -18.765625 5.71875 -18.765625 C 4.894531 -18.765625 4.28125 -18.503906 3.875 -17.984375 C 3.476562 -17.460938 3.28125 -16.734375 3.28125 -15.796875 Z M 3.28125 -4.875 "/></g></g></g><g fill="#dcd7c9" fill-opacity="1"><g transform="translate(380.479494, 277.829339)"><g><path d="M 3.21875 0 L 1.15625 0 L 1.15625 -20.65625 L 4.078125 -20.65625 L 8.859375 -5.71875 L 8.859375 -20.65625 L 10.890625 -20.65625 L 10.890625 0 L 8.5 0 L 3.21875 -16.703125 Z M 3.21875 0 "/></g></g></g></svg>