<svg xmlns="http://www.w3.org/2000/svg" xmlns:xlink="http://www.w3.org/1999/xlink" width="375" zoomAndPan="magnify" viewBox="0 0 281.25 311.249988" height="415" preserveAspectRatio="xMidYMid meet" version="1.0"><defs><g/><clipPath id="31bb9b398b"><path d="M 0 0.0390625 L 280.503906 0.0390625 L 280.503906 310.460938 L 0 310.460938 Z M 0 0.0390625 " clip-rule="nonzero"/></clipPath></defs><g clip-path="url(#31bb9b398b)"><path fill="#ffffff" d="M 0 0.0390625 L 280.503906 0.0390625 L 280.503906 310.460938 L 0 310.460938 Z M 0 0.0390625 " fill-opacity="1" fill-rule="nonzero"/><path fill="#3f4e4f" d="M 0 0.0390625 L 280.503906 0.0390625 L 280.503906 310.460938 L 0 310.460938 Z M 0 0.0390625 " fill-opacity="1" fill-rule="nonzero"/></g><g fill="#dcd7c9" fill-opacity="1"><g transform="translate(14.712337, 123.728469)"><g><path d="M 0.609375 -24.546875 L 0.609375 -30.078125 L 16.875 -30.078125 L 16.875 -24.546875 L 12 -24.546875 L 12 0 L 5.484375 0 L 5.484375 -24.546875 Z M 0.609375 -24.546875 "/></g></g></g><g fill="#dcd7c9" fill-opacity="1"><g transform="translate(32.233764, 123.728469)"><g><path d="M 8.828125 -5.390625 L 16.03125 -5.390625 L 16.03125 0 L 2.328125 0 L 2.328125 -30.078125 L 16.03125 -30.078125 L 16.03125 -24.78125 L 8.828125 -24.78125 L 8.828125 -17.703125 L 15.578125 -17.703125 L 15.578125 -12.59375 L 8.828125 -12.59375 Z M 15.8125 -37.1875 L 9.71875 -32.453125 L 5.109375 -32.453125 L 8.96875 -37.1875 Z M 15.8125 -37.1875 "/></g></g></g><g fill="#dcd7c9" fill-opacity="1"><g transform="translate(49.708722, 123.728469)"><g><path d="M 13.53125 -4.921875 L 13.53125 -9.578125 L 19.703125 -9.578125 L 19.703125 -5.671875 C 19.703125 -1.578125 17.785156 0.46875 13.953125 0.46875 L 8.09375 0.46875 C 4.25 0.46875 2.328125 -1.578125 2.328125 -5.671875 L 2.328125 -24.40625 C 2.328125 -28.5 4.25 -30.546875 8.09375 -30.546875 L 13.953125 -30.546875 C 17.785156 -30.546875 19.703125 -28.5 19.703125 -24.40625 L 19.703125 -21.5625 L 13.53125 -21.5625 L 13.53125 -25.1875 C 13.53125 -25.4375 13.441406 -25.65625 13.265625 -25.84375 C 13.097656 -26.03125 12.890625 -26.125 12.640625 -26.125 L 9.71875 -26.125 C 9.46875 -26.125 9.253906 -26.03125 9.078125 -25.84375 C 8.910156 -25.65625 8.828125 -25.4375 8.828125 -25.1875 L 8.828125 -4.921875 C 8.828125 -4.679688 8.910156 -4.46875 9.078125 -4.28125 C 9.253906 -4.09375 9.46875 -4 9.71875 -4 L 12.640625 -4 C 12.890625 -4 13.097656 -4.09375 13.265625 -4.28125 C 13.441406 -4.46875 13.53125 -4.679688 13.53125 -4.921875 Z M 13.53125 -4.921875 "/></g></g></g><g fill="#dcd7c9" fill-opacity="1"><g transform="translate(70.994707, 123.728469)"><g><path d="M 19.5625 0 L 13.0625 0 L 13.0625 -24.96875 C 13.0625 -25.207031 12.972656 -25.421875 12.796875 -25.609375 C 12.628906 -25.796875 12.421875 -25.890625 12.171875 -25.890625 L 9.671875 -25.890625 C 9.421875 -25.890625 9.207031 -25.796875 9.03125 -25.609375 C 8.863281 -25.421875 8.78125 -25.207031 8.78125 -24.96875 L 8.78125 0 L 2.28125 0 L 2.28125 -24.40625 C 2.28125 -28.5 4.203125 -30.546875 8.046875 -30.546875 L 13.8125 -30.546875 C 17.644531 -30.546875 19.5625 -28.5 19.5625 -24.40625 Z M 19.5625 0 "/></g></g></g><g fill="#dcd7c9" fill-opacity="1"><g transform="translate(92.606015, 123.728469)"><g><path d="M 8.828125 -30.078125 L 8.828125 0 L 2.328125 0 L 2.328125 -30.078125 Z M 8.828125 -30.078125 "/></g></g></g><g fill="#dcd7c9" fill-opacity="1"><g transform="translate(103.946146, 123.728469)"><g><path d="M 13.53125 -4.921875 L 13.53125 -9.578125 L 19.703125 -9.578125 L 19.703125 -5.671875 C 19.703125 -1.578125 17.785156 0.46875 13.953125 0.46875 L 8.09375 0.46875 C 4.25 0.46875 2.328125 -1.578125 2.328125 -5.671875 L 2.328125 -24.40625 C 2.328125 -28.5 4.25 -30.546875 8.09375 -30.546875 L 13.953125 -30.546875 C 17.785156 -30.546875 19.703125 -28.5 19.703125 -24.40625 L 19.703125 -21.5625 L 13.53125 -21.5625 L 13.53125 -25.1875 C 13.53125 -25.4375 13.441406 -25.65625 13.265625 -25.84375 C 13.097656 -26.03125 12.890625 -26.125 12.640625 -26.125 L 9.71875 -26.125 C 9.46875 -26.125 9.253906 -26.03125 9.078125 -25.84375 C 8.910156 -25.65625 8.828125 -25.4375 8.828125 -25.1875 L 8.828125 -4.921875 C 8.828125 -4.679688 8.910156 -4.46875 9.078125 -4.28125 C 9.253906 -4.09375 9.46875 -4 9.71875 -4 L 12.640625 -4 C 12.890625 -4 13.097656 -4.09375 13.265625 -4.28125 C 13.441406 -4.46875 13.53125 -4.679688 13.53125 -4.921875 Z M 13.53125 -4.921875 "/></g></g></g><g fill="#dcd7c9" fill-opacity="1"><g transform="translate(125.23213, 123.728469)"><g><path d="M 14.265625 -30.546875 C 18.109375 -30.546875 20.03125 -28.5 20.03125 -24.40625 L 20.03125 0 L 13.53125 0 L 13.53125 -10.09375 L 8.828125 -10.09375 L 8.828125 0 L 2.328125 0 L 2.328125 -24.40625 C 2.328125 -28.5 4.25 -30.546875 8.09375 -30.546875 Z M 8.828125 -15.109375 L 13.53125 -15.109375 L 13.53125 -25.1875 C 13.53125 -25.4375 13.441406 -25.65625 13.265625 -25.84375 C 13.097656 -26.03125 12.890625 -26.125 12.640625 -26.125 L 9.71875 -26.125 C 9.46875 -26.125 9.253906 -26.03125 9.078125 -25.84375 C 8.910156 -25.65625 8.828125 -25.4375 8.828125 -25.1875 Z M 8.828125 -15.109375 "/></g></g></g><g fill="#dcd7c9" fill-opacity="1"><g transform="translate(147.772963, 123.728469)"><g><path d="M 19.015625 -22.171875 L 12.828125 -22.171875 L 12.828125 -24.546875 C 12.828125 -24.796875 12.738281 -25.007812 12.5625 -25.1875 C 12.394531 -25.375 12.191406 -25.46875 11.953125 -25.46875 L 9.390625 -25.46875 C 9.140625 -25.46875 8.925781 -25.375 8.75 -25.1875 C 8.582031 -25.007812 8.5 -24.796875 8.5 -24.546875 L 8.5 -19.203125 C 8.5 -18.953125 8.582031 -18.734375 8.75 -18.546875 C 8.925781 -18.359375 9.140625 -18.265625 9.390625 -18.265625 L 13.578125 -18.265625 C 17.421875 -18.203125 19.34375 -16.15625 19.34375 -12.125 L 19.34375 -5.671875 C 19.34375 -1.578125 17.421875 0.46875 13.578125 0.46875 L 8.09375 0.46875 C 4.25 0.46875 2.328125 -1.578125 2.328125 -5.671875 L 2.328125 -8.78125 L 8.5 -8.78125 L 8.5 -5.4375 C 8.5 -5.1875 8.582031 -4.96875 8.75 -4.78125 C 8.925781 -4.601562 9.140625 -4.515625 9.390625 -4.515625 L 12.265625 -4.515625 C 12.515625 -4.515625 12.722656 -4.601562 12.890625 -4.78125 C 13.066406 -4.96875 13.15625 -5.1875 13.15625 -5.4375 L 13.15625 -11.34375 C 13.15625 -11.59375 13.066406 -11.804688 12.890625 -11.984375 C 12.722656 -12.171875 12.515625 -12.265625 12.265625 -12.265625 L 8.09375 -12.265625 C 4.25 -12.265625 2.328125 -14.3125 2.328125 -18.40625 L 2.328125 -24.40625 C 2.328125 -28.5 4.25 -30.546875 8.09375 -30.546875 L 13.25 -30.546875 C 17.09375 -30.546875 19.015625 -28.5 19.015625 -24.40625 Z M 19.015625 -22.171875 "/></g></g></g><g fill="#dcd7c9" fill-opacity="1"><g transform="translate(169.058948, 123.728469)"><g/></g></g><g fill="#dcd7c9" fill-opacity="1"><g transform="translate(178.447091, 123.728469)"><g><path d="M 14.03125 -30.078125 C 17.875 -30.078125 19.796875 -28.03125 19.796875 -23.9375 L 19.796875 -17.9375 C 19.796875 -13.851562 17.875 -11.8125 14.03125 -11.8125 L 8.78125 -11.8125 L 8.78125 0 L 2.28125 0 L 2.28125 -30.078125 Z M 13.296875 -17.203125 L 13.296875 -24.6875 C 13.296875 -24.9375 13.207031 -25.148438 13.03125 -25.328125 C 12.863281 -25.515625 12.65625 -25.609375 12.40625 -25.609375 L 8.78125 -25.609375 L 8.78125 -16.265625 L 12.40625 -16.265625 C 12.65625 -16.265625 12.863281 -16.359375 13.03125 -16.546875 C 13.207031 -16.734375 13.296875 -16.953125 13.296875 -17.203125 Z M 13.296875 -17.203125 "/></g></g></g><g fill="#dcd7c9" fill-opacity="1"><g transform="translate(199.175365, 123.728469)"><g><path d="M 14.265625 -30.546875 C 18.109375 -30.546875 20.03125 -28.5 20.03125 -24.40625 L 20.03125 0 L 13.53125 0 L 13.53125 -10.09375 L 8.828125 -10.09375 L 8.828125 0 L 2.328125 0 L 2.328125 -24.40625 C 2.328125 -28.5 4.25 -30.546875 8.09375 -30.546875 Z M 8.828125 -15.109375 L 13.53125 -15.109375 L 13.53125 -25.1875 C 13.53125 -25.4375 13.441406 -25.65625 13.265625 -25.84375 C 13.097656 -26.03125 12.890625 -26.125 12.640625 -26.125 L 9.71875 -26.125 C 9.46875 -26.125 9.253906 -26.03125 9.078125 -25.84375 C 8.910156 -25.65625 8.828125 -25.4375 8.828125 -25.1875 Z M 8.828125 -15.109375 "/></g></g></g><g fill="#dcd7c9" fill-opacity="1"><g transform="translate(221.716198, 123.728469)"><g><path d="M 8.828125 -12.3125 L 8.828125 0 L 2.328125 0 L 2.328125 -30.078125 L 13.90625 -30.078125 C 17.738281 -30.078125 19.65625 -28.03125 19.65625 -23.9375 L 19.65625 -20.453125 C 19.65625 -17.972656 18.773438 -16.394531 17.015625 -15.71875 C 18.566406 -15.15625 19.34375 -13.882812 19.34375 -11.90625 L 19.34375 0 L 12.828125 0 L 12.828125 -11.390625 C 12.828125 -12.003906 12.535156 -12.3125 11.953125 -12.3125 Z M 8.828125 -25.65625 L 8.828125 -16.875 L 12.265625 -16.875 C 12.515625 -16.875 12.722656 -16.96875 12.890625 -17.15625 C 13.066406 -17.34375 13.15625 -17.554688 13.15625 -17.796875 L 13.15625 -24.734375 C 13.15625 -24.984375 13.066406 -25.195312 12.890625 -25.375 C 12.722656 -25.5625 12.515625 -25.65625 12.265625 -25.65625 Z M 8.828125 -25.65625 "/></g></g></g><g fill="#dcd7c9" fill-opacity="1"><g transform="translate(243.234548, 123.728469)"><g><path d="M 14.265625 -30.546875 C 18.109375 -30.546875 20.03125 -28.5 20.03125 -24.40625 L 20.03125 0 L 13.53125 0 L 13.53125 -10.09375 L 8.828125 -10.09375 L 8.828125 0 L 2.328125 0 L 2.328125 -24.40625 C 2.328125 -28.5 4.25 -30.546875 8.09375 -30.546875 Z M 8.828125 -15.109375 L 13.53125 -15.109375 L 13.53125 -25.1875 C 13.53125 -25.4375 13.441406 -25.65625 13.265625 -25.84375 C 13.097656 -26.03125 12.890625 -26.125 12.640625 -26.125 L 9.71875 -26.125 C 9.46875 -26.125 9.253906 -26.03125 9.078125 -25.84375 C 8.910156 -25.65625 8.828125 -25.4375 8.828125 -25.1875 Z M 8.828125 -15.109375 "/></g></g></g><g fill="#dcd7c9" fill-opacity="1"><g transform="translate(32.870851, 164.619888)"><g><path d="M 15.234375 -32.609375 C 19.335938 -32.609375 21.390625 -30.425781 21.390625 -26.0625 L 21.390625 0 L 14.453125 0 L 14.453125 -10.765625 L 9.4375 -10.765625 L 9.4375 0 L 2.484375 0 L 2.484375 -26.0625 C 2.484375 -30.425781 4.535156 -32.609375 8.640625 -32.609375 Z M 9.4375 -16.140625 L 14.453125 -16.140625 L 14.453125 -26.90625 C 14.453125 -27.164062 14.359375 -27.394531 14.171875 -27.59375 C 13.992188 -27.789062 13.769531 -27.890625 13.5 -27.890625 L 10.375 -27.890625 C 10.113281 -27.890625 9.890625 -27.789062 9.703125 -27.59375 C 9.523438 -27.394531 9.4375 -27.164062 9.4375 -26.90625 Z M 9.4375 -16.140625 "/></g></g></g><g fill="#dcd7c9" fill-opacity="1"><g transform="translate(56.944896, 164.619888)"><g><path d="M 14.984375 -32.125 C 19.085938 -32.125 21.140625 -29.9375 21.140625 -25.5625 L 21.140625 -19.15625 C 21.140625 -14.789062 19.085938 -12.609375 14.984375 -12.609375 L 9.375 -12.609375 L 9.375 0 L 2.4375 0 L 2.4375 -32.125 Z M 14.203125 -18.359375 L 14.203125 -26.359375 C 14.203125 -26.617188 14.109375 -26.847656 13.921875 -27.046875 C 13.742188 -27.253906 13.519531 -27.359375 13.25 -27.359375 L 9.375 -27.359375 L 9.375 -17.375 L 13.25 -17.375 C 13.519531 -17.375 13.742188 -17.472656 13.921875 -17.671875 C 14.109375 -17.867188 14.203125 -18.097656 14.203125 -18.359375 Z M 14.203125 -18.359375 "/></g></g></g><g fill="#dcd7c9" fill-opacity="1"><g transform="translate(79.083094, 164.619888)"><g><path d="M 9.4375 -13.15625 L 9.4375 0 L 2.484375 0 L 2.484375 -32.125 L 14.84375 -32.125 C 18.945312 -32.125 21 -29.9375 21 -25.5625 L 21 -21.84375 C 21 -19.195312 20.054688 -17.507812 18.171875 -16.78125 C 19.828125 -16.1875 20.65625 -14.828125 20.65625 -12.703125 L 20.65625 0 L 13.703125 0 L 13.703125 -12.15625 C 13.703125 -12.820312 13.382812 -13.15625 12.75 -13.15625 Z M 9.4375 -27.40625 L 9.4375 -18.015625 L 13.109375 -18.015625 C 13.367188 -18.015625 13.585938 -18.113281 13.765625 -18.3125 C 13.953125 -18.507812 14.046875 -18.742188 14.046875 -19.015625 L 14.046875 -26.40625 C 14.046875 -26.675781 13.953125 -26.910156 13.765625 -27.109375 C 13.585938 -27.304688 13.367188 -27.40625 13.109375 -27.40625 Z M 9.4375 -27.40625 "/></g></g></g><g fill="#dcd7c9" fill-opacity="1"><g transform="translate(102.065122, 164.619888)"><g><path d="M 21.390625 -26.0625 L 21.390625 -6.0625 C 21.390625 -1.6875 19.335938 0.5 15.234375 0.5 L 8.640625 0.5 C 4.535156 0.5 2.484375 -1.6875 2.484375 -6.0625 L 2.484375 -26.0625 C 2.484375 -30.425781 4.535156 -32.609375 8.640625 -32.609375 L 15.234375 -32.609375 C 19.335938 -32.609375 21.390625 -30.425781 21.390625 -26.0625 Z M 14.453125 -5.265625 L 14.453125 -26.90625 C 14.453125 -27.164062 14.359375 -27.394531 14.171875 -27.59375 C 13.992188 -27.789062 13.769531 -27.890625 13.5 -27.890625 L 10.375 -27.890625 C 10.113281 -27.890625 9.890625 -27.789062 9.703125 -27.59375 C 9.523438 -27.394531 9.4375 -27.164062 9.4375 -26.90625 L 9.4375 -5.265625 C 9.4375 -4.992188 9.523438 -4.757812 9.703125 -4.5625 C 9.890625 -4.363281 10.113281 -4.265625 10.375 -4.265625 L 13.5 -4.265625 C 13.769531 -4.265625 13.992188 -4.363281 14.171875 -4.5625 C 14.359375 -4.757812 14.453125 -4.992188 14.453125 -5.265625 Z M 14.453125 -5.265625 "/></g></g></g><g fill="#dcd7c9" fill-opacity="1"><g transform="translate(126.089532, 164.619888)"><g><path d="M 15.4375 -32.125 L 22.140625 -32.125 L 15.484375 0 L 7.5 0 L 0.84375 -32.125 L 7.59375 -32.125 L 11.515625 -8.6875 Z M 15.4375 -32.125 "/></g></g></g><g fill="#dcd7c9" fill-opacity="1"><g transform="translate(149.170831, 164.619888)"><g><path d="M 15.234375 -32.609375 C 19.335938 -32.609375 21.390625 -30.425781 21.390625 -26.0625 L 21.390625 0 L 14.453125 0 L 14.453125 -10.765625 L 9.4375 -10.765625 L 9.4375 0 L 2.484375 0 L 2.484375 -26.0625 C 2.484375 -30.425781 4.535156 -32.609375 8.640625 -32.609375 Z M 9.4375 -16.140625 L 14.453125 -16.140625 L 14.453125 -26.90625 C 14.453125 -27.164062 14.359375 -27.394531 14.171875 -27.59375 C 13.992188 -27.789062 13.769531 -27.890625 13.5 -27.890625 L 10.375 -27.890625 C 10.113281 -27.890625 9.890625 -27.789062 9.703125 -27.59375 C 9.523438 -27.394531 9.4375 -27.164062 9.4375 -26.90625 Z M 9.4375 -16.140625 "/></g></g></g><g fill="#dcd7c9" fill-opacity="1"><g transform="translate(173.244876, 164.619888)"><g><path d="M 5.0625 5.265625 L 9.625 0.5 L 8.640625 0.5 C 4.535156 0.5 2.484375 -1.6875 2.484375 -6.0625 L 2.484375 -26.0625 C 2.484375 -30.425781 4.535156 -32.609375 8.640625 -32.609375 L 14.890625 -32.609375 C 18.992188 -32.609375 21.046875 -30.425781 21.046875 -26.0625 L 21.046875 -23.03125 L 14.453125 -23.03125 L 14.453125 -26.90625 C 14.453125 -27.164062 14.359375 -27.394531 14.171875 -27.59375 C 13.992188 -27.789062 13.769531 -27.890625 13.5 -27.890625 L 10.375 -27.890625 C 10.113281 -27.890625 9.890625 -27.789062 9.703125 -27.59375 C 9.523438 -27.394531 9.4375 -27.164062 9.4375 -26.90625 L 9.4375 -5.265625 C 9.4375 -4.992188 9.523438 -4.757812 9.703125 -4.5625 C 9.890625 -4.363281 10.113281 -4.265625 10.375 -4.265625 L 13.5 -4.265625 C 13.769531 -4.265625 13.992188 -4.363281 14.171875 -4.5625 C 14.359375 -4.757812 14.453125 -4.992188 14.453125 -5.265625 L 14.453125 -10.21875 L 21.046875 -10.21875 L 21.046875 -6.0625 C 21.046875 -1.6875 18.992188 0.5 14.890625 0.5 L 14.6875 0.5 L 12.359375 5.265625 Z M 5.0625 5.265625 "/></g></g></g><g fill="#dcd7c9" fill-opacity="1"><g transform="translate(195.978718, 164.619888)"><g><path d="M 15.234375 -32.609375 C 19.335938 -32.609375 21.390625 -30.425781 21.390625 -26.0625 L 21.390625 0 L 14.453125 0 L 14.453125 -10.765625 L 9.4375 -10.765625 L 9.4375 0 L 2.484375 0 L 2.484375 -26.0625 C 2.484375 -30.425781 4.535156 -32.609375 8.640625 -32.609375 Z M 9.4375 -16.140625 L 14.453125 -16.140625 L 14.453125 -26.90625 C 14.453125 -27.164062 14.359375 -27.394531 14.171875 -27.59375 C 13.992188 -27.789062 13.769531 -27.890625 13.5 -27.890625 L 10.375 -27.890625 C 10.113281 -27.890625 9.890625 -27.789062 9.703125 -27.59375 C 9.523438 -27.394531 9.4375 -27.164062 9.4375 -26.90625 Z M 14.5 -34.15625 C 13.601562 -34.25 12.550781 -34.523438 11.34375 -34.984375 C 10.132812 -35.453125 9.21875 -35.722656 8.59375 -35.796875 C 7.226562 -35.796875 6.132812 -35.28125 5.3125 -34.25 L 3.96875 -34.34375 L 4.015625 -34.796875 C 4.148438 -36.421875 4.695312 -37.644531 5.65625 -38.46875 C 6.613281 -39.300781 7.695312 -39.71875 8.90625 -39.71875 C 10.113281 -39.71875 11.394531 -39.453125 12.75 -38.921875 C 14.113281 -38.390625 15.238281 -38.125 16.125 -38.125 C 17.019531 -38.125 17.898438 -38.617188 18.765625 -39.609375 L 20.109375 -39.515625 L 20.0625 -39.0625 C 19.925781 -37.476562 19.367188 -36.265625 18.390625 -35.421875 C 17.410156 -34.578125 16.257812 -34.15625 14.9375 -34.15625 Z M 14.5 -34.15625 "/></g></g></g><g fill="#dcd7c9" fill-opacity="1"><g transform="translate(220.052773, 164.619888)"><g><path d="M 21.390625 -26.0625 L 21.390625 -6.0625 C 21.390625 -1.6875 19.335938 0.5 15.234375 0.5 L 8.640625 0.5 C 4.535156 0.5 2.484375 -1.6875 2.484375 -6.0625 L 2.484375 -26.0625 C 2.484375 -30.425781 4.535156 -32.609375 8.640625 -32.609375 L 15.234375 -32.609375 C 19.335938 -32.609375 21.390625 -30.425781 21.390625 -26.0625 Z M 14.453125 -5.265625 L 14.453125 -26.90625 C 14.453125 -27.164062 14.359375 -27.394531 14.171875 -27.59375 C 13.992188 -27.789062 13.769531 -27.890625 13.5 -27.890625 L 10.375 -27.890625 C 10.113281 -27.890625 9.890625 -27.789062 9.703125 -27.59375 C 9.523438 -27.394531 9.4375 -27.164062 9.4375 -26.90625 L 9.4375 -5.265625 C 9.4375 -4.992188 9.523438 -4.757812 9.703125 -4.5625 C 9.890625 -4.363281 10.113281 -4.265625 10.375 -4.265625 L 13.5 -4.265625 C 13.769531 -4.265625 13.992188 -4.363281 14.171875 -4.5625 C 14.359375 -4.757812 14.453125 -4.992188 14.453125 -5.265625 Z M 14.453125 -5.265625 "/></g></g></g><g fill="#dcd7c9" fill-opacity="1"><g transform="translate(11.558992, 189.053719)"><g><path d="M 6.765625 0 L 1.328125 0 L 1.328125 -9.734375 L 6.765625 -9.734375 L 6.765625 -8.65625 L 2.546875 -8.65625 L 2.546875 -5.625 L 6.515625 -5.625 L 6.515625 -4.5625 L 2.546875 -4.5625 L 2.546875 -1.078125 L 6.765625 -1.078125 Z M 6.765625 0 "/></g></g></g><g fill="#dcd7c9" fill-opacity="1"><g transform="translate(23.574901, 189.053719)"><g><path d="M 5.625 0 L 2.421875 -8.53125 L 2.359375 -8.53125 C 2.390625 -8.25 2.410156 -7.867188 2.421875 -7.390625 C 2.441406 -6.921875 2.453125 -6.425781 2.453125 -5.90625 L 2.453125 0 L 1.328125 0 L 1.328125 -9.734375 L 3.140625 -9.734375 L 6.140625 -1.765625 L 6.1875 -1.765625 L 9.25 -9.734375 L 11.046875 -9.734375 L 11.046875 0 L 9.828125 0 L 9.828125 -5.984375 C 9.828125 -6.460938 9.835938 -6.929688 9.859375 -7.390625 C 9.890625 -7.859375 9.914062 -8.238281 9.9375 -8.53125 L 9.875 -8.53125 L 6.625 0 Z M 5.625 0 "/></g></g></g><g fill="#dcd7c9" fill-opacity="1"><g transform="translate(40.377189, 189.053719)"><g/></g></g><g fill="#dcd7c9" fill-opacity="1"><g transform="translate(47.265816, 189.053719)"><g><path d="M 5.5 -8.796875 C 4.445312 -8.796875 3.617188 -8.445312 3.015625 -7.75 C 2.421875 -7.050781 2.125 -6.09375 2.125 -4.875 C 2.125 -3.664062 2.40625 -2.707031 2.96875 -2 C 3.53125 -1.289062 4.367188 -0.9375 5.484375 -0.9375 C 5.898438 -0.9375 6.296875 -0.972656 6.671875 -1.046875 C 7.054688 -1.117188 7.4375 -1.210938 7.8125 -1.328125 L 7.8125 -0.265625 C 7.445312 -0.117188 7.070312 -0.015625 6.6875 0.046875 C 6.300781 0.109375 5.84375 0.140625 5.3125 0.140625 C 4.3125 0.140625 3.476562 -0.0625 2.8125 -0.46875 C 2.15625 -0.882812 1.660156 -1.46875 1.328125 -2.21875 C 0.992188 -2.976562 0.828125 -3.867188 0.828125 -4.890625 C 0.828125 -5.867188 1.003906 -6.734375 1.359375 -7.484375 C 1.722656 -8.234375 2.253906 -8.816406 2.953125 -9.234375 C 3.660156 -9.660156 4.515625 -9.875 5.515625 -9.875 C 6.535156 -9.875 7.429688 -9.679688 8.203125 -9.296875 L 7.703125 -8.265625 C 7.398438 -8.398438 7.066406 -8.519531 6.703125 -8.625 C 6.335938 -8.738281 5.9375 -8.796875 5.5 -8.796875 Z M 5.5 -8.796875 "/></g></g></g><g fill="#dcd7c9" fill-opacity="1"><g transform="translate(60.318092, 189.053719)"><g><path d="M 9.828125 -4.890625 C 9.828125 -3.878906 9.65625 -3 9.3125 -2.25 C 8.96875 -1.5 8.460938 -0.910156 7.796875 -0.484375 C 7.128906 -0.0664062 6.304688 0.140625 5.328125 0.140625 C 4.316406 0.140625 3.476562 -0.0664062 2.8125 -0.484375 C 2.144531 -0.910156 1.644531 -1.5 1.3125 -2.25 C 0.988281 -3.007812 0.828125 -3.890625 0.828125 -4.890625 C 0.828125 -5.890625 0.988281 -6.765625 1.3125 -7.515625 C 1.644531 -8.265625 2.144531 -8.847656 2.8125 -9.265625 C 3.476562 -9.679688 4.320312 -9.890625 5.34375 -9.890625 C 6.320312 -9.890625 7.140625 -9.679688 7.796875 -9.265625 C 8.460938 -8.847656 8.96875 -8.265625 9.3125 -7.515625 C 9.65625 -6.765625 9.828125 -5.890625 9.828125 -4.890625 Z M 2.125 -4.890625 C 2.125 -3.660156 2.382812 -2.691406 2.90625 -1.984375 C 3.425781 -1.273438 4.234375 -0.921875 5.328125 -0.921875 C 6.429688 -0.921875 7.238281 -1.273438 7.75 -1.984375 C 8.269531 -2.691406 8.53125 -3.660156 8.53125 -4.890625 C 8.53125 -6.109375 8.273438 -7.066406 7.765625 -7.765625 C 7.253906 -8.460938 6.445312 -8.8125 5.34375 -8.8125 C 4.238281 -8.8125 3.425781 -8.460938 2.90625 -7.765625 C 2.382812 -7.066406 2.125 -6.109375 2.125 -4.890625 Z M 2.125 -4.890625 "/></g></g></g><g fill="#dcd7c9" fill-opacity="1"><g transform="translate(75.402201, 189.053719)"><g><path d="M 9.046875 0 L 7.609375 0 L 2.40625 -8.09375 L 2.34375 -8.09375 C 2.363281 -7.769531 2.382812 -7.367188 2.40625 -6.890625 C 2.4375 -6.421875 2.453125 -5.9375 2.453125 -5.4375 L 2.453125 0 L 1.328125 0 L 1.328125 -9.734375 L 2.734375 -9.734375 L 7.9375 -1.671875 L 8 -1.671875 C 7.988281 -1.816406 7.972656 -2.035156 7.953125 -2.328125 C 7.941406 -2.617188 7.925781 -2.9375 7.90625 -3.28125 C 7.894531 -3.625 7.890625 -3.945312 7.890625 -4.25 L 7.890625 -9.734375 L 9.046875 -9.734375 Z M 9.046875 0 "/></g></g></g><g fill="#dcd7c9" fill-opacity="1"><g transform="translate(90.199939, 189.053719)"><g><path d="M 5.5 -8.796875 C 4.445312 -8.796875 3.617188 -8.445312 3.015625 -7.75 C 2.421875 -7.050781 2.125 -6.09375 2.125 -4.875 C 2.125 -3.664062 2.40625 -2.707031 2.96875 -2 C 3.53125 -1.289062 4.367188 -0.9375 5.484375 -0.9375 C 5.898438 -0.9375 6.296875 -0.972656 6.671875 -1.046875 C 7.054688 -1.117188 7.4375 -1.210938 7.8125 -1.328125 L 7.8125 -0.265625 C 7.445312 -0.117188 7.070312 -0.015625 6.6875 0.046875 C 6.300781 0.109375 5.84375 0.140625 5.3125 0.140625 C 4.3125 0.140625 3.476562 -0.0625 2.8125 -0.46875 C 2.15625 -0.882812 1.660156 -1.46875 1.328125 -2.21875 C 0.992188 -2.976562 0.828125 -3.867188 0.828125 -4.890625 C 0.828125 -5.867188 1.003906 -6.734375 1.359375 -7.484375 C 1.722656 -8.234375 2.253906 -8.816406 2.953125 -9.234375 C 3.660156 -9.660156 4.515625 -9.875 5.515625 -9.875 C 6.535156 -9.875 7.429688 -9.679688 8.203125 -9.296875 L 7.703125 -8.265625 C 7.398438 -8.398438 7.066406 -8.519531 6.703125 -8.625 C 6.335938 -8.738281 5.9375 -8.796875 5.5 -8.796875 Z M 5.5 -8.796875 "/></g></g></g><g fill="#dcd7c9" fill-opacity="1"><g transform="translate(103.252217, 189.053719)"><g><path d="M 8.734375 -9.734375 L 8.734375 -3.4375 C 8.734375 -2.757812 8.59375 -2.148438 8.3125 -1.609375 C 8.039062 -1.078125 7.625 -0.648438 7.0625 -0.328125 C 6.5 -0.015625 5.789062 0.140625 4.9375 0.140625 C 3.71875 0.140625 2.796875 -0.1875 2.171875 -0.84375 C 1.546875 -1.507812 1.234375 -2.382812 1.234375 -3.46875 L 1.234375 -9.734375 L 2.453125 -9.734375 L 2.453125 -3.421875 C 2.453125 -2.628906 2.660156 -2.015625 3.078125 -1.578125 C 3.503906 -1.140625 4.144531 -0.921875 5 -0.921875 C 5.882812 -0.921875 6.523438 -1.15625 6.921875 -1.625 C 7.316406 -2.09375 7.515625 -2.695312 7.515625 -3.4375 L 7.515625 -9.734375 Z M 8.734375 -9.734375 "/></g></g></g><g fill="#dcd7c9" fill-opacity="1"><g transform="translate(117.654499, 189.053719)"><g><path d="M 4.015625 -9.734375 C 5.222656 -9.734375 6.113281 -9.503906 6.6875 -9.046875 C 7.269531 -8.585938 7.5625 -7.894531 7.5625 -6.96875 C 7.5625 -6.445312 7.460938 -6.015625 7.265625 -5.671875 C 7.078125 -5.328125 6.832031 -5.050781 6.53125 -4.84375 C 6.238281 -4.632812 5.929688 -4.472656 5.609375 -4.359375 L 8.28125 0 L 6.84375 0 L 4.484375 -4.03125 L 2.546875 -4.03125 L 2.546875 0 L 1.328125 0 L 1.328125 -9.734375 Z M 3.9375 -8.671875 L 2.546875 -8.671875 L 2.546875 -5.0625 L 4.015625 -5.0625 C 4.804688 -5.0625 5.378906 -5.21875 5.734375 -5.53125 C 6.097656 -5.84375 6.28125 -6.304688 6.28125 -6.921875 C 6.28125 -7.554688 6.085938 -8.003906 5.703125 -8.265625 C 5.328125 -8.535156 4.738281 -8.671875 3.9375 -8.671875 Z M 3.9375 -8.671875 "/></g></g></g><g fill="#dcd7c9" fill-opacity="1"><g transform="translate(130.570417, 189.053719)"><g><path d="M 6.84375 -2.609375 C 6.84375 -1.742188 6.53125 -1.066406 5.90625 -0.578125 C 5.28125 -0.0976562 4.4375 0.140625 3.375 0.140625 C 2.820312 0.140625 2.3125 0.0976562 1.84375 0.015625 C 1.382812 -0.0664062 1.003906 -0.179688 0.703125 -0.328125 L 0.703125 -1.5 C 1.023438 -1.351562 1.425781 -1.21875 1.90625 -1.09375 C 2.394531 -0.976562 2.898438 -0.921875 3.421875 -0.921875 C 4.140625 -0.921875 4.6875 -1.0625 5.0625 -1.34375 C 5.4375 -1.625 5.625 -2.007812 5.625 -2.5 C 5.625 -2.8125 5.550781 -3.078125 5.40625 -3.296875 C 5.269531 -3.515625 5.035156 -3.710938 4.703125 -3.890625 C 4.367188 -4.078125 3.910156 -4.28125 3.328125 -4.5 C 2.492188 -4.800781 1.863281 -5.171875 1.4375 -5.609375 C 1.019531 -6.046875 0.8125 -6.640625 0.8125 -7.390625 C 0.8125 -7.898438 0.941406 -8.34375 1.203125 -8.71875 C 1.472656 -9.09375 1.835938 -9.378906 2.296875 -9.578125 C 2.765625 -9.773438 3.304688 -9.875 3.921875 -9.875 C 4.453125 -9.875 4.941406 -9.820312 5.390625 -9.71875 C 5.835938 -9.625 6.242188 -9.492188 6.609375 -9.328125 L 6.234375 -8.28125 C 5.898438 -8.425781 5.53125 -8.546875 5.125 -8.640625 C 4.726562 -8.742188 4.320312 -8.796875 3.90625 -8.796875 C 3.289062 -8.796875 2.828125 -8.664062 2.515625 -8.40625 C 2.210938 -8.144531 2.0625 -7.800781 2.0625 -7.375 C 2.0625 -7.050781 2.128906 -6.78125 2.265625 -6.5625 C 2.398438 -6.34375 2.617188 -6.144531 2.921875 -5.96875 C 3.234375 -5.789062 3.65625 -5.609375 4.1875 -5.421875 C 4.757812 -5.210938 5.242188 -4.984375 5.640625 -4.734375 C 6.035156 -4.492188 6.332031 -4.207031 6.53125 -3.875 C 6.738281 -3.539062 6.84375 -3.117188 6.84375 -2.609375 Z M 6.84375 -2.609375 "/></g></g></g><g fill="#dcd7c9" fill-opacity="1"><g transform="translate(142.490882, 189.053719)"><g><path d="M 9.828125 -4.890625 C 9.828125 -3.878906 9.65625 -3 9.3125 -2.25 C 8.96875 -1.5 8.460938 -0.910156 7.796875 -0.484375 C 7.128906 -0.0664062 6.304688 0.140625 5.328125 0.140625 C 4.316406 0.140625 3.476562 -0.0664062 2.8125 -0.484375 C 2.144531 -0.910156 1.644531 -1.5 1.3125 -2.25 C 0.988281 -3.007812 0.828125 -3.890625 0.828125 -4.890625 C 0.828125 -5.890625 0.988281 -6.765625 1.3125 -7.515625 C 1.644531 -8.265625 2.144531 -8.847656 2.8125 -9.265625 C 3.476562 -9.679688 4.320312 -9.890625 5.34375 -9.890625 C 6.320312 -9.890625 7.140625 -9.679688 7.796875 -9.265625 C 8.460938 -8.847656 8.96875 -8.265625 9.3125 -7.515625 C 9.65625 -6.765625 9.828125 -5.890625 9.828125 -4.890625 Z M 2.125 -4.890625 C 2.125 -3.660156 2.382812 -2.691406 2.90625 -1.984375 C 3.425781 -1.273438 4.234375 -0.921875 5.328125 -0.921875 C 6.429688 -0.921875 7.238281 -1.273438 7.75 -1.984375 C 8.269531 -2.691406 8.53125 -3.660156 8.53125 -4.890625 C 8.53125 -6.109375 8.273438 -7.066406 7.765625 -7.765625 C 7.253906 -8.460938 6.445312 -8.8125 5.34375 -8.8125 C 4.238281 -8.8125 3.425781 -8.460938 2.90625 -7.765625 C 2.382812 -7.066406 2.125 -6.109375 2.125 -4.890625 Z M 2.125 -4.890625 "/></g></g></g><g fill="#dcd7c9" fill-opacity="1"><g transform="translate(157.574991, 189.053719)"><g><path d="M 6.84375 -2.609375 C 6.84375 -1.742188 6.53125 -1.066406 5.90625 -0.578125 C 5.28125 -0.0976562 4.4375 0.140625 3.375 0.140625 C 2.820312 0.140625 2.3125 0.0976562 1.84375 0.015625 C 1.382812 -0.0664062 1.003906 -0.179688 0.703125 -0.328125 L 0.703125 -1.5 C 1.023438 -1.351562 1.425781 -1.21875 1.90625 -1.09375 C 2.394531 -0.976562 2.898438 -0.921875 3.421875 -0.921875 C 4.140625 -0.921875 4.6875 -1.0625 5.0625 -1.34375 C 5.4375 -1.625 5.625 -2.007812 5.625 -2.5 C 5.625 -2.8125 5.550781 -3.078125 5.40625 -3.296875 C 5.269531 -3.515625 5.035156 -3.710938 4.703125 -3.890625 C 4.367188 -4.078125 3.910156 -4.28125 3.328125 -4.5 C 2.492188 -4.800781 1.863281 -5.171875 1.4375 -5.609375 C 1.019531 -6.046875 0.8125 -6.640625 0.8125 -7.390625 C 0.8125 -7.898438 0.941406 -8.34375 1.203125 -8.71875 C 1.472656 -9.09375 1.835938 -9.378906 2.296875 -9.578125 C 2.765625 -9.773438 3.304688 -9.875 3.921875 -9.875 C 4.453125 -9.875 4.941406 -9.820312 5.390625 -9.71875 C 5.835938 -9.625 6.242188 -9.492188 6.609375 -9.328125 L 6.234375 -8.28125 C 5.898438 -8.425781 5.53125 -8.546875 5.125 -8.640625 C 4.726562 -8.742188 4.320312 -8.796875 3.90625 -8.796875 C 3.289062 -8.796875 2.828125 -8.664062 2.515625 -8.40625 C 2.210938 -8.144531 2.0625 -7.800781 2.0625 -7.375 C 2.0625 -7.050781 2.128906 -6.78125 2.265625 -6.5625 C 2.398438 -6.34375 2.617188 -6.144531 2.921875 -5.96875 C 3.234375 -5.789062 3.65625 -5.609375 4.1875 -5.421875 C 4.757812 -5.210938 5.242188 -4.984375 5.640625 -4.734375 C 6.035156 -4.492188 6.332031 -4.207031 6.53125 -3.875 C 6.738281 -3.539062 6.84375 -3.117188 6.84375 -2.609375 Z M 6.84375 -2.609375 "/></g></g></g><g fill="#dcd7c9" fill-opacity="1"><g transform="translate(169.495458, 189.053719)"><g/></g></g><g fill="#dcd7c9" fill-opacity="1"><g transform="translate(176.38409, 189.053719)"><g><path d="M 2.546875 0 L 1.328125 0 L 1.328125 -9.734375 L 6.765625 -9.734375 L 6.765625 -8.65625 L 2.546875 -8.65625 L 2.546875 -5.203125 L 6.5 -5.203125 L 6.5 -4.140625 L 2.546875 -4.140625 Z M 2.546875 0 "/></g></g></g><g fill="#dcd7c9" fill-opacity="1"><g transform="translate(187.895462, 189.053719)"><g><path d="M 6.765625 0 L 1.328125 0 L 1.328125 -9.734375 L 6.765625 -9.734375 L 6.765625 -8.65625 L 2.546875 -8.65625 L 2.546875 -5.625 L 6.515625 -5.625 L 6.515625 -4.5625 L 2.546875 -4.5625 L 2.546875 -1.078125 L 6.765625 -1.078125 Z M 6.765625 0 "/></g></g></g><g fill="#dcd7c9" fill-opacity="1"><g transform="translate(199.911363, 189.053719)"><g><path d="M 9.125 -4.96875 C 9.125 -3.320312 8.675781 -2.082031 7.78125 -1.25 C 6.882812 -0.414062 5.632812 0 4.03125 0 L 1.328125 0 L 1.328125 -9.734375 L 4.328125 -9.734375 C 5.296875 -9.734375 6.140625 -9.550781 6.859375 -9.1875 C 7.585938 -8.820312 8.144531 -8.285156 8.53125 -7.578125 C 8.925781 -6.867188 9.125 -6 9.125 -4.96875 Z M 7.828125 -4.921875 C 7.828125 -6.222656 7.503906 -7.175781 6.859375 -7.78125 C 6.222656 -8.382812 5.316406 -8.6875 4.140625 -8.6875 L 2.546875 -8.6875 L 2.546875 -1.046875 L 3.875 -1.046875 C 6.507812 -1.046875 7.828125 -2.335938 7.828125 -4.921875 Z M 7.828125 -4.921875 "/></g></g></g><g fill="#dcd7c9" fill-opacity="1"><g transform="translate(214.300017, 189.053719)"><g><path d="M 6.765625 0 L 1.328125 0 L 1.328125 -9.734375 L 6.765625 -9.734375 L 6.765625 -8.65625 L 2.546875 -8.65625 L 2.546875 -5.625 L 6.515625 -5.625 L 6.515625 -4.5625 L 2.546875 -4.5625 L 2.546875 -1.078125 L 6.765625 -1.078125 Z M 6.765625 0 "/></g></g></g><g fill="#dcd7c9" fill-opacity="1"><g transform="translate(226.315918, 189.053719)"><g><path d="M 4.015625 -9.734375 C 5.222656 -9.734375 6.113281 -9.503906 6.6875 -9.046875 C 7.269531 -8.585938 7.5625 -7.894531 7.5625 -6.96875 C 7.5625 -6.445312 7.460938 -6.015625 7.265625 -5.671875 C 7.078125 -5.328125 6.832031 -5.050781 6.53125 -4.84375 C 6.238281 -4.632812 5.929688 -4.472656 5.609375 -4.359375 L 8.28125 0 L 6.84375 0 L 4.484375 -4.03125 L 2.546875 -4.03125 L 2.546875 0 L 1.328125 0 L 1.328125 -9.734375 Z M 3.9375 -8.671875 L 2.546875 -8.671875 L 2.546875 -5.0625 L 4.015625 -5.0625 C 4.804688 -5.0625 5.378906 -5.21875 5.734375 -5.53125 C 6.097656 -5.84375 6.28125 -6.304688 6.28125 -6.921875 C 6.28125 -7.554688 6.085938 -8.003906 5.703125 -8.265625 C 5.328125 -8.535156 4.738281 -8.671875 3.9375 -8.671875 Z M 3.9375 -8.671875 "/></g></g></g><g fill="#dcd7c9" fill-opacity="1"><g transform="translate(239.231835, 189.053719)"><g><path d="M 7.4375 0 L 6.265625 -3.015625 L 2.40625 -3.015625 L 1.234375 0 L 0 0 L 3.8125 -9.78125 L 4.90625 -9.78125 L 8.703125 0 Z M 5.890625 -4.109375 L 4.796875 -7.046875 C 4.773438 -7.117188 4.726562 -7.25 4.65625 -7.4375 C 4.59375 -7.632812 4.53125 -7.832031 4.46875 -8.03125 C 4.414062 -8.238281 4.375 -8.398438 4.34375 -8.515625 C 4.269531 -8.234375 4.191406 -7.957031 4.109375 -7.6875 C 4.035156 -7.414062 3.972656 -7.203125 3.921875 -7.046875 L 2.8125 -4.109375 Z M 5.890625 -4.109375 "/></g></g></g><g fill="#dcd7c9" fill-opacity="1"><g transform="translate(252.37956, 189.053719)"><g><path d="M 4.0625 0 L 0.546875 0 L 0.546875 -0.703125 L 1.6875 -0.96875 L 1.6875 -8.75 L 0.546875 -9.03125 L 0.546875 -9.734375 L 4.0625 -9.734375 L 4.0625 -9.03125 L 2.921875 -8.75 L 2.921875 -0.96875 L 4.0625 -0.703125 Z M 4.0625 0 "/></g></g></g><g fill="#dcd7c9" fill-opacity="1"><g transform="translate(261.43637, 189.053719)"><g><path d="M 6.84375 -2.609375 C 6.84375 -1.742188 6.53125 -1.066406 5.90625 -0.578125 C 5.28125 -0.0976562 4.4375 0.140625 3.375 0.140625 C 2.820312 0.140625 2.3125 0.0976562 1.84375 0.015625 C 1.382812 -0.0664062 1.003906 -0.179688 0.703125 -0.328125 L 0.703125 -1.5 C 1.023438 -1.351562 1.425781 -1.21875 1.90625 -1.09375 C 2.394531 -0.976562 2.898438 -0.921875 3.421875 -0.921875 C 4.140625 -0.921875 4.6875 -1.0625 5.0625 -1.34375 C 5.4375 -1.625 5.625 -2.007812 5.625 -2.5 C 5.625 -2.8125 5.550781 -3.078125 5.40625 -3.296875 C 5.269531 -3.515625 5.035156 -3.710938 4.703125 -3.890625 C 4.367188 -4.078125 3.910156 -4.28125 3.328125 -4.5 C 2.492188 -4.800781 1.863281 -5.171875 1.4375 -5.609375 C 1.019531 -6.046875 0.8125 -6.640625 0.8125 -7.390625 C 0.8125 -7.898438 0.941406 -8.34375 1.203125 -8.71875 C 1.472656 -9.09375 1.835938 -9.378906 2.296875 -9.578125 C 2.765625 -9.773438 3.304688 -9.875 3.921875 -9.875 C 4.453125 -9.875 4.941406 -9.820312 5.390625 -9.71875 C 5.835938 -9.625 6.242188 -9.492188 6.609375 -9.328125 L 6.234375 -8.28125 C 5.898438 -8.425781 5.53125 -8.546875 5.125 -8.640625 C 4.726562 -8.742188 4.320312 -8.796875 3.90625 -8.796875 C 3.289062 -8.796875 2.828125 -8.664062 2.515625 -8.40625 C 2.210938 -8.144531 2.0625 -7.800781 2.0625 -7.375 C 2.0625 -7.050781 2.128906 -6.78125 2.265625 -6.5625 C 2.398438 -6.34375 2.617188 -6.144531 2.921875 -5.96875 C 3.234375 -5.789062 3.65625 -5.609375 4.1875 -5.421875 C 4.757812 -5.210938 5.242188 -4.984375 5.640625 -4.734375 C 6.035156 -4.492188 6.332031 -4.207031 6.53125 -3.875 C 6.738281 -3.539062 6.84375 -3.117188 6.84375 -2.609375 Z M 6.84375 -2.609375 "/></g></g></g><g fill="#dcd7c9" fill-opacity="1"><g transform="translate(36.541752, 214.537884)"><g><path d="M 3.796875 -9.46875 C 5.035156 -9.46875 5.9375 -9.222656 6.5 -8.734375 C 7.0625 -8.253906 7.34375 -7.570312 7.34375 -6.6875 C 7.34375 -6.164062 7.222656 -5.675781 6.984375 -5.21875 C 6.753906 -4.757812 6.363281 -4.390625 5.8125 -4.109375 C 5.257812 -3.828125 4.507812 -3.6875 3.5625 -3.6875 L 2.484375 -3.6875 L 2.484375 0 L 1.28125 0 L 1.28125 -9.46875 Z M 3.6875 -8.453125 L 2.484375 -8.453125 L 2.484375 -4.703125 L 3.4375 -4.703125 C 4.332031 -4.703125 5 -4.847656 5.4375 -5.140625 C 5.882812 -5.429688 6.109375 -5.925781 6.109375 -6.625 C 6.109375 -7.238281 5.910156 -7.695312 5.515625 -8 C 5.128906 -8.300781 4.519531 -8.453125 3.6875 -8.453125 Z M 3.6875 -8.453125 "/></g></g></g><g fill="#dcd7c9" fill-opacity="1"><g transform="translate(48.884961, 214.537884)"><g><path d="M 3.90625 -9.46875 C 5.082031 -9.46875 5.945312 -9.242188 6.5 -8.796875 C 7.0625 -8.347656 7.34375 -7.675781 7.34375 -6.78125 C 7.34375 -6.269531 7.25 -5.847656 7.0625 -5.515625 C 6.882812 -5.179688 6.648438 -4.910156 6.359375 -4.703125 C 6.078125 -4.503906 5.773438 -4.351562 5.453125 -4.25 L 8.046875 0 L 6.65625 0 L 4.359375 -3.90625 L 2.484375 -3.90625 L 2.484375 0 L 1.28125 0 L 1.28125 -9.46875 Z M 3.828125 -8.4375 L 2.484375 -8.4375 L 2.484375 -4.921875 L 3.90625 -4.921875 C 4.664062 -4.921875 5.222656 -5.070312 5.578125 -5.375 C 5.929688 -5.6875 6.109375 -6.132812 6.109375 -6.71875 C 6.109375 -7.34375 5.921875 -7.785156 5.546875 -8.046875 C 5.179688 -8.304688 4.609375 -8.4375 3.828125 -8.4375 Z M 3.828125 -8.4375 "/></g></g></g><g fill="#dcd7c9" fill-opacity="1"><g transform="translate(61.453751, 214.537884)"><g><path d="M 9.546875 -4.75 C 9.546875 -3.769531 9.378906 -2.914062 9.046875 -2.1875 C 8.722656 -1.457031 8.234375 -0.890625 7.578125 -0.484375 C 6.929688 -0.078125 6.132812 0.125 5.1875 0.125 C 4.207031 0.125 3.390625 -0.078125 2.734375 -0.484375 C 2.085938 -0.890625 1.601562 -1.457031 1.28125 -2.1875 C 0.96875 -2.925781 0.8125 -3.785156 0.8125 -4.765625 C 0.8125 -5.722656 0.96875 -6.566406 1.28125 -7.296875 C 1.601562 -8.023438 2.085938 -8.59375 2.734375 -9 C 3.390625 -9.414062 4.210938 -9.625 5.203125 -9.625 C 6.148438 -9.625 6.945312 -9.421875 7.59375 -9.015625 C 8.238281 -8.609375 8.722656 -8.039062 9.046875 -7.3125 C 9.378906 -6.582031 9.546875 -5.726562 9.546875 -4.75 Z M 2.0625 -4.75 C 2.0625 -3.550781 2.3125 -2.609375 2.8125 -1.921875 C 3.320312 -1.242188 4.113281 -0.90625 5.1875 -0.90625 C 6.257812 -0.90625 7.046875 -1.242188 7.546875 -1.921875 C 8.046875 -2.609375 8.296875 -3.550781 8.296875 -4.75 C 8.296875 -5.945312 8.046875 -6.878906 7.546875 -7.546875 C 7.054688 -8.222656 6.273438 -8.5625 5.203125 -8.5625 C 4.117188 -8.5625 3.320312 -8.222656 2.8125 -7.546875 C 2.3125 -6.878906 2.0625 -5.945312 2.0625 -4.75 Z M 2.0625 -4.75 "/></g></g></g><g fill="#dcd7c9" fill-opacity="1"><g transform="translate(76.132348, 214.537884)"><g><path d="M 7.953125 -9.46875 L 4.578125 0 L 3.375 0 L 0 -9.46875 L 1.25 -9.46875 L 3.375 -3.390625 C 3.519531 -3.003906 3.640625 -2.640625 3.734375 -2.296875 C 3.828125 -1.960938 3.910156 -1.640625 3.984375 -1.328125 C 4.046875 -1.640625 4.125 -1.96875 4.21875 -2.3125 C 4.3125 -2.65625 4.429688 -3.023438 4.578125 -3.421875 L 6.703125 -9.46875 Z M 7.953125 -9.46875 "/></g></g></g><g fill="#dcd7c9" fill-opacity="1"><g transform="translate(88.409215, 214.537884)"><g><path d="M 7.234375 0 L 6.09375 -2.9375 L 2.328125 -2.9375 L 1.203125 0 L 0 0 L 3.703125 -9.515625 L 4.78125 -9.515625 L 8.46875 0 Z M 5.734375 -4 L 4.671875 -6.859375 C 4.640625 -6.929688 4.59375 -7.054688 4.53125 -7.234375 C 4.46875 -7.421875 4.40625 -7.613281 4.34375 -7.8125 C 4.289062 -8.019531 4.25 -8.175781 4.21875 -8.28125 C 4.144531 -8 4.070312 -7.726562 4 -7.46875 C 3.925781 -7.207031 3.863281 -7.003906 3.8125 -6.859375 L 2.734375 -4 Z M 5.734375 -4 "/></g></g></g><g fill="#dcd7c9" fill-opacity="1"><g transform="translate(101.203573, 214.537884)"><g/></g></g><g fill="#dcd7c9" fill-opacity="1"><g transform="translate(107.907346, 214.537884)"><g><path d="M 8.875 -4.828125 C 8.875 -3.222656 8.4375 -2.015625 7.5625 -1.203125 C 6.695312 -0.398438 5.484375 0 3.921875 0 L 1.28125 0 L 1.28125 -9.46875 L 4.203125 -9.46875 C 5.148438 -9.46875 5.972656 -9.289062 6.671875 -8.9375 C 7.378906 -8.582031 7.921875 -8.0625 8.296875 -7.375 C 8.679688 -6.6875 8.875 -5.835938 8.875 -4.828125 Z M 7.609375 -4.78125 C 7.609375 -6.050781 7.296875 -6.976562 6.671875 -7.5625 C 6.054688 -8.15625 5.175781 -8.453125 4.03125 -8.453125 L 2.484375 -8.453125 L 2.484375 -1.015625 L 3.765625 -1.015625 C 6.328125 -1.015625 7.609375 -2.269531 7.609375 -4.78125 Z M 7.609375 -4.78125 "/></g></g></g><g fill="#dcd7c9" fill-opacity="1"><g transform="translate(121.909213, 214.537884)"><g><path d="M 3.953125 0 L 0.53125 0 L 0.53125 -0.6875 L 1.640625 -0.9375 L 1.640625 -8.515625 L 0.53125 -8.78125 L 0.53125 -9.46875 L 3.953125 -9.46875 L 3.953125 -8.78125 L 2.84375 -8.515625 L 2.84375 -0.9375 L 3.953125 -0.6875 Z M 3.953125 0 "/></g></g></g><g fill="#dcd7c9" fill-opacity="1"><g transform="translate(130.722795, 214.537884)"><g><path d="M 6.65625 -2.53125 C 6.65625 -1.695312 6.347656 -1.046875 5.734375 -0.578125 C 5.128906 -0.109375 4.3125 0.125 3.28125 0.125 C 2.75 0.125 2.253906 0.0820312 1.796875 0 C 1.347656 -0.0703125 0.972656 -0.175781 0.671875 -0.3125 L 0.671875 -1.453125 C 0.992188 -1.316406 1.390625 -1.191406 1.859375 -1.078125 C 2.335938 -0.960938 2.828125 -0.90625 3.328125 -0.90625 C 4.023438 -0.90625 4.554688 -1.039062 4.921875 -1.3125 C 5.285156 -1.582031 5.46875 -1.953125 5.46875 -2.421875 C 5.46875 -2.734375 5.398438 -2.992188 5.265625 -3.203125 C 5.128906 -3.421875 4.894531 -3.617188 4.5625 -3.796875 C 4.238281 -3.972656 3.796875 -4.164062 3.234375 -4.375 C 2.421875 -4.664062 1.8125 -5.023438 1.40625 -5.453125 C 1 -5.878906 0.796875 -6.457031 0.796875 -7.1875 C 0.796875 -7.6875 0.921875 -8.113281 1.171875 -8.46875 C 1.429688 -8.832031 1.785156 -9.113281 2.234375 -9.3125 C 2.691406 -9.507812 3.222656 -9.609375 3.828125 -9.609375 C 4.335938 -9.609375 4.804688 -9.554688 5.234375 -9.453125 C 5.671875 -9.359375 6.070312 -9.234375 6.4375 -9.078125 L 6.0625 -8.046875 C 5.738281 -8.191406 5.378906 -8.3125 4.984375 -8.40625 C 4.597656 -8.507812 4.203125 -8.5625 3.796875 -8.5625 C 3.203125 -8.5625 2.753906 -8.429688 2.453125 -8.171875 C 2.148438 -7.921875 2 -7.585938 2 -7.171875 C 2 -6.859375 2.066406 -6.59375 2.203125 -6.375 C 2.335938 -6.164062 2.550781 -5.972656 2.84375 -5.796875 C 3.144531 -5.628906 3.554688 -5.453125 4.078125 -5.265625 C 4.628906 -5.066406 5.097656 -4.847656 5.484375 -4.609375 C 5.867188 -4.378906 6.160156 -4.097656 6.359375 -3.765625 C 6.554688 -3.441406 6.65625 -3.03125 6.65625 -2.53125 Z M 6.65625 -2.53125 "/></g></g></g><g fill="#dcd7c9" fill-opacity="1"><g transform="translate(142.322917, 214.537884)"><g><path d="M 6.65625 -2.53125 C 6.65625 -1.695312 6.347656 -1.046875 5.734375 -0.578125 C 5.128906 -0.109375 4.3125 0.125 3.28125 0.125 C 2.75 0.125 2.253906 0.0820312 1.796875 0 C 1.347656 -0.0703125 0.972656 -0.175781 0.671875 -0.3125 L 0.671875 -1.453125 C 0.992188 -1.316406 1.390625 -1.191406 1.859375 -1.078125 C 2.335938 -0.960938 2.828125 -0.90625 3.328125 -0.90625 C 4.023438 -0.90625 4.554688 -1.039062 4.921875 -1.3125 C 5.285156 -1.582031 5.46875 -1.953125 5.46875 -2.421875 C 5.46875 -2.734375 5.398438 -2.992188 5.265625 -3.203125 C 5.128906 -3.421875 4.894531 -3.617188 4.5625 -3.796875 C 4.238281 -3.972656 3.796875 -4.164062 3.234375 -4.375 C 2.421875 -4.664062 1.8125 -5.023438 1.40625 -5.453125 C 1 -5.878906 0.796875 -6.457031 0.796875 -7.1875 C 0.796875 -7.6875 0.921875 -8.113281 1.171875 -8.46875 C 1.429688 -8.832031 1.785156 -9.113281 2.234375 -9.3125 C 2.691406 -9.507812 3.222656 -9.609375 3.828125 -9.609375 C 4.335938 -9.609375 4.804688 -9.554688 5.234375 -9.453125 C 5.671875 -9.359375 6.070312 -9.234375 6.4375 -9.078125 L 6.0625 -8.046875 C 5.738281 -8.191406 5.378906 -8.3125 4.984375 -8.40625 C 4.597656 -8.507812 4.203125 -8.5625 3.796875 -8.5625 C 3.203125 -8.5625 2.753906 -8.429688 2.453125 -8.171875 C 2.148438 -7.921875 2 -7.585938 2 -7.171875 C 2 -6.859375 2.066406 -6.59375 2.203125 -6.375 C 2.335938 -6.164062 2.550781 -5.972656 2.84375 -5.796875 C 3.144531 -5.628906 3.554688 -5.453125 4.078125 -5.265625 C 4.628906 -5.066406 5.097656 -4.847656 5.484375 -4.609375 C 5.867188 -4.378906 6.160156 -4.097656 6.359375 -3.765625 C 6.554688 -3.441406 6.65625 -3.03125 6.65625 -2.53125 Z M 6.65625 -2.53125 "/></g></g></g><g fill="#dcd7c9" fill-opacity="1"><g transform="translate(153.923039, 214.537884)"><g><path d="M 6.578125 0 L 1.28125 0 L 1.28125 -9.46875 L 6.578125 -9.46875 L 6.578125 -8.421875 L 2.484375 -8.421875 L 2.484375 -5.46875 L 6.34375 -5.46875 L 6.34375 -4.4375 L 2.484375 -4.4375 L 2.484375 -1.046875 L 6.578125 -1.046875 Z M 6.578125 0 "/></g></g></g><g fill="#dcd7c9" fill-opacity="1"><g transform="translate(165.616048, 214.537884)"><g><path d="M 3.90625 -9.46875 C 5.082031 -9.46875 5.945312 -9.242188 6.5 -8.796875 C 7.0625 -8.347656 7.34375 -7.675781 7.34375 -6.78125 C 7.34375 -6.269531 7.25 -5.847656 7.0625 -5.515625 C 6.882812 -5.179688 6.648438 -4.910156 6.359375 -4.703125 C 6.078125 -4.503906 5.773438 -4.351562 5.453125 -4.25 L 8.046875 0 L 6.65625 0 L 4.359375 -3.90625 L 2.484375 -3.90625 L 2.484375 0 L 1.28125 0 L 1.28125 -9.46875 Z M 3.828125 -8.4375 L 2.484375 -8.4375 L 2.484375 -4.921875 L 3.90625 -4.921875 C 4.664062 -4.921875 5.222656 -5.070312 5.578125 -5.375 C 5.929688 -5.6875 6.109375 -6.132812 6.109375 -6.71875 C 6.109375 -7.34375 5.921875 -7.785156 5.546875 -8.046875 C 5.179688 -8.304688 4.609375 -8.4375 3.828125 -8.4375 Z M 3.828125 -8.4375 "/></g></g></g><g fill="#dcd7c9" fill-opacity="1"><g transform="translate(178.184838, 214.537884)"><g><path d="M 4.28125 0 L 3.09375 0 L 3.09375 -8.421875 L 0.125 -8.421875 L 0.125 -9.46875 L 7.234375 -9.46875 L 7.234375 -8.421875 L 4.28125 -8.421875 Z M 4.28125 0 "/></g></g></g><g fill="#dcd7c9" fill-opacity="1"><g transform="translate(189.877847, 214.537884)"><g><path d="M 7.234375 0 L 6.09375 -2.9375 L 2.328125 -2.9375 L 1.203125 0 L 0 0 L 3.703125 -9.515625 L 4.78125 -9.515625 L 8.46875 0 Z M 5.734375 -4 L 4.671875 -6.859375 C 4.640625 -6.929688 4.59375 -7.054688 4.53125 -7.234375 C 4.46875 -7.421875 4.40625 -7.613281 4.34375 -7.8125 C 4.289062 -8.019531 4.25 -8.175781 4.21875 -8.28125 C 4.144531 -8 4.070312 -7.726562 4 -7.46875 C 3.925781 -7.207031 3.863281 -7.003906 3.8125 -6.859375 L 2.734375 -4 Z M 5.734375 -4 "/></g></g></g><g fill="#dcd7c9" fill-opacity="1"><g transform="translate(202.672205, 214.537884)"><g><path d="M 4.28125 0 L 3.09375 0 L 3.09375 -8.421875 L 0.125 -8.421875 L 0.125 -9.46875 L 7.234375 -9.46875 L 7.234375 -8.421875 L 4.28125 -8.421875 Z M 4.28125 0 "/></g></g></g><g fill="#dcd7c9" fill-opacity="1"><g transform="translate(214.365215, 214.537884)"><g><path d="M 3.953125 0 L 0.53125 0 L 0.53125 -0.6875 L 1.640625 -0.9375 L 1.640625 -8.515625 L 0.53125 -8.78125 L 0.53125 -9.46875 L 3.953125 -9.46875 L 3.953125 -8.78125 L 2.84375 -8.515625 L 2.84375 -0.9375 L 3.953125 -0.6875 Z M 3.953125 0 "/></g></g></g><g fill="#dcd7c9" fill-opacity="1"><g transform="translate(223.178797, 214.537884)"><g><path d="M 7.953125 -9.46875 L 4.578125 0 L 3.375 0 L 0 -9.46875 L 1.25 -9.46875 L 3.375 -3.390625 C 3.519531 -3.003906 3.640625 -2.640625 3.734375 -2.296875 C 3.828125 -1.960938 3.910156 -1.640625 3.984375 -1.328125 C 4.046875 -1.640625 4.125 -1.96875 4.21875 -2.3125 C 4.3125 -2.65625 4.429688 -3.023438 4.578125 -3.421875 L 6.703125 -9.46875 Z M 7.953125 -9.46875 "/></g></g></g><g fill="#dcd7c9" fill-opacity="1"><g transform="translate(235.455664, 214.537884)"><g><path d="M 7.234375 0 L 6.09375 -2.9375 L 2.328125 -2.9375 L 1.203125 0 L 0 0 L 3.703125 -9.515625 L 4.78125 -9.515625 L 8.46875 0 Z M 5.734375 -4 L 4.671875 -6.859375 C 4.640625 -6.929688 4.59375 -7.054688 4.53125 -7.234375 C 4.46875 -7.421875 4.40625 -7.613281 4.34375 -7.8125 C 4.289062 -8.019531 4.25 -8.175781 4.21875 -8.28125 C 4.144531 -8 4.070312 -7.726562 4 -7.46875 C 3.925781 -7.207031 3.863281 -7.003906 3.8125 -6.859375 L 2.734375 -4 Z M 5.734375 -4 "/></g></g></g><g fill="#dcd7c9" fill-opacity="1"><g transform="translate(62.846087, 273.326841)"><g><path d="M 4.453125 -16.171875 C 5.734375 -16.171875 6.660156 -15.820312 7.234375 -15.125 C 7.804688 -14.425781 8.09375 -13.457031 8.09375 -12.21875 L 8.09375 -10.28125 C 8.09375 -8.988281 7.785156 -8.015625 7.171875 -7.359375 C 6.566406 -6.703125 5.617188 -6.375 4.328125 -6.375 L 2.734375 -6.375 L 2.734375 0 L 0.921875 0 L 0.921875 -16.171875 Z M 4.328125 -8 C 5.003906 -8 5.503906 -8.160156 5.828125 -8.484375 C 6.148438 -8.816406 6.3125 -9.378906 6.3125 -10.171875 L 6.3125 -12.3125 C 6.3125 -13.050781 6.164062 -13.601562 5.875 -13.96875 C 5.59375 -14.34375 5.117188 -14.53125 4.453125 -14.53125 L 2.734375 -14.53125 L 2.734375 -8 Z M 4.328125 -8 "/></g></g></g><g fill="#dcd7c9" fill-opacity="1"><g transform="translate(78.997472, 273.326841)"><g><path d="M 2.75 -3.265625 L 2.125 0 L 0.46875 0 L 3.5625 -16.171875 L 6.171875 -16.171875 L 9.265625 0 L 7.46875 0 L 6.84375 -3.265625 Z M 2.984375 -4.8125 L 6.59375 -4.8125 L 4.765625 -14.140625 Z M 2.984375 -4.8125 "/></g></g></g><g fill="#dcd7c9" fill-opacity="1"><g transform="translate(96.257706, 273.326841)"><g><path d="M 2.640625 -3.8125 C 2.640625 -3.070312 2.785156 -2.5 3.078125 -2.09375 C 3.378906 -1.6875 3.863281 -1.484375 4.53125 -1.484375 C 5.175781 -1.484375 5.648438 -1.6875 5.953125 -2.09375 C 6.253906 -2.5 6.40625 -3.070312 6.40625 -3.8125 L 6.40625 -16.171875 L 8.09375 -16.171875 L 8.09375 -3.90625 C 8.09375 -2.675781 7.796875 -1.6875 7.203125 -0.9375 C 6.617188 -0.1875 5.703125 0.1875 4.453125 0.1875 C 3.222656 0.1875 2.316406 -0.1875 1.734375 -0.9375 C 1.148438 -1.6875 0.859375 -2.675781 0.859375 -3.90625 L 0.859375 -16.171875 L 2.640625 -16.171875 Z M 2.640625 -3.8125 "/></g></g></g><g fill="#dcd7c9" fill-opacity="1"><g transform="translate(112.709403, 273.326841)"><g><path d="M 0.921875 0 L 0.921875 -16.171875 L 2.734375 -16.171875 L 2.734375 -1.640625 L 7.34375 -1.640625 L 7.34375 0 Z M 0.921875 0 "/></g></g></g><g fill="#dcd7c9" fill-opacity="1"><g transform="translate(128.006065, 273.326841)"><g/></g></g><g fill="#dcd7c9" fill-opacity="1"><g transform="translate(139.098361, 273.326841)"><g><path d="M 4.328125 -16.34375 C 5.554688 -16.34375 6.460938 -15.972656 7.046875 -15.234375 C 7.628906 -14.503906 7.921875 -13.523438 7.921875 -12.296875 L 7.921875 -11.859375 L 6.21875 -11.859375 L 6.21875 -12.390625 C 6.21875 -13.128906 6.070312 -13.695312 5.78125 -14.09375 C 5.488281 -14.5 5.019531 -14.703125 4.375 -14.703125 C 3.71875 -14.703125 3.242188 -14.5 2.953125 -14.09375 C 2.660156 -13.695312 2.515625 -13.132812 2.515625 -12.40625 C 2.515625 -11.8125 2.648438 -11.289062 2.921875 -10.84375 C 3.191406 -10.394531 3.523438 -9.976562 3.921875 -9.59375 C 4.328125 -9.21875 4.765625 -8.847656 5.234375 -8.484375 C 5.703125 -8.128906 6.132812 -7.734375 6.53125 -7.296875 C 6.9375 -6.867188 7.273438 -6.378906 7.546875 -5.828125 C 7.816406 -5.285156 7.953125 -4.632812 7.953125 -3.875 C 7.953125 -2.644531 7.65625 -1.664062 7.0625 -0.9375 C 6.46875 -0.207031 5.546875 0.15625 4.296875 0.15625 C 3.046875 0.15625 2.128906 -0.207031 1.546875 -0.9375 C 0.960938 -1.664062 0.671875 -2.644531 0.671875 -3.875 L 0.671875 -4.8125 L 2.359375 -4.8125 L 2.359375 -3.796875 C 2.359375 -3.054688 2.507812 -2.484375 2.8125 -2.078125 C 3.125 -1.679688 3.601562 -1.484375 4.25 -1.484375 C 4.894531 -1.484375 5.367188 -1.679688 5.671875 -2.078125 C 5.984375 -2.484375 6.140625 -3.054688 6.140625 -3.796875 C 6.140625 -4.390625 6.003906 -4.90625 5.734375 -5.34375 C 5.472656 -5.789062 5.140625 -6.203125 4.734375 -6.578125 C 4.335938 -6.953125 3.90625 -7.320312 3.4375 -7.6875 C 2.976562 -8.050781 2.546875 -8.445312 2.140625 -8.875 C 1.742188 -9.300781 1.410156 -9.785156 1.140625 -10.328125 C 0.867188 -10.878906 0.734375 -11.535156 0.734375 -12.296875 C 0.734375 -13.546875 1.023438 -14.53125 1.609375 -15.25 C 2.203125 -15.976562 3.109375 -16.34375 4.328125 -16.34375 Z M 4.328125 -16.34375 "/></g></g></g><g fill="#dcd7c9" fill-opacity="1"><g transform="translate(155.203551, 273.326841)"><g><path d="M 3.796875 -5.796875 L 0.375 -16.171875 L 2.234375 -16.171875 L 4.765625 -8.234375 L 7.296875 -16.171875 L 9.015625 -16.171875 L 5.5625 -5.796875 L 5.5625 0 L 3.796875 0 Z M 3.796875 -5.796875 "/></g></g></g><g fill="#dcd7c9" fill-opacity="1"><g transform="translate(172.094161, 273.326841)"><g><path d="M 6.890625 -0.015625 L 5.15625 -0.015625 L 2.46875 -12.890625 L 2.46875 0 L 0.90625 0 L 0.90625 -16.171875 L 3.421875 -16.171875 L 6.078125 -3.265625 L 8.640625 -16.171875 L 11.15625 -16.171875 L 11.15625 0 L 9.453125 0 L 9.453125 -13.015625 Z M 6.890625 -0.015625 "/></g></g></g><g fill="#dcd7c9" fill-opacity="1"><g transform="translate(191.687584, 273.326841)"><g><path d="M 0.78125 -12.265625 C 0.78125 -13.515625 1.082031 -14.503906 1.6875 -15.234375 C 2.300781 -15.972656 3.234375 -16.34375 4.484375 -16.34375 C 5.734375 -16.34375 6.664062 -15.972656 7.28125 -15.234375 C 7.894531 -14.503906 8.203125 -13.515625 8.203125 -12.265625 L 8.203125 -3.90625 C 8.203125 -2.675781 7.894531 -1.691406 7.28125 -0.953125 C 6.664062 -0.210938 5.734375 0.15625 4.484375 0.15625 C 3.234375 0.15625 2.300781 -0.210938 1.6875 -0.953125 C 1.082031 -1.691406 0.78125 -2.675781 0.78125 -3.90625 Z M 2.5625 -3.8125 C 2.5625 -3.070312 2.71875 -2.5 3.03125 -2.09375 C 3.351562 -1.6875 3.835938 -1.484375 4.484375 -1.484375 C 5.148438 -1.484375 5.632812 -1.6875 5.9375 -2.09375 C 6.25 -2.5 6.40625 -3.070312 6.40625 -3.8125 L 6.40625 -12.359375 C 6.40625 -13.097656 6.25 -13.671875 5.9375 -14.078125 C 5.632812 -14.492188 5.148438 -14.703125 4.484375 -14.703125 C 3.835938 -14.703125 3.351562 -14.492188 3.03125 -14.078125 C 2.71875 -13.671875 2.5625 -13.097656 2.5625 -12.359375 Z M 2.5625 -3.8125 "/></g></g></g><g fill="#dcd7c9" fill-opacity="1"><g transform="translate(208.185487, 273.326841)"><g><path d="M 2.515625 0 L 0.90625 0 L 0.90625 -16.171875 L 3.1875 -16.171875 L 6.9375 -4.484375 L 6.9375 -16.171875 L 8.53125 -16.171875 L 8.53125 0 L 6.65625 0 L 2.515625 -13.078125 Z M 2.515625 0 "/></g></g></g></svg>