<svg xmlns="http://www.w3.org/2000/svg" xmlns:xlink="http://www.w3.org/1999/xlink" width="1440" zoomAndPan="magnify" viewBox="0 0 1080 419.999985" height="560" preserveAspectRatio="xMidYMid meet" version="1.0"><defs><g/></defs><rect x="-108" width="1296" fill="#ffffff" y="-41.999998" height="503.999982" fill-opacity="1"/><rect x="-108" width="1296" fill="#3f4e4f" y="-41.999998" height="503.999982" fill-opacity="1"/><g fill="#dcd7c9" fill-opacity="1"><g transform="translate(242.93455, 156.37625)"><g><path d="M 1.4375 -58.078125 L 1.4375 -71.171875 L 39.9375 -71.171875 L 39.9375 -58.078125 L 28.375 -58.078125 L 28.375 0 L 12.984375 0 L 12.984375 -58.078125 Z M 1.4375 -58.078125 "/></g></g></g><g fill="#dcd7c9" fill-opacity="1"><g transform="translate(284.395963, 156.37625)"><g><path d="M 20.90625 -12.765625 L 37.953125 -12.765625 L 37.953125 0 L 5.5 0 L 5.5 -71.171875 L 37.953125 -71.171875 L 37.953125 -58.625 L 20.90625 -58.625 L 20.90625 -41.90625 L 36.84375 -41.90625 L 36.84375 -29.8125 L 20.90625 -29.8125 Z M 37.40625 -88 L 22.984375 -76.78125 L 12.09375 -76.78125 L 21.234375 -88 Z M 37.40625 -88 "/></g></g></g><g fill="#dcd7c9" fill-opacity="1"><g transform="translate(325.747415, 156.37625)"><g><path d="M 32.015625 -11.65625 L 32.015625 -22.65625 L 46.640625 -22.65625 L 46.640625 -13.421875 C 46.640625 -3.742188 42.09375 1.09375 33 1.09375 L 19.140625 1.09375 C 10.046875 1.09375 5.5 -3.742188 5.5 -13.421875 L 5.5 -57.75 C 5.5 -67.425781 10.046875 -72.265625 19.140625 -72.265625 L 33 -72.265625 C 42.09375 -72.265625 46.640625 -67.425781 46.640625 -57.75 L 46.640625 -51.046875 L 32.015625 -51.046875 L 32.015625 -59.625 C 32.015625 -60.207031 31.8125 -60.71875 31.40625 -61.15625 C 31 -61.59375 30.503906 -61.8125 29.921875 -61.8125 L 22.984375 -61.8125 C 22.398438 -61.8125 21.90625 -61.59375 21.5 -61.15625 C 21.101562 -60.71875 20.90625 -60.207031 20.90625 -59.625 L 20.90625 -11.65625 C 20.90625 -11.070312 21.101562 -10.554688 21.5 -10.109375 C 21.90625 -9.671875 22.398438 -9.453125 22.984375 -9.453125 L 29.921875 -9.453125 C 30.503906 -9.453125 31 -9.671875 31.40625 -10.109375 C 31.8125 -10.554688 32.015625 -11.070312 32.015625 -11.65625 Z M 32.015625 -11.65625 "/></g></g></g><g fill="#dcd7c9" fill-opacity="1"><g transform="translate(376.116998, 156.37625)"><g><path d="M 46.3125 0 L 30.90625 0 L 30.90625 -59.0625 C 30.90625 -59.65625 30.703125 -60.171875 30.296875 -60.609375 C 29.898438 -61.046875 29.40625 -61.265625 28.8125 -61.265625 L 22.875 -61.265625 C 22.289062 -61.265625 21.796875 -61.046875 21.390625 -60.609375 C 20.992188 -60.171875 20.796875 -59.65625 20.796875 -59.0625 L 20.796875 0 L 5.390625 0 L 5.390625 -57.75 C 5.390625 -67.425781 9.9375 -72.265625 19.03125 -72.265625 L 32.671875 -72.265625 C 41.765625 -72.265625 46.3125 -67.425781 46.3125 -57.75 Z M 46.3125 0 "/></g></g></g><g fill="#dcd7c9" fill-opacity="1"><g transform="translate(427.256405, 156.37625)"><g><path d="M 20.90625 -71.171875 L 20.90625 0 L 5.5 0 L 5.5 -71.171875 Z M 20.90625 -71.171875 "/></g></g></g><g fill="#dcd7c9" fill-opacity="1"><g transform="translate(454.090853, 156.37625)"><g><path d="M 32.015625 -11.65625 L 32.015625 -22.65625 L 46.640625 -22.65625 L 46.640625 -13.421875 C 46.640625 -3.742188 42.09375 1.09375 33 1.09375 L 19.140625 1.09375 C 10.046875 1.09375 5.5 -3.742188 5.5 -13.421875 L 5.5 -57.75 C 5.5 -67.425781 10.046875 -72.265625 19.140625 -72.265625 L 33 -72.265625 C 42.09375 -72.265625 46.640625 -67.425781 46.640625 -57.75 L 46.640625 -51.046875 L 32.015625 -51.046875 L 32.015625 -59.625 C 32.015625 -60.207031 31.8125 -60.71875 31.40625 -61.15625 C 31 -61.59375 30.503906 -61.8125 29.921875 -61.8125 L 22.984375 -61.8125 C 22.398438 -61.8125 21.90625 -61.59375 21.5 -61.15625 C 21.101562 -60.71875 20.90625 -60.207031 20.90625 -59.625 L 20.90625 -11.65625 C 20.90625 -11.070312 21.101562 -10.554688 21.5 -10.109375 C 21.90625 -9.671875 22.398438 -9.453125 22.984375 -9.453125 L 29.921875 -9.453125 C 30.503906 -9.453125 31 -9.671875 31.40625 -10.109375 C 31.8125 -10.554688 32.015625 -11.070312 32.015625 -11.65625 Z M 32.015625 -11.65625 "/></g></g></g><g fill="#dcd7c9" fill-opacity="1"><g transform="translate(504.460436, 156.37625)"><g><path d="M 33.765625 -72.265625 C 42.859375 -72.265625 47.40625 -67.425781 47.40625 -57.75 L 47.40625 0 L 32.015625 0 L 32.015625 -23.875 L 20.90625 -23.875 L 20.90625 0 L 5.5 0 L 5.5 -57.75 C 5.5 -67.425781 10.046875 -72.265625 19.140625 -72.265625 Z M 20.90625 -35.75 L 32.015625 -35.75 L 32.015625 -59.625 C 32.015625 -60.207031 31.8125 -60.71875 31.40625 -61.15625 C 31 -61.59375 30.503906 -61.8125 29.921875 -61.8125 L 22.984375 -61.8125 C 22.398438 -61.8125 21.90625 -61.59375 21.5 -61.15625 C 21.101562 -60.71875 20.90625 -60.207031 20.90625 -59.625 Z M 20.90625 -35.75 "/></g></g></g><g fill="#dcd7c9" fill-opacity="1"><g transform="translate(557.799402, 156.37625)"><g><path d="M 44.984375 -52.46875 L 30.359375 -52.46875 L 30.359375 -58.078125 C 30.359375 -58.660156 30.15625 -59.171875 29.75 -59.609375 C 29.351562 -60.054688 28.859375 -60.28125 28.265625 -60.28125 L 22.21875 -60.28125 C 21.632812 -60.28125 21.140625 -60.054688 20.734375 -59.609375 C 20.328125 -59.171875 20.125 -58.660156 20.125 -58.078125 L 20.125 -45.4375 C 20.125 -44.84375 20.328125 -44.328125 20.734375 -43.890625 C 21.140625 -43.453125 21.632812 -43.234375 22.21875 -43.234375 L 32.125 -43.234375 C 41.21875 -43.085938 45.765625 -38.242188 45.765625 -28.703125 L 45.765625 -13.421875 C 45.765625 -3.742188 41.21875 1.09375 32.125 1.09375 L 19.140625 1.09375 C 10.046875 1.09375 5.5 -3.742188 5.5 -13.421875 L 5.5 -20.796875 L 20.125 -20.796875 L 20.125 -12.875 C 20.125 -12.28125 20.328125 -11.765625 20.734375 -11.328125 C 21.140625 -10.890625 21.632812 -10.671875 22.21875 -10.671875 L 29.046875 -10.671875 C 29.628906 -10.671875 30.117188 -10.890625 30.515625 -11.328125 C 30.921875 -11.765625 31.125 -12.28125 31.125 -12.875 L 31.125 -26.84375 C 31.125 -27.425781 30.921875 -27.9375 30.515625 -28.375 C 30.117188 -28.820312 29.628906 -29.046875 29.046875 -29.046875 L 19.140625 -29.046875 C 10.046875 -29.046875 5.5 -33.882812 5.5 -43.5625 L 5.5 -57.75 C 5.5 -67.425781 10.046875 -72.265625 19.140625 -72.265625 L 31.34375 -72.265625 C 40.4375 -72.265625 44.984375 -67.425781 44.984375 -57.75 Z M 44.984375 -52.46875 "/></g></g></g><g fill="#dcd7c9" fill-opacity="1"><g transform="translate(608.168985, 156.37625)"><g/></g></g><g fill="#dcd7c9" fill-opacity="1"><g transform="translate(630.384394, 156.37625)"><g><path d="M 33.21875 -71.171875 C 42.3125 -71.171875 46.859375 -66.332031 46.859375 -56.65625 L 46.859375 -42.453125 C 46.859375 -32.773438 42.3125 -27.9375 33.21875 -27.9375 L 20.796875 -27.9375 L 20.796875 0 L 5.390625 0 L 5.390625 -71.171875 Z M 31.453125 -40.703125 L 31.453125 -58.40625 C 31.453125 -59 31.25 -59.515625 30.84375 -59.953125 C 30.445312 -60.390625 29.957031 -60.609375 29.375 -60.609375 L 20.796875 -60.609375 L 20.796875 -38.5 L 29.375 -38.5 C 29.957031 -38.5 30.445312 -38.71875 30.84375 -39.15625 C 31.25 -39.59375 31.453125 -40.109375 31.453125 -40.703125 Z M 31.453125 -40.703125 "/></g></g></g><g fill="#dcd7c9" fill-opacity="1"><g transform="translate(679.434253, 156.37625)"><g><path d="M 33.765625 -72.265625 C 42.859375 -72.265625 47.40625 -67.425781 47.40625 -57.75 L 47.40625 0 L 32.015625 0 L 32.015625 -23.875 L 20.90625 -23.875 L 20.90625 0 L 5.5 0 L 5.5 -57.75 C 5.5 -67.425781 10.046875 -72.265625 19.140625 -72.265625 Z M 20.90625 -35.75 L 32.015625 -35.75 L 32.015625 -59.625 C 32.015625 -60.207031 31.8125 -60.71875 31.40625 -61.15625 C 31 -61.59375 30.503906 -61.8125 29.921875 -61.8125 L 22.984375 -61.8125 C 22.398438 -61.8125 21.90625 -61.59375 21.5 -61.15625 C 21.101562 -60.71875 20.90625 -60.207031 20.90625 -59.625 Z M 20.90625 -35.75 "/></g></g></g><g fill="#dcd7c9" fill-opacity="1"><g transform="translate(732.773218, 156.37625)"><g><path d="M 20.90625 -29.15625 L 20.90625 0 L 5.5 0 L 5.5 -71.171875 L 32.890625 -71.171875 C 41.984375 -71.171875 46.53125 -66.332031 46.53125 -56.65625 L 46.53125 -48.40625 C 46.53125 -42.53125 44.441406 -38.789062 40.265625 -37.1875 C 43.929688 -35.863281 45.765625 -32.851562 45.765625 -28.15625 L 45.765625 0 L 30.359375 0 L 30.359375 -26.953125 C 30.359375 -28.421875 29.660156 -29.15625 28.265625 -29.15625 Z M 20.90625 -60.71875 L 20.90625 -39.9375 L 29.046875 -39.9375 C 29.628906 -39.9375 30.117188 -40.15625 30.515625 -40.59375 C 30.921875 -41.03125 31.125 -41.539062 31.125 -42.125 L 31.125 -58.515625 C 31.125 -59.109375 30.921875 -59.625 30.515625 -60.0625 C 30.117188 -60.5 29.628906 -60.71875 29.046875 -60.71875 Z M 20.90625 -60.71875 "/></g></g></g><g fill="#dcd7c9" fill-opacity="1"><g transform="translate(783.692655, 156.37625)"><g><path d="M 33.765625 -72.265625 C 42.859375 -72.265625 47.40625 -67.425781 47.40625 -57.75 L 47.40625 0 L 32.015625 0 L 32.015625 -23.875 L 20.90625 -23.875 L 20.90625 0 L 5.5 0 L 5.5 -57.75 C 5.5 -67.425781 10.046875 -72.265625 19.140625 -72.265625 Z M 20.90625 -35.75 L 32.015625 -35.75 L 32.015625 -59.625 C 32.015625 -60.207031 31.8125 -60.71875 31.40625 -61.15625 C 31 -61.59375 30.503906 -61.8125 29.921875 -61.8125 L 22.984375 -61.8125 C 22.398438 -61.8125 21.90625 -61.59375 21.5 -61.15625 C 21.101562 -60.71875 20.90625 -60.207031 20.90625 -59.625 Z M 20.90625 -35.75 "/></g></g></g><g fill="#dcd7c9" fill-opacity="1"><g transform="translate(363.703412, 226.80449)"><g><path d="M 25.4375 -54.453125 C 32.289062 -54.453125 35.71875 -50.804688 35.71875 -43.515625 L 35.71875 0 L 24.109375 0 L 24.109375 -17.984375 L 15.75 -17.984375 L 15.75 0 L 4.140625 0 L 4.140625 -43.515625 C 4.140625 -50.804688 7.566406 -54.453125 14.421875 -54.453125 Z M 15.75 -26.9375 L 24.109375 -26.9375 L 24.109375 -44.921875 C 24.109375 -45.359375 23.957031 -45.742188 23.65625 -46.078125 C 23.351562 -46.410156 22.984375 -46.578125 22.546875 -46.578125 L 17.328125 -46.578125 C 16.878906 -46.578125 16.503906 -46.410156 16.203125 -46.078125 C 15.898438 -45.742188 15.75 -45.359375 15.75 -44.921875 Z M 15.75 -26.9375 "/></g></g></g><g fill="#dcd7c9" fill-opacity="1"><g transform="translate(403.891185, 226.80449)"><g><path d="M 25.03125 -53.625 C 31.882812 -53.625 35.3125 -49.976562 35.3125 -42.6875 L 35.3125 -31.984375 C 35.3125 -24.691406 31.882812 -21.046875 25.03125 -21.046875 L 15.65625 -21.046875 L 15.65625 0 L 4.0625 0 L 4.0625 -53.625 Z M 23.703125 -30.65625 L 23.703125 -44 C 23.703125 -44.445312 23.550781 -44.835938 23.25 -45.171875 C 22.945312 -45.503906 22.570312 -45.671875 22.125 -45.671875 L 15.65625 -45.671875 L 15.65625 -29 L 22.125 -29 C 22.570312 -29 22.945312 -29.164062 23.25 -29.5 C 23.550781 -29.832031 23.703125 -30.21875 23.703125 -30.65625 Z M 23.703125 -30.65625 "/></g></g></g><g fill="#dcd7c9" fill-opacity="1"><g transform="translate(440.84737, 226.80449)"><g><path d="M 15.75 -21.96875 L 15.75 0 L 4.140625 0 L 4.140625 -53.625 L 24.78125 -53.625 C 31.632812 -53.625 35.0625 -49.976562 35.0625 -42.6875 L 35.0625 -36.46875 C 35.0625 -32.039062 33.484375 -29.222656 30.328125 -28.015625 C 33.085938 -27.015625 34.46875 -24.75 34.46875 -21.21875 L 34.46875 0 L 22.875 0 L 22.875 -20.296875 C 22.875 -21.410156 22.347656 -21.96875 21.296875 -21.96875 Z M 15.75 -45.75 L 15.75 -30.078125 L 21.875 -30.078125 C 22.320312 -30.078125 22.695312 -30.242188 23 -30.578125 C 23.300781 -30.910156 23.453125 -31.296875 23.453125 -31.734375 L 23.453125 -44.09375 C 23.453125 -44.53125 23.300781 -44.914062 23 -45.25 C 22.695312 -45.582031 22.320312 -45.75 21.875 -45.75 Z M 15.75 -45.75 "/></g></g></g><g fill="#dcd7c9" fill-opacity="1"><g transform="translate(479.212195, 226.80449)"><g><path d="M 35.71875 -43.515625 L 35.71875 -10.109375 C 35.71875 -2.816406 32.289062 0.828125 25.4375 0.828125 L 14.421875 0.828125 C 7.566406 0.828125 4.140625 -2.816406 4.140625 -10.109375 L 4.140625 -43.515625 C 4.140625 -50.804688 7.566406 -54.453125 14.421875 -54.453125 L 25.4375 -54.453125 C 32.289062 -54.453125 35.71875 -50.804688 35.71875 -43.515625 Z M 24.109375 -8.78125 L 24.109375 -44.921875 C 24.109375 -45.359375 23.957031 -45.742188 23.65625 -46.078125 C 23.351562 -46.410156 22.984375 -46.578125 22.546875 -46.578125 L 17.328125 -46.578125 C 16.878906 -46.578125 16.503906 -46.410156 16.203125 -46.078125 C 15.898438 -45.742188 15.75 -45.359375 15.75 -44.921875 L 15.75 -8.78125 C 15.75 -8.34375 15.898438 -7.957031 16.203125 -7.625 C 16.503906 -7.289062 16.878906 -7.125 17.328125 -7.125 L 22.546875 -7.125 C 22.984375 -7.125 23.351562 -7.289062 23.65625 -7.625 C 23.957031 -7.957031 24.109375 -8.34375 24.109375 -8.78125 Z M 24.109375 -8.78125 "/></g></g></g><g fill="#dcd7c9" fill-opacity="1"><g transform="translate(519.31711, 226.80449)"><g><path d="M 25.78125 -53.625 L 36.96875 -53.625 L 25.859375 0 L 12.515625 0 L 1.40625 -53.625 L 12.6875 -53.625 L 19.234375 -14.5 Z M 25.78125 -53.625 "/></g></g></g><g fill="#dcd7c9" fill-opacity="1"><g transform="translate(557.847651, 226.80449)"><g><path d="M 25.4375 -54.453125 C 32.289062 -54.453125 35.71875 -50.804688 35.71875 -43.515625 L 35.71875 0 L 24.109375 0 L 24.109375 -17.984375 L 15.75 -17.984375 L 15.75 0 L 4.140625 0 L 4.140625 -43.515625 C 4.140625 -50.804688 7.566406 -54.453125 14.421875 -54.453125 Z M 15.75 -26.9375 L 24.109375 -26.9375 L 24.109375 -44.921875 C 24.109375 -45.359375 23.957031 -45.742188 23.65625 -46.078125 C 23.351562 -46.410156 22.984375 -46.578125 22.546875 -46.578125 L 17.328125 -46.578125 C 16.878906 -46.578125 16.503906 -46.410156 16.203125 -46.078125 C 15.898438 -45.742188 15.75 -45.359375 15.75 -44.921875 Z M 15.75 -26.9375 "/></g></g></g><g fill="#dcd7c9" fill-opacity="1"><g transform="translate(598.035425, 226.80449)"><g><path d="M 8.453125 8.78125 L 16.078125 0.828125 L 14.421875 0.828125 C 7.566406 0.828125 4.140625 -2.816406 4.140625 -10.109375 L 4.140625 -43.515625 C 4.140625 -50.804688 7.566406 -54.453125 14.421875 -54.453125 L 24.859375 -54.453125 C 31.710938 -54.453125 35.140625 -50.804688 35.140625 -43.515625 L 35.140625 -38.453125 L 24.109375 -38.453125 L 24.109375 -44.921875 C 24.109375 -45.359375 23.957031 -45.742188 23.65625 -46.078125 C 23.351562 -46.410156 22.984375 -46.578125 22.546875 -46.578125 L 17.328125 -46.578125 C 16.878906 -46.578125 16.503906 -46.410156 16.203125 -46.078125 C 15.898438 -45.742188 15.75 -45.359375 15.75 -44.921875 L 15.75 -8.78125 C 15.75 -8.34375 15.898438 -7.957031 16.203125 -7.625 C 16.503906 -7.289062 16.878906 -7.125 17.328125 -7.125 L 22.546875 -7.125 C 22.984375 -7.125 23.351562 -7.289062 23.65625 -7.625 C 23.957031 -7.957031 24.109375 -8.34375 24.109375 -8.78125 L 24.109375 -17.078125 L 35.140625 -17.078125 L 35.140625 -10.109375 C 35.140625 -2.816406 31.710938 0.828125 24.859375 0.828125 L 24.53125 0.828125 L 20.640625 8.78125 Z M 8.453125 8.78125 "/></g></g></g><g fill="#dcd7c9" fill-opacity="1"><g transform="translate(635.985942, 226.80449)"><g><path d="M 25.4375 -54.453125 C 32.289062 -54.453125 35.71875 -50.804688 35.71875 -43.515625 L 35.71875 0 L 24.109375 0 L 24.109375 -17.984375 L 15.75 -17.984375 L 15.75 0 L 4.140625 0 L 4.140625 -43.515625 C 4.140625 -50.804688 7.566406 -54.453125 14.421875 -54.453125 Z M 15.75 -26.9375 L 24.109375 -26.9375 L 24.109375 -44.921875 C 24.109375 -45.359375 23.957031 -45.742188 23.65625 -46.078125 C 23.351562 -46.410156 22.984375 -46.578125 22.546875 -46.578125 L 17.328125 -46.578125 C 16.878906 -46.578125 16.503906 -46.410156 16.203125 -46.078125 C 15.898438 -45.742188 15.75 -45.359375 15.75 -44.921875 Z M 24.203125 -57.015625 C 22.710938 -57.179688 20.957031 -57.648438 18.9375 -58.421875 C 16.914062 -59.203125 15.382812 -59.644531 14.34375 -59.75 C 12.070312 -59.75 10.25 -58.894531 8.875 -57.1875 L 6.625 -57.34375 L 6.71875 -58.09375 C 6.9375 -60.800781 7.84375 -62.84375 9.4375 -64.21875 C 11.039062 -65.601562 12.851562 -66.296875 14.875 -66.296875 C 16.894531 -66.296875 19.035156 -65.851562 21.296875 -64.96875 C 23.566406 -64.082031 25.445312 -63.640625 26.9375 -63.640625 C 28.425781 -63.640625 29.890625 -64.472656 31.328125 -66.140625 L 33.5625 -65.96875 L 33.484375 -65.21875 C 33.265625 -62.570312 32.335938 -60.539062 30.703125 -59.125 C 29.078125 -57.71875 27.160156 -57.015625 24.953125 -57.015625 Z M 24.203125 -57.015625 "/></g></g></g><g fill="#dcd7c9" fill-opacity="1"><g transform="translate(676.173732, 226.80449)"><g><path d="M 35.71875 -43.515625 L 35.71875 -10.109375 C 35.71875 -2.816406 32.289062 0.828125 25.4375 0.828125 L 14.421875 0.828125 C 7.566406 0.828125 4.140625 -2.816406 4.140625 -10.109375 L 4.140625 -43.515625 C 4.140625 -50.804688 7.566406 -54.453125 14.421875 -54.453125 L 25.4375 -54.453125 C 32.289062 -54.453125 35.71875 -50.804688 35.71875 -43.515625 Z M 24.109375 -8.78125 L 24.109375 -44.921875 C 24.109375 -45.359375 23.957031 -45.742188 23.65625 -46.078125 C 23.351562 -46.410156 22.984375 -46.578125 22.546875 -46.578125 L 17.328125 -46.578125 C 16.878906 -46.578125 16.503906 -46.410156 16.203125 -46.078125 C 15.898438 -45.742188 15.75 -45.359375 15.75 -44.921875 L 15.75 -8.78125 C 15.75 -8.34375 15.898438 -7.957031 16.203125 -7.625 C 16.503906 -7.289062 16.878906 -7.125 17.328125 -7.125 L 22.546875 -7.125 C 22.984375 -7.125 23.351562 -7.289062 23.65625 -7.625 C 23.957031 -7.957031 24.109375 -8.34375 24.109375 -8.78125 Z M 24.109375 -8.78125 "/></g></g></g><g fill="#dcd7c9" fill-opacity="1"><g transform="translate(233.854731, 275.341842)"><g><path d="M 16.09375 0 L 3.140625 0 L 3.140625 -23.171875 L 16.09375 -23.171875 L 16.09375 -20.609375 L 6.0625 -20.609375 L 6.0625 -13.375 L 15.515625 -13.375 L 15.515625 -10.84375 L 6.0625 -10.84375 L 6.0625 -2.5625 L 16.09375 -2.5625 Z M 16.09375 0 "/></g></g></g><g fill="#dcd7c9" fill-opacity="1"><g transform="translate(262.439364, 275.341842)"><g><path d="M 13.375 0 L 5.75 -20.3125 L 5.609375 -20.3125 C 5.679688 -19.644531 5.738281 -18.742188 5.78125 -17.609375 C 5.820312 -16.472656 5.84375 -15.285156 5.84375 -14.046875 L 5.84375 0 L 3.140625 0 L 3.140625 -23.171875 L 7.46875 -23.171875 L 14.609375 -4.1875 L 14.734375 -4.1875 L 22 -23.171875 L 26.28125 -23.171875 L 26.28125 0 L 23.40625 0 L 23.40625 -14.25 C 23.40625 -15.375 23.429688 -16.488281 23.484375 -17.59375 C 23.535156 -18.695312 23.582031 -19.59375 23.625 -20.28125 L 23.5 -20.28125 L 15.765625 0 Z M 13.375 0 "/></g></g></g><g fill="#dcd7c9" fill-opacity="1"><g transform="translate(302.410311, 275.341842)"><g/></g></g><g fill="#dcd7c9" fill-opacity="1"><g transform="translate(318.797659, 275.341842)"><g><path d="M 13.078125 -20.9375 C 10.585938 -20.9375 8.628906 -20.101562 7.203125 -18.4375 C 5.773438 -16.769531 5.0625 -14.484375 5.0625 -11.578125 C 5.0625 -8.703125 5.722656 -6.425781 7.046875 -4.75 C 8.378906 -3.070312 10.378906 -2.234375 13.046875 -2.234375 C 14.035156 -2.234375 14.984375 -2.320312 15.890625 -2.5 C 16.804688 -2.675781 17.707031 -2.890625 18.59375 -3.140625 L 18.59375 -0.609375 C 17.726562 -0.285156 16.832031 -0.0507812 15.90625 0.09375 C 14.988281 0.25 13.894531 0.328125 12.625 0.328125 C 10.269531 0.328125 8.300781 -0.15625 6.71875 -1.125 C 5.132812 -2.101562 3.945312 -3.488281 3.15625 -5.28125 C 2.375 -7.082031 1.984375 -9.195312 1.984375 -11.625 C 1.984375 -13.957031 2.410156 -16.015625 3.265625 -17.796875 C 4.117188 -19.585938 5.378906 -20.984375 7.046875 -21.984375 C 8.710938 -22.992188 10.734375 -23.5 13.109375 -23.5 C 15.554688 -23.5 17.6875 -23.046875 19.5 -22.140625 L 18.34375 -19.671875 C 17.625 -19.992188 16.828125 -20.285156 15.953125 -20.546875 C 15.078125 -20.804688 14.117188 -20.9375 13.078125 -20.9375 Z M 13.078125 -20.9375 "/></g></g></g><g fill="#dcd7c9" fill-opacity="1"><g transform="translate(349.847704, 275.341842)"><g><path d="M 23.359375 -11.625 C 23.359375 -9.21875 22.953125 -7.117188 22.140625 -5.328125 C 21.335938 -3.546875 20.140625 -2.15625 18.546875 -1.15625 C 16.953125 -0.164062 15 0.328125 12.6875 0.328125 C 10.289062 0.328125 8.296875 -0.164062 6.703125 -1.15625 C 5.109375 -2.15625 3.921875 -3.550781 3.140625 -5.34375 C 2.367188 -7.144531 1.984375 -9.25 1.984375 -11.65625 C 1.984375 -14.007812 2.367188 -16.078125 3.140625 -17.859375 C 3.921875 -19.648438 5.109375 -21.039062 6.703125 -22.03125 C 8.296875 -23.03125 10.300781 -23.53125 12.71875 -23.53125 C 15.03125 -23.53125 16.976562 -23.035156 18.5625 -22.046875 C 20.144531 -21.066406 21.335938 -19.679688 22.140625 -17.890625 C 22.953125 -16.109375 23.359375 -14.019531 23.359375 -11.625 Z M 5.0625 -11.625 C 5.0625 -8.695312 5.675781 -6.394531 6.90625 -4.71875 C 8.144531 -3.039062 10.070312 -2.203125 12.6875 -2.203125 C 15.300781 -2.203125 17.21875 -3.039062 18.4375 -4.71875 C 19.664062 -6.394531 20.28125 -8.695312 20.28125 -11.625 C 20.28125 -14.539062 19.671875 -16.828125 18.453125 -18.484375 C 17.242188 -20.140625 15.332031 -20.96875 12.71875 -20.96875 C 10.082031 -20.96875 8.144531 -20.140625 6.90625 -18.484375 C 5.675781 -16.828125 5.0625 -14.539062 5.0625 -11.625 Z M 5.0625 -11.625 "/></g></g></g><g fill="#dcd7c9" fill-opacity="1"><g transform="translate(385.731276, 275.341842)"><g><path d="M 21.515625 0 L 18.109375 0 L 5.71875 -19.25 L 5.578125 -19.25 C 5.617188 -18.488281 5.671875 -17.546875 5.734375 -16.421875 C 5.804688 -15.296875 5.84375 -14.140625 5.84375 -12.953125 L 5.84375 0 L 3.140625 0 L 3.140625 -23.171875 L 6.515625 -23.171875 L 18.890625 -3.984375 L 19.015625 -3.984375 C 18.992188 -4.335938 18.96875 -4.859375 18.9375 -5.546875 C 18.90625 -6.242188 18.875 -6.992188 18.84375 -7.796875 C 18.8125 -8.609375 18.796875 -9.375 18.796875 -10.09375 L 18.796875 -23.171875 L 21.515625 -23.171875 Z M 21.515625 0 "/></g></g></g><g fill="#dcd7c9" fill-opacity="1"><g transform="translate(420.933599, 275.341842)"><g><path d="M 13.078125 -20.9375 C 10.585938 -20.9375 8.628906 -20.101562 7.203125 -18.4375 C 5.773438 -16.769531 5.0625 -14.484375 5.0625 -11.578125 C 5.0625 -8.703125 5.722656 -6.425781 7.046875 -4.75 C 8.378906 -3.070312 10.378906 -2.234375 13.046875 -2.234375 C 14.035156 -2.234375 14.984375 -2.320312 15.890625 -2.5 C 16.804688 -2.675781 17.707031 -2.890625 18.59375 -3.140625 L 18.59375 -0.609375 C 17.726562 -0.285156 16.832031 -0.0507812 15.90625 0.09375 C 14.988281 0.25 13.894531 0.328125 12.625 0.328125 C 10.269531 0.328125 8.300781 -0.15625 6.71875 -1.125 C 5.132812 -2.101562 3.945312 -3.488281 3.15625 -5.28125 C 2.375 -7.082031 1.984375 -9.195312 1.984375 -11.625 C 1.984375 -13.957031 2.410156 -16.015625 3.265625 -17.796875 C 4.117188 -19.585938 5.378906 -20.984375 7.046875 -21.984375 C 8.710938 -22.992188 10.734375 -23.5 13.109375 -23.5 C 15.554688 -23.5 17.6875 -23.046875 19.5 -22.140625 L 18.34375 -19.671875 C 17.625 -19.992188 16.828125 -20.285156 15.953125 -20.546875 C 15.078125 -20.804688 14.117188 -20.9375 13.078125 -20.9375 Z M 13.078125 -20.9375 "/></g></g></g><g fill="#dcd7c9" fill-opacity="1"><g transform="translate(451.983652, 275.341842)"><g><path d="M 20.765625 -23.171875 L 20.765625 -8.171875 C 20.765625 -6.578125 20.441406 -5.132812 19.796875 -3.84375 C 19.148438 -2.5625 18.15625 -1.546875 16.8125 -0.796875 C 15.46875 -0.046875 13.78125 0.328125 11.75 0.328125 C 8.851562 0.328125 6.65625 -0.453125 5.15625 -2.015625 C 3.664062 -3.585938 2.921875 -5.664062 2.921875 -8.25 L 2.921875 -23.171875 L 5.84375 -23.171875 L 5.84375 -8.140625 C 5.84375 -6.265625 6.34375 -4.804688 7.34375 -3.765625 C 8.351562 -2.722656 9.875 -2.203125 11.90625 -2.203125 C 14.007812 -2.203125 15.53125 -2.757812 16.46875 -3.875 C 17.40625 -4.988281 17.875 -6.421875 17.875 -8.171875 L 17.875 -23.171875 Z M 20.765625 -23.171875 "/></g></g></g><g fill="#dcd7c9" fill-opacity="1"><g transform="translate(486.245226, 275.341842)"><g><path d="M 9.546875 -23.171875 C 12.421875 -23.171875 14.546875 -22.625 15.921875 -21.53125 C 17.296875 -20.4375 17.984375 -18.785156 17.984375 -16.578125 C 17.984375 -15.347656 17.753906 -14.320312 17.296875 -13.5 C 16.835938 -12.675781 16.253906 -12.015625 15.546875 -11.515625 C 14.847656 -11.023438 14.113281 -10.648438 13.34375 -10.390625 L 19.703125 0 L 16.296875 0 L 10.671875 -9.578125 L 6.0625 -9.578125 L 6.0625 0 L 3.140625 0 L 3.140625 -23.171875 Z M 9.375 -20.640625 L 6.0625 -20.640625 L 6.0625 -12.046875 L 9.546875 -12.046875 C 11.421875 -12.046875 12.789062 -12.414062 13.65625 -13.15625 C 14.519531 -13.90625 14.953125 -15.003906 14.953125 -16.453125 C 14.953125 -17.960938 14.5 -19.035156 13.59375 -19.671875 C 12.6875 -20.316406 11.28125 -20.640625 9.375 -20.640625 Z M 9.375 -20.640625 "/></g></g></g><g fill="#dcd7c9" fill-opacity="1"><g transform="translate(516.970889, 275.341842)"><g><path d="M 16.296875 -6.203125 C 16.296875 -4.140625 15.546875 -2.535156 14.046875 -1.390625 C 12.554688 -0.242188 10.546875 0.328125 8.015625 0.328125 C 6.710938 0.328125 5.507812 0.226562 4.40625 0.03125 C 3.3125 -0.164062 2.394531 -0.4375 1.65625 -0.78125 L 1.65625 -3.5625 C 2.4375 -3.21875 3.40625 -2.90625 4.5625 -2.625 C 5.71875 -2.34375 6.910156 -2.203125 8.140625 -2.203125 C 9.847656 -2.203125 11.144531 -2.535156 12.03125 -3.203125 C 12.925781 -3.878906 13.375 -4.789062 13.375 -5.9375 C 13.375 -6.695312 13.207031 -7.332031 12.875 -7.84375 C 12.550781 -8.363281 11.988281 -8.84375 11.1875 -9.28125 C 10.394531 -9.71875 9.304688 -10.191406 7.921875 -10.703125 C 5.929688 -11.421875 4.4375 -12.296875 3.4375 -13.328125 C 2.445312 -14.367188 1.953125 -15.789062 1.953125 -17.59375 C 1.953125 -18.800781 2.265625 -19.847656 2.890625 -20.734375 C 3.515625 -21.617188 4.378906 -22.300781 5.484375 -22.78125 C 6.585938 -23.257812 7.875 -23.5 9.34375 -23.5 C 10.601562 -23.5 11.757812 -23.378906 12.8125 -23.140625 C 13.875 -22.898438 14.847656 -22.585938 15.734375 -22.203125 L 14.828125 -19.703125 C 14.023438 -20.046875 13.148438 -20.335938 12.203125 -20.578125 C 11.253906 -20.816406 10.28125 -20.9375 9.28125 -20.9375 C 7.832031 -20.9375 6.738281 -20.625 6 -20 C 5.269531 -19.382812 4.90625 -18.570312 4.90625 -17.5625 C 4.90625 -16.78125 5.066406 -16.128906 5.390625 -15.609375 C 5.710938 -15.085938 6.238281 -14.613281 6.96875 -14.1875 C 7.707031 -13.769531 8.707031 -13.335938 9.96875 -12.890625 C 11.320312 -12.390625 12.46875 -11.851562 13.40625 -11.28125 C 14.351562 -10.707031 15.070312 -10.019531 15.5625 -9.21875 C 16.050781 -8.414062 16.296875 -7.410156 16.296875 -6.203125 Z M 16.296875 -6.203125 "/></g></g></g><g fill="#dcd7c9" fill-opacity="1"><g transform="translate(545.328473, 275.341842)"><g><path d="M 23.359375 -11.625 C 23.359375 -9.21875 22.953125 -7.117188 22.140625 -5.328125 C 21.335938 -3.546875 20.140625 -2.15625 18.546875 -1.15625 C 16.953125 -0.164062 15 0.328125 12.6875 0.328125 C 10.289062 0.328125 8.296875 -0.164062 6.703125 -1.15625 C 5.109375 -2.15625 3.921875 -3.550781 3.140625 -5.34375 C 2.367188 -7.144531 1.984375 -9.25 1.984375 -11.65625 C 1.984375 -14.007812 2.367188 -16.078125 3.140625 -17.859375 C 3.921875 -19.648438 5.109375 -21.039062 6.703125 -22.03125 C 8.296875 -23.03125 10.300781 -23.53125 12.71875 -23.53125 C 15.03125 -23.53125 16.976562 -23.035156 18.5625 -22.046875 C 20.144531 -21.066406 21.335938 -19.679688 22.140625 -17.890625 C 22.953125 -16.109375 23.359375 -14.019531 23.359375 -11.625 Z M 5.0625 -11.625 C 5.0625 -8.695312 5.675781 -6.394531 6.90625 -4.71875 C 8.144531 -3.039062 10.070312 -2.203125 12.6875 -2.203125 C 15.300781 -2.203125 17.21875 -3.039062 18.4375 -4.71875 C 19.664062 -6.394531 20.28125 -8.695312 20.28125 -11.625 C 20.28125 -14.539062 19.671875 -16.828125 18.453125 -18.484375 C 17.242188 -20.140625 15.332031 -20.96875 12.71875 -20.96875 C 10.082031 -20.96875 8.144531 -20.140625 6.90625 -18.484375 C 5.675781 -16.828125 5.0625 -14.539062 5.0625 -11.625 Z M 5.0625 -11.625 "/></g></g></g><g fill="#dcd7c9" fill-opacity="1"><g transform="translate(581.212044, 275.341842)"><g><path d="M 16.296875 -6.203125 C 16.296875 -4.140625 15.546875 -2.535156 14.046875 -1.390625 C 12.554688 -0.242188 10.546875 0.328125 8.015625 0.328125 C 6.710938 0.328125 5.507812 0.226562 4.40625 0.03125 C 3.3125 -0.164062 2.394531 -0.4375 1.65625 -0.78125 L 1.65625 -3.5625 C 2.4375 -3.21875 3.40625 -2.90625 4.5625 -2.625 C 5.71875 -2.34375 6.910156 -2.203125 8.140625 -2.203125 C 9.847656 -2.203125 11.144531 -2.535156 12.03125 -3.203125 C 12.925781 -3.878906 13.375 -4.789062 13.375 -5.9375 C 13.375 -6.695312 13.207031 -7.332031 12.875 -7.84375 C 12.550781 -8.363281 11.988281 -8.84375 11.1875 -9.28125 C 10.394531 -9.71875 9.304688 -10.191406 7.921875 -10.703125 C 5.929688 -11.421875 4.4375 -12.296875 3.4375 -13.328125 C 2.445312 -14.367188 1.953125 -15.789062 1.953125 -17.59375 C 1.953125 -18.800781 2.265625 -19.847656 2.890625 -20.734375 C 3.515625 -21.617188 4.378906 -22.300781 5.484375 -22.78125 C 6.585938 -23.257812 7.875 -23.5 9.34375 -23.5 C 10.601562 -23.5 11.757812 -23.378906 12.8125 -23.140625 C 13.875 -22.898438 14.847656 -22.585938 15.734375 -22.203125 L 14.828125 -19.703125 C 14.023438 -20.046875 13.148438 -20.335938 12.203125 -20.578125 C 11.253906 -20.816406 10.28125 -20.9375 9.28125 -20.9375 C 7.832031 -20.9375 6.738281 -20.625 6 -20 C 5.269531 -19.382812 4.90625 -18.570312 4.90625 -17.5625 C 4.90625 -16.78125 5.066406 -16.128906 5.390625 -15.609375 C 5.710938 -15.085938 6.238281 -14.613281 6.96875 -14.1875 C 7.707031 -13.769531 8.707031 -13.335938 9.96875 -12.890625 C 11.320312 -12.390625 12.46875 -11.851562 13.40625 -11.28125 C 14.351562 -10.707031 15.070312 -10.019531 15.5625 -9.21875 C 16.050781 -8.414062 16.296875 -7.410156 16.296875 -6.203125 Z M 16.296875 -6.203125 "/></g></g></g><g fill="#dcd7c9" fill-opacity="1"><g transform="translate(609.569629, 275.341842)"><g/></g></g><g fill="#dcd7c9" fill-opacity="1"><g transform="translate(625.95699, 275.341842)"><g><path d="M 6.0625 0 L 3.140625 0 L 3.140625 -23.171875 L 16.09375 -23.171875 L 16.09375 -20.609375 L 6.0625 -20.609375 L 6.0625 -12.390625 L 15.484375 -12.390625 L 15.484375 -9.828125 L 6.0625 -9.828125 Z M 6.0625 0 "/></g></g></g><g fill="#dcd7c9" fill-opacity="1"><g transform="translate(653.341381, 275.341842)"><g><path d="M 16.09375 0 L 3.140625 0 L 3.140625 -23.171875 L 16.09375 -23.171875 L 16.09375 -20.609375 L 6.0625 -20.609375 L 6.0625 -13.375 L 15.515625 -13.375 L 15.515625 -10.84375 L 6.0625 -10.84375 L 6.0625 -2.5625 L 16.09375 -2.5625 Z M 16.09375 0 "/></g></g></g><g fill="#dcd7c9" fill-opacity="1"><g transform="translate(681.925995, 275.341842)"><g><path d="M 21.71875 -11.8125 C 21.71875 -7.894531 20.648438 -4.945312 18.515625 -2.96875 C 16.378906 -0.988281 13.410156 0 9.609375 0 L 3.140625 0 L 3.140625 -23.171875 L 10.28125 -23.171875 C 12.601562 -23.171875 14.625 -22.738281 16.34375 -21.875 C 18.0625 -21.007812 19.382812 -19.734375 20.3125 -18.046875 C 21.25 -16.359375 21.71875 -14.28125 21.71875 -11.8125 Z M 18.625 -11.71875 C 18.625 -14.8125 17.859375 -17.078125 16.328125 -18.515625 C 14.804688 -19.953125 12.648438 -20.671875 9.859375 -20.671875 L 6.0625 -20.671875 L 6.0625 -2.5 L 9.21875 -2.5 C 15.488281 -2.5 18.625 -5.570312 18.625 -11.71875 Z M 18.625 -11.71875 "/></g></g></g><g fill="#dcd7c9" fill-opacity="1"><g transform="translate(716.155151, 275.341842)"><g><path d="M 16.09375 0 L 3.140625 0 L 3.140625 -23.171875 L 16.09375 -23.171875 L 16.09375 -20.609375 L 6.0625 -20.609375 L 6.0625 -13.375 L 15.515625 -13.375 L 15.515625 -10.84375 L 6.0625 -10.84375 L 6.0625 -2.5625 L 16.09375 -2.5625 Z M 16.09375 0 "/></g></g></g><g fill="#dcd7c9" fill-opacity="1"><g transform="translate(744.739765, 275.341842)"><g><path d="M 9.546875 -23.171875 C 12.421875 -23.171875 14.546875 -22.625 15.921875 -21.53125 C 17.296875 -20.4375 17.984375 -18.785156 17.984375 -16.578125 C 17.984375 -15.347656 17.753906 -14.320312 17.296875 -13.5 C 16.835938 -12.675781 16.253906 -12.015625 15.546875 -11.515625 C 14.847656 -11.023438 14.113281 -10.648438 13.34375 -10.390625 L 19.703125 0 L 16.296875 0 L 10.671875 -9.578125 L 6.0625 -9.578125 L 6.0625 0 L 3.140625 0 L 3.140625 -23.171875 Z M 9.375 -20.640625 L 6.0625 -20.640625 L 6.0625 -12.046875 L 9.546875 -12.046875 C 11.421875 -12.046875 12.789062 -12.414062 13.65625 -13.15625 C 14.519531 -13.90625 14.953125 -15.003906 14.953125 -16.453125 C 14.953125 -17.960938 14.5 -19.035156 13.59375 -19.671875 C 12.6875 -20.316406 11.28125 -20.640625 9.375 -20.640625 Z M 9.375 -20.640625 "/></g></g></g><g fill="#dcd7c9" fill-opacity="1"><g transform="translate(775.465428, 275.341842)"><g><path d="M 17.6875 0 L 14.890625 -7.171875 L 5.71875 -7.171875 L 2.953125 0 L 0 0 L 9.046875 -23.265625 L 11.6875 -23.265625 L 20.703125 0 Z M 14.015625 -9.765625 L 11.421875 -16.78125 C 11.359375 -16.945312 11.25 -17.257812 11.09375 -17.71875 C 10.945312 -18.175781 10.800781 -18.644531 10.65625 -19.125 C 10.519531 -19.613281 10.40625 -19.988281 10.3125 -20.25 C 10.144531 -19.582031 9.96875 -18.925781 9.78125 -18.28125 C 9.601562 -17.644531 9.445312 -17.144531 9.3125 -16.78125 L 6.6875 -9.765625 Z M 14.015625 -9.765625 "/></g></g></g><g fill="#dcd7c9" fill-opacity="1"><g transform="translate(806.742537, 275.341842)"><g><path d="M 9.671875 0 L 1.296875 0 L 1.296875 -1.6875 L 4.03125 -2.296875 L 4.03125 -20.828125 L 1.296875 -21.484375 L 1.296875 -23.171875 L 9.671875 -23.171875 L 9.671875 -21.484375 L 6.9375 -20.828125 L 6.9375 -2.296875 L 9.671875 -1.6875 Z M 9.671875 0 "/></g></g></g><g fill="#dcd7c9" fill-opacity="1"><g transform="translate(828.287773, 275.341842)"><g><path d="M 16.296875 -6.203125 C 16.296875 -4.140625 15.546875 -2.535156 14.046875 -1.390625 C 12.554688 -0.242188 10.546875 0.328125 8.015625 0.328125 C 6.710938 0.328125 5.507812 0.226562 4.40625 0.03125 C 3.3125 -0.164062 2.394531 -0.4375 1.65625 -0.78125 L 1.65625 -3.5625 C 2.4375 -3.21875 3.40625 -2.90625 4.5625 -2.625 C 5.71875 -2.34375 6.910156 -2.203125 8.140625 -2.203125 C 9.847656 -2.203125 11.144531 -2.535156 12.03125 -3.203125 C 12.925781 -3.878906 13.375 -4.789062 13.375 -5.9375 C 13.375 -6.695312 13.207031 -7.332031 12.875 -7.84375 C 12.550781 -8.363281 11.988281 -8.84375 11.1875 -9.28125 C 10.394531 -9.71875 9.304688 -10.191406 7.921875 -10.703125 C 5.929688 -11.421875 4.4375 -12.296875 3.4375 -13.328125 C 2.445312 -14.367188 1.953125 -15.789062 1.953125 -17.59375 C 1.953125 -18.800781 2.265625 -19.847656 2.890625 -20.734375 C 3.515625 -21.617188 4.378906 -22.300781 5.484375 -22.78125 C 6.585938 -23.257812 7.875 -23.5 9.34375 -23.5 C 10.601562 -23.5 11.757812 -23.378906 12.8125 -23.140625 C 13.875 -22.898438 14.847656 -22.585938 15.734375 -22.203125 L 14.828125 -19.703125 C 14.023438 -20.046875 13.148438 -20.335938 12.203125 -20.578125 C 11.253906 -20.816406 10.28125 -20.9375 9.28125 -20.9375 C 7.832031 -20.9375 6.738281 -20.625 6 -20 C 5.269531 -19.382812 4.90625 -18.570312 4.90625 -17.5625 C 4.90625 -16.78125 5.066406 -16.128906 5.390625 -15.609375 C 5.710938 -15.085938 6.238281 -14.613281 6.96875 -14.1875 C 7.707031 -13.769531 8.707031 -13.335938 9.96875 -12.890625 C 11.320312 -12.390625 12.46875 -11.851562 13.40625 -11.28125 C 14.351562 -10.707031 15.070312 -10.019531 15.5625 -9.21875 C 16.050781 -8.414062 16.296875 -7.410156 16.296875 -6.203125 Z M 16.296875 -6.203125 "/></g></g></g><g fill="#dcd7c9" fill-opacity="1"><g transform="translate(368.838731, 307.514763)"><g><path d="M 6.265625 -15.640625 C 8.304688 -15.640625 9.796875 -15.238281 10.734375 -14.4375 C 11.671875 -13.632812 12.140625 -12.503906 12.140625 -11.046875 C 12.140625 -10.179688 11.941406 -9.367188 11.546875 -8.609375 C 11.160156 -7.859375 10.507812 -7.25 9.59375 -6.78125 C 8.6875 -6.320312 7.453125 -6.09375 5.890625 -6.09375 L 4.09375 -6.09375 L 4.09375 0 L 2.125 0 L 2.125 -15.640625 Z M 6.09375 -13.953125 L 4.09375 -13.953125 L 4.09375 -7.78125 L 5.671875 -7.78125 C 7.160156 -7.78125 8.269531 -8.019531 9 -8.5 C 9.726562 -8.976562 10.09375 -9.796875 10.09375 -10.953125 C 10.09375 -11.960938 9.769531 -12.710938 9.125 -13.203125 C 8.476562 -13.703125 7.46875 -13.953125 6.09375 -13.953125 Z M 6.09375 -13.953125 "/></g></g></g><g fill="#dcd7c9" fill-opacity="1"><g transform="translate(389.209907, 307.514763)"><g><path d="M 6.4375 -15.640625 C 8.382812 -15.640625 9.820312 -15.269531 10.75 -14.53125 C 11.675781 -13.789062 12.140625 -12.675781 12.140625 -11.1875 C 12.140625 -10.363281 11.984375 -9.671875 11.671875 -9.109375 C 11.367188 -8.554688 10.976562 -8.109375 10.5 -7.765625 C 10.03125 -7.429688 9.53125 -7.179688 9 -7.015625 L 13.296875 0 L 11 0 L 7.203125 -6.46875 L 4.09375 -6.46875 L 4.09375 0 L 2.125 0 L 2.125 -15.640625 Z M 6.328125 -13.9375 L 4.09375 -13.9375 L 4.09375 -8.125 L 6.4375 -8.125 C 7.707031 -8.125 8.632812 -8.375 9.21875 -8.875 C 9.800781 -9.382812 10.09375 -10.128906 10.09375 -11.109375 C 10.09375 -12.128906 9.785156 -12.851562 9.171875 -13.28125 C 8.566406 -13.71875 7.617188 -13.9375 6.328125 -13.9375 Z M 6.328125 -13.9375 "/></g></g></g><g fill="#dcd7c9" fill-opacity="1"><g transform="translate(409.953382, 307.514763)"><g><path d="M 15.765625 -7.84375 C 15.765625 -6.21875 15.488281 -4.800781 14.9375 -3.59375 C 14.394531 -2.394531 13.585938 -1.457031 12.515625 -0.78125 C 11.441406 -0.113281 10.125 0.21875 8.5625 0.21875 C 6.945312 0.21875 5.597656 -0.113281 4.515625 -0.78125 C 3.441406 -1.457031 2.644531 -2.398438 2.125 -3.609375 C 1.601562 -4.828125 1.34375 -6.242188 1.34375 -7.859375 C 1.34375 -9.453125 1.601562 -10.847656 2.125 -12.046875 C 2.644531 -13.253906 3.441406 -14.191406 4.515625 -14.859375 C 5.597656 -15.535156 6.957031 -15.875 8.59375 -15.875 C 10.15625 -15.875 11.46875 -15.539062 12.53125 -14.875 C 13.59375 -14.21875 14.394531 -13.285156 14.9375 -12.078125 C 15.488281 -10.878906 15.765625 -9.46875 15.765625 -7.84375 Z M 3.421875 -7.84375 C 3.421875 -5.875 3.835938 -4.320312 4.671875 -3.1875 C 5.503906 -2.050781 6.800781 -1.484375 8.5625 -1.484375 C 10.332031 -1.484375 11.628906 -2.050781 12.453125 -3.1875 C 13.273438 -4.320312 13.6875 -5.875 13.6875 -7.84375 C 13.6875 -9.8125 13.273438 -11.351562 12.453125 -12.46875 C 11.640625 -13.59375 10.351562 -14.15625 8.59375 -14.15625 C 6.8125 -14.15625 5.503906 -13.59375 4.671875 -12.46875 C 3.835938 -11.351562 3.421875 -9.8125 3.421875 -7.84375 Z M 3.421875 -7.84375 "/></g></g></g><g fill="#dcd7c9" fill-opacity="1"><g transform="translate(434.178871, 307.514763)"><g><path d="M 13.140625 -15.640625 L 7.5625 0 L 5.59375 0 L 0 -15.640625 L 2.0625 -15.640625 L 5.59375 -5.609375 C 5.820312 -4.960938 6.007812 -4.359375 6.15625 -3.796875 C 6.3125 -3.234375 6.453125 -2.695312 6.578125 -2.1875 C 6.671875 -2.695312 6.796875 -3.238281 6.953125 -3.8125 C 7.117188 -4.382812 7.320312 -5 7.5625 -5.65625 L 11.0625 -15.640625 Z M 13.140625 -15.640625 "/></g></g></g><g fill="#dcd7c9" fill-opacity="1"><g transform="translate(454.440558, 307.514763)"><g><path d="M 11.9375 0 L 10.0625 -4.84375 L 3.859375 -4.84375 L 2 0 L 0 0 L 6.109375 -15.703125 L 7.890625 -15.703125 L 13.96875 0 Z M 9.46875 -6.59375 L 7.71875 -11.328125 C 7.664062 -11.441406 7.585938 -11.648438 7.484375 -11.953125 C 7.390625 -12.265625 7.289062 -12.582031 7.1875 -12.90625 C 7.09375 -13.238281 7.019531 -13.492188 6.96875 -13.671875 C 6.851562 -13.210938 6.734375 -12.769531 6.609375 -12.34375 C 6.484375 -11.914062 6.375 -11.578125 6.28125 -11.328125 L 4.515625 -6.59375 Z M 9.46875 -6.59375 "/></g></g></g><g fill="#dcd7c9" fill-opacity="1"><g transform="translate(475.556309, 307.514763)"><g/></g></g><g fill="#dcd7c9" fill-opacity="1"><g transform="translate(486.620186, 307.514763)"><g><path d="M 14.65625 -7.96875 C 14.65625 -5.332031 13.9375 -3.34375 12.5 -2 C 11.0625 -0.664062 9.054688 0 6.484375 0 L 2.125 0 L 2.125 -15.640625 L 6.9375 -15.640625 C 8.5 -15.640625 9.859375 -15.347656 11.015625 -14.765625 C 12.179688 -14.179688 13.078125 -13.316406 13.703125 -12.171875 C 14.335938 -11.035156 14.65625 -9.632812 14.65625 -7.96875 Z M 12.578125 -7.90625 C 12.578125 -10 12.0625 -11.53125 11.03125 -12.5 C 10 -13.46875 8.539062 -13.953125 6.65625 -13.953125 L 4.09375 -13.953125 L 4.09375 -1.6875 L 6.21875 -1.6875 C 10.457031 -1.6875 12.578125 -3.757812 12.578125 -7.90625 Z M 12.578125 -7.90625 "/></g></g></g><g fill="#dcd7c9" fill-opacity="1"><g transform="translate(509.728803, 307.514763)"><g><path d="M 6.53125 0 L 0.875 0 L 0.875 -1.140625 L 2.71875 -1.5625 L 2.71875 -14.0625 L 0.875 -14.5 L 0.875 -15.640625 L 6.53125 -15.640625 L 6.53125 -14.5 L 4.6875 -14.0625 L 4.6875 -1.5625 L 6.53125 -1.140625 Z M 6.53125 0 "/></g></g></g><g fill="#dcd7c9" fill-opacity="1"><g transform="translate(524.274699, 307.514763)"><g><path d="M 11 -4.1875 C 11 -2.800781 10.492188 -1.71875 9.484375 -0.9375 C 8.472656 -0.164062 7.113281 0.21875 5.40625 0.21875 C 4.53125 0.21875 3.71875 0.148438 2.96875 0.015625 C 2.226562 -0.109375 1.613281 -0.289062 1.125 -0.53125 L 1.125 -2.40625 C 1.644531 -2.175781 2.296875 -1.960938 3.078125 -1.765625 C 3.859375 -1.578125 4.664062 -1.484375 5.5 -1.484375 C 6.65625 -1.484375 7.53125 -1.707031 8.125 -2.15625 C 8.726562 -2.613281 9.03125 -3.234375 9.03125 -4.015625 C 9.03125 -4.523438 8.921875 -4.953125 8.703125 -5.296875 C 8.484375 -5.648438 8.101562 -5.972656 7.5625 -6.265625 C 7.019531 -6.554688 6.28125 -6.878906 5.34375 -7.234375 C 4 -7.710938 2.988281 -8.300781 2.3125 -9 C 1.644531 -9.707031 1.3125 -10.664062 1.3125 -11.875 C 1.3125 -12.6875 1.519531 -13.390625 1.9375 -13.984375 C 2.363281 -14.585938 2.945312 -15.050781 3.6875 -15.375 C 4.4375 -15.695312 5.3125 -15.859375 6.3125 -15.859375 C 7.15625 -15.859375 7.929688 -15.773438 8.640625 -15.609375 C 9.359375 -15.453125 10.019531 -15.242188 10.625 -14.984375 L 10.015625 -13.296875 C 9.472656 -13.523438 8.878906 -13.71875 8.234375 -13.875 C 7.585938 -14.039062 6.929688 -14.125 6.265625 -14.125 C 5.285156 -14.125 4.546875 -13.914062 4.046875 -13.5 C 3.554688 -13.082031 3.3125 -12.53125 3.3125 -11.84375 C 3.3125 -11.320312 3.421875 -10.882812 3.640625 -10.53125 C 3.859375 -10.1875 4.210938 -9.867188 4.703125 -9.578125 C 5.203125 -9.296875 5.875 -9.003906 6.71875 -8.703125 C 7.644531 -8.359375 8.425781 -7.992188 9.0625 -7.609375 C 9.695312 -7.222656 10.175781 -6.757812 10.5 -6.21875 C 10.832031 -5.675781 11 -5 11 -4.1875 Z M 11 -4.1875 "/></g></g></g><g fill="#dcd7c9" fill-opacity="1"><g transform="translate(543.419488, 307.514763)"><g><path d="M 11 -4.1875 C 11 -2.800781 10.492188 -1.71875 9.484375 -0.9375 C 8.472656 -0.164062 7.113281 0.21875 5.40625 0.21875 C 4.53125 0.21875 3.71875 0.148438 2.96875 0.015625 C 2.226562 -0.109375 1.613281 -0.289062 1.125 -0.53125 L 1.125 -2.40625 C 1.644531 -2.175781 2.296875 -1.960938 3.078125 -1.765625 C 3.859375 -1.578125 4.664062 -1.484375 5.5 -1.484375 C 6.65625 -1.484375 7.53125 -1.707031 8.125 -2.15625 C 8.726562 -2.613281 9.03125 -3.234375 9.03125 -4.015625 C 9.03125 -4.523438 8.921875 -4.953125 8.703125 -5.296875 C 8.484375 -5.648438 8.101562 -5.972656 7.5625 -6.265625 C 7.019531 -6.554688 6.28125 -6.878906 5.34375 -7.234375 C 4 -7.710938 2.988281 -8.300781 2.3125 -9 C 1.644531 -9.707031 1.3125 -10.664062 1.3125 -11.875 C 1.3125 -12.6875 1.519531 -13.390625 1.9375 -13.984375 C 2.363281 -14.585938 2.945312 -15.050781 3.6875 -15.375 C 4.4375 -15.695312 5.3125 -15.859375 6.3125 -15.859375 C 7.15625 -15.859375 7.929688 -15.773438 8.640625 -15.609375 C 9.359375 -15.453125 10.019531 -15.242188 10.625 -14.984375 L 10.015625 -13.296875 C 9.472656 -13.523438 8.878906 -13.71875 8.234375 -13.875 C 7.585938 -14.039062 6.929688 -14.125 6.265625 -14.125 C 5.285156 -14.125 4.546875 -13.914062 4.046875 -13.5 C 3.554688 -13.082031 3.3125 -12.53125 3.3125 -11.84375 C 3.3125 -11.320312 3.421875 -10.882812 3.640625 -10.53125 C 3.859375 -10.1875 4.210938 -9.867188 4.703125 -9.578125 C 5.203125 -9.296875 5.875 -9.003906 6.71875 -8.703125 C 7.644531 -8.359375 8.425781 -7.992188 9.0625 -7.609375 C 9.695312 -7.222656 10.175781 -6.757812 10.5 -6.21875 C 10.832031 -5.675781 11 -5 11 -4.1875 Z M 11 -4.1875 "/></g></g></g><g fill="#dcd7c9" fill-opacity="1"><g transform="translate(562.564278, 307.514763)"><g><path d="M 10.859375 0 L 2.125 0 L 2.125 -15.640625 L 10.859375 -15.640625 L 10.859375 -13.90625 L 4.09375 -13.90625 L 4.09375 -9.03125 L 10.46875 -9.03125 L 10.46875 -7.3125 L 4.09375 -7.3125 L 4.09375 -1.734375 L 10.859375 -1.734375 Z M 10.859375 0 "/></g></g></g><g fill="#dcd7c9" fill-opacity="1"><g transform="translate(581.862368, 307.514763)"><g><path d="M 6.4375 -15.640625 C 8.382812 -15.640625 9.820312 -15.269531 10.75 -14.53125 C 11.675781 -13.789062 12.140625 -12.675781 12.140625 -11.1875 C 12.140625 -10.363281 11.984375 -9.671875 11.671875 -9.109375 C 11.367188 -8.554688 10.976562 -8.109375 10.5 -7.765625 C 10.03125 -7.429688 9.53125 -7.179688 9 -7.015625 L 13.296875 0 L 11 0 L 7.203125 -6.46875 L 4.09375 -6.46875 L 4.09375 0 L 2.125 0 L 2.125 -15.640625 Z M 6.328125 -13.9375 L 4.09375 -13.9375 L 4.09375 -8.125 L 6.4375 -8.125 C 7.707031 -8.125 8.632812 -8.375 9.21875 -8.875 C 9.800781 -9.382812 10.09375 -10.128906 10.09375 -11.109375 C 10.09375 -12.128906 9.785156 -12.851562 9.171875 -13.28125 C 8.566406 -13.71875 7.617188 -13.9375 6.328125 -13.9375 Z M 6.328125 -13.9375 "/></g></g></g><g fill="#dcd7c9" fill-opacity="1"><g transform="translate(602.605842, 307.514763)"><g><path d="M 7.078125 0 L 5.109375 0 L 5.109375 -13.90625 L 0.21875 -13.90625 L 0.21875 -15.640625 L 11.9375 -15.640625 L 11.9375 -13.90625 L 7.078125 -13.90625 Z M 7.078125 0 "/></g></g></g><g fill="#dcd7c9" fill-opacity="1"><g transform="translate(621.903932, 307.514763)"><g><path d="M 11.9375 0 L 10.0625 -4.84375 L 3.859375 -4.84375 L 2 0 L 0 0 L 6.109375 -15.703125 L 7.890625 -15.703125 L 13.96875 0 Z M 9.46875 -6.59375 L 7.71875 -11.328125 C 7.664062 -11.441406 7.585938 -11.648438 7.484375 -11.953125 C 7.390625 -12.265625 7.289062 -12.582031 7.1875 -12.90625 C 7.09375 -13.238281 7.019531 -13.492188 6.96875 -13.671875 C 6.851562 -13.210938 6.734375 -12.769531 6.609375 -12.34375 C 6.484375 -11.914062 6.375 -11.578125 6.28125 -11.328125 L 4.515625 -6.59375 Z M 9.46875 -6.59375 "/></g></g></g><g fill="#dcd7c9" fill-opacity="1"><g transform="translate(643.019683, 307.514763)"><g><path d="M 7.078125 0 L 5.109375 0 L 5.109375 -13.90625 L 0.21875 -13.90625 L 0.21875 -15.640625 L 11.9375 -15.640625 L 11.9375 -13.90625 L 7.078125 -13.90625 Z M 7.078125 0 "/></g></g></g><g fill="#dcd7c9" fill-opacity="1"><g transform="translate(662.317773, 307.514763)"><g><path d="M 6.53125 0 L 0.875 0 L 0.875 -1.140625 L 2.71875 -1.5625 L 2.71875 -14.0625 L 0.875 -14.5 L 0.875 -15.640625 L 6.53125 -15.640625 L 6.53125 -14.5 L 4.6875 -14.0625 L 4.6875 -1.5625 L 6.53125 -1.140625 Z M 6.53125 0 "/></g></g></g><g fill="#dcd7c9" fill-opacity="1"><g transform="translate(676.863669, 307.514763)"><g><path d="M 13.140625 -15.640625 L 7.5625 0 L 5.59375 0 L 0 -15.640625 L 2.0625 -15.640625 L 5.59375 -5.609375 C 5.820312 -4.960938 6.007812 -4.359375 6.15625 -3.796875 C 6.3125 -3.234375 6.453125 -2.695312 6.578125 -2.1875 C 6.671875 -2.695312 6.796875 -3.238281 6.953125 -3.8125 C 7.117188 -4.382812 7.320312 -5 7.5625 -5.65625 L 11.0625 -15.640625 Z M 13.140625 -15.640625 "/></g></g></g><g fill="#dcd7c9" fill-opacity="1"><g transform="translate(697.125356, 307.514763)"><g><path d="M 11.9375 0 L 10.0625 -4.84375 L 3.859375 -4.84375 L 2 0 L 0 0 L 6.109375 -15.703125 L 7.890625 -15.703125 L 13.96875 0 Z M 9.46875 -6.59375 L 7.71875 -11.328125 C 7.664062 -11.441406 7.585938 -11.648438 7.484375 -11.953125 C 7.390625 -12.265625 7.289062 -12.582031 7.1875 -12.90625 C 7.09375 -13.238281 7.019531 -13.492188 6.96875 -13.671875 C 6.851562 -13.210938 6.734375 -12.769531 6.609375 -12.34375 C 6.484375 -11.914062 6.375 -11.578125 6.28125 -11.328125 L 4.515625 -6.59375 Z M 9.46875 -6.59375 "/></g></g></g><g fill="#dcd7c9" fill-opacity="1"><g transform="translate(381.539939, 381.365413)"><g><path d="M 9.125 -33.109375 C 11.738281 -33.109375 13.628906 -32.390625 14.796875 -30.953125 C 15.960938 -29.515625 16.546875 -27.535156 16.546875 -25.015625 L 16.546875 -21.046875 C 16.546875 -18.398438 15.921875 -16.40625 14.671875 -15.0625 C 13.429688 -13.71875 11.488281 -13.046875 8.84375 -13.046875 L 5.578125 -13.046875 L 5.578125 0 L 1.890625 0 L 1.890625 -33.109375 Z M 8.84375 -16.359375 C 10.226562 -16.359375 11.25 -16.695312 11.90625 -17.375 C 12.570312 -18.0625 12.90625 -19.207031 12.90625 -20.8125 L 12.90625 -25.203125 C 12.90625 -26.722656 12.613281 -27.859375 12.03125 -28.609375 C 11.445312 -29.367188 10.476562 -29.75 9.125 -29.75 L 5.578125 -29.75 L 5.578125 -16.359375 Z M 8.84375 -16.359375 "/></g></g></g><g fill="#dcd7c9" fill-opacity="1"><g transform="translate(414.604375, 381.365413)"><g><path d="M 5.625 -6.671875 L 4.34375 0 L 0.953125 0 L 7.28125 -33.109375 L 12.625 -33.109375 L 18.96875 0 L 15.28125 0 L 14 -6.671875 Z M 6.09375 -9.84375 L 13.484375 -9.84375 L 9.75 -28.953125 Z M 6.09375 -9.84375 "/></g></g></g><g fill="#dcd7c9" fill-opacity="1"><g transform="translate(449.938801, 381.365413)"><g><path d="M 5.390625 -7.796875 C 5.390625 -6.285156 5.695312 -5.113281 6.3125 -4.28125 C 6.925781 -3.445312 7.910156 -3.03125 9.265625 -3.03125 C 10.585938 -3.03125 11.554688 -3.445312 12.171875 -4.28125 C 12.785156 -5.113281 13.09375 -6.285156 13.09375 -7.796875 L 13.09375 -33.109375 L 16.546875 -33.109375 L 16.546875 -8 C 16.546875 -5.46875 15.945312 -3.4375 14.75 -1.90625 C 13.550781 -0.382812 11.675781 0.375 9.125 0.375 C 6.601562 0.375 4.742188 -0.382812 3.546875 -1.90625 C 2.347656 -3.4375 1.75 -5.46875 1.75 -8 L 1.75 -33.109375 L 5.390625 -33.109375 Z M 5.390625 -7.796875 "/></g></g></g><g fill="#dcd7c9" fill-opacity="1"><g transform="translate(483.618021, 381.365413)"><g><path d="M 1.890625 0 L 1.890625 -33.109375 L 5.578125 -33.109375 L 5.578125 -3.359375 L 15.046875 -3.359375 L 15.046875 0 Z M 1.890625 0 "/></g></g></g><g fill="#dcd7c9" fill-opacity="1"><g transform="translate(514.932705, 381.365413)"><g/></g></g><g fill="#dcd7c9" fill-opacity="1"><g transform="translate(537.640388, 381.365413)"><g><path d="M 8.84375 -33.4375 C 11.363281 -33.4375 13.222656 -32.6875 14.421875 -31.1875 C 15.617188 -29.695312 16.21875 -27.6875 16.21875 -25.15625 L 16.21875 -24.265625 L 12.71875 -24.265625 L 12.71875 -25.34375 C 12.71875 -26.863281 12.414062 -28.03125 11.8125 -28.84375 C 11.21875 -29.664062 10.257812 -30.078125 8.9375 -30.078125 C 7.613281 -30.078125 6.648438 -29.664062 6.046875 -28.84375 C 5.453125 -28.03125 5.15625 -26.878906 5.15625 -25.390625 C 5.15625 -24.160156 5.429688 -23.085938 5.984375 -22.171875 C 6.535156 -21.265625 7.21875 -20.425781 8.03125 -19.65625 C 8.851562 -18.882812 9.742188 -18.125 10.703125 -17.375 C 11.671875 -16.632812 12.5625 -15.820312 13.375 -14.9375 C 14.195312 -14.0625 14.882812 -13.0625 15.4375 -11.9375 C 15.988281 -10.820312 16.265625 -9.492188 16.265625 -7.953125 C 16.265625 -5.421875 15.65625 -3.40625 14.4375 -1.90625 C 13.226562 -0.414062 11.347656 0.328125 8.796875 0.328125 C 6.242188 0.328125 4.367188 -0.414062 3.171875 -1.90625 C 1.972656 -3.40625 1.375 -5.421875 1.375 -7.953125 L 1.375 -9.84375 L 4.828125 -9.84375 L 4.828125 -7.75 C 4.828125 -6.238281 5.140625 -5.070312 5.765625 -4.25 C 6.398438 -3.4375 7.378906 -3.03125 8.703125 -3.03125 C 10.023438 -3.03125 11 -3.4375 11.625 -4.25 C 12.257812 -5.070312 12.578125 -6.238281 12.578125 -7.75 C 12.578125 -8.976562 12.300781 -10.039062 11.75 -10.9375 C 11.195312 -11.84375 10.507812 -12.679688 9.6875 -13.453125 C 8.875 -14.222656 7.992188 -14.976562 7.046875 -15.71875 C 6.097656 -16.46875 5.210938 -17.28125 4.390625 -18.15625 C 3.578125 -19.039062 2.894531 -20.039062 2.34375 -21.15625 C 1.789062 -22.28125 1.515625 -23.613281 1.515625 -25.15625 C 1.515625 -27.71875 2.113281 -29.738281 3.3125 -31.21875 C 4.507812 -32.695312 6.351562 -33.4375 8.84375 -33.4375 Z M 8.84375 -33.4375 "/></g></g></g><g fill="#dcd7c9" fill-opacity="1"><g transform="translate(570.610256, 381.365413)"><g><path d="M 7.75 -11.875 L 0.75 -33.109375 L 4.59375 -33.109375 L 9.75 -16.84375 L 14.953125 -33.109375 L 18.453125 -33.109375 L 11.40625 -11.875 L 11.40625 0 L 7.75 0 Z M 7.75 -11.875 "/></g></g></g><g fill="#dcd7c9" fill-opacity="1"><g transform="translate(605.188003, 381.365413)"><g><path d="M 14.09375 -0.046875 L 10.546875 -0.046875 L 5.0625 -26.390625 L 5.0625 0 L 1.84375 0 L 1.84375 -33.109375 L 7 -33.109375 L 12.4375 -6.671875 L 17.6875 -33.109375 L 22.84375 -33.109375 L 22.84375 0 L 19.34375 0 L 19.34375 -26.625 Z M 14.09375 -0.046875 "/></g></g></g><g fill="#dcd7c9" fill-opacity="1"><g transform="translate(645.298834, 381.365413)"><g><path d="M 1.609375 -25.109375 C 1.609375 -27.671875 2.226562 -29.695312 3.46875 -31.1875 C 4.71875 -32.6875 6.617188 -33.4375 9.171875 -33.4375 C 11.722656 -33.4375 13.628906 -32.6875 14.890625 -31.1875 C 16.160156 -29.695312 16.796875 -27.671875 16.796875 -25.109375 L 16.796875 -8 C 16.796875 -5.46875 16.160156 -3.445312 14.890625 -1.9375 C 13.628906 -0.425781 11.722656 0.328125 9.171875 0.328125 C 6.617188 0.328125 4.71875 -0.425781 3.46875 -1.9375 C 2.226562 -3.445312 1.609375 -5.46875 1.609375 -8 Z M 5.25 -7.796875 C 5.25 -6.285156 5.570312 -5.113281 6.21875 -4.28125 C 6.863281 -3.445312 7.847656 -3.03125 9.171875 -3.03125 C 10.523438 -3.03125 11.515625 -3.445312 12.140625 -4.28125 C 12.773438 -5.113281 13.09375 -6.285156 13.09375 -7.796875 L 13.09375 -25.296875 C 13.09375 -26.816406 12.773438 -27.992188 12.140625 -28.828125 C 11.515625 -29.660156 10.523438 -30.078125 9.171875 -30.078125 C 7.847656 -30.078125 6.863281 -29.660156 6.21875 -28.828125 C 5.570312 -27.992188 5.25 -26.816406 5.25 -25.296875 Z M 5.25 -7.796875 "/></g></g></g><g fill="#dcd7c9" fill-opacity="1"><g transform="translate(679.072647, 381.365413)"><g><path d="M 5.15625 0 L 1.84375 0 L 1.84375 -33.109375 L 6.53125 -33.109375 L 14.1875 -9.171875 L 14.1875 -33.109375 L 17.453125 -33.109375 L 17.453125 0 L 13.625 0 L 5.15625 -26.765625 Z M 5.15625 0 "/></g></g></g></svg>